<svg xmlns="http://www.w3.org/2000/svg" width="1024" height="1024" viewBox="0 0 1024 1024" version="1.1">
	<path d="M 596.274 196.386 C 589.565 198.076, 583.655 202.003, 582.074 205.822 C 580.847 208.783, 580.780 208.806, 577.447 207.413 C 568.352 203.613, 557.627 208.469, 553.548 218.232 C 552.696 220.269, 552 223.105, 552 224.535 C 552 226.210, 550.756 228.308, 548.500 230.435 C 543.595 235.061, 543.699 238.802, 548.847 242.879 C 551.313 244.832, 553.722 248.182, 555.560 252.213 C 557.972 257.504, 558.419 259.767, 558.383 266.500 C 558.325 277.467, 555.597 284.220, 547.903 292.444 C 542.055 298.696, 542 298.811, 542 304.759 C 542 310.429, 541.808 310.909, 538.548 313.396 L 535.096 316.029 534.513 312.264 C 534.192 310.194, 533.110 305.214, 532.108 301.197 L 530.287 293.894 534.022 291.989 C 539.102 289.397, 545.513 281.876, 547.425 276.266 C 550.361 267.650, 548.642 253.564, 544.190 249.756 C 538.835 245.175, 524.831 243.325, 515.531 245.970 C 508.771 247.892, 500 256.216, 500 260.710 L 500 263.806 493.250 260.983 C 471.897 252.054, 444.416 253.506, 427.029 264.482 C 424.835 265.867, 422.813 267, 422.537 267 C 422.260 267, 420.921 264.805, 419.562 262.122 C 418.202 259.439, 415.616 255.770, 413.816 253.970 C 409.617 249.771, 401.561 246.022, 396.710 246.010 C 388.446 245.988, 379.182 253.906, 377.044 262.816 C 374.023 275.411, 382.668 291.047, 394.386 294.181 L 398.752 295.349 397.503 298.424 C 396.816 300.116, 395.709 303.835, 395.042 306.690 C 393.875 311.684, 393.738 311.838, 391.415 310.779 C 389.488 309.901, 389 308.923, 389 305.935 C 389 302.575, 388.554 301.929, 384.666 299.650 C 379.177 296.433, 373.851 290.556, 370.290 283.786 C 367.816 279.082, 367.510 277.455, 367.510 269 C 367.510 260.615, 367.826 258.899, 370.206 254.380 C 371.688 251.564, 374.230 248.143, 375.854 246.776 C 378.311 244.709, 378.773 243.624, 378.603 240.311 C 378.338 235.121, 374.429 231.473, 362.812 225.575 C 350.037 219.089, 342.264 217.656, 323.173 218.266 C 305.790 218.823, 298.451 220.421, 285.227 226.531 C 275.316 231.110, 266.312 237.656, 255.748 247.962 C 250.935 252.658, 245.872 257.496, 244.498 258.714 C 241.394 261.465, 241.066 267.626, 243.842 271.053 C 245.637 273.270, 245.627 273.508, 243.469 280.414 C 242.252 284.311, 240.721 291.325, 240.068 296 C 238.077 310.255, 237.902 310.368, 235.894 298.701 C 229.710 262.771, 213.684 241.038, 185.596 230.493 C 175.752 226.797, 160.538 224.669, 149.586 225.456 C 126.535 227.112, 109.667 233.896, 95.387 247.255 C 84.989 256.981, 78.818 266.698, 74.050 280.850 C 67.816 299.357, 59.835 357.218, 59.685 385 C 59.557 408.749, 61.956 415.263, 72.800 420.602 C 79.038 423.674, 79.078 423.719, 76.800 425.232 C 72.139 428.330, 60.133 441.169, 55.126 448.411 C 45.023 463.026, 38.440 481.145, 33.972 506.630 C 32.470 515.201, 33.108 518.298, 37.134 521.975 L 40.182 524.759 38.034 541.630 C 36.852 550.908, 34.299 570.200, 32.360 584.500 C 27.558 619.912, 28.223 627.351, 37.094 637.454 C 40.860 641.744, 52.812 648, 57.241 648 C 59.630 648, 59.962 648.328, 59.514 650.250 C 57.597 658.488, 52 691.515, 52 694.590 C 52 701.595, 56.363 703.676, 76.938 706.483 C 83.229 707.341, 88.457 708.146, 88.556 708.271 C 88.655 708.397, 89.706 721.325, 90.892 737 C 92.077 752.675, 93.312 768.015, 93.635 771.090 L 94.222 776.680 89.761 779.294 C 87.308 780.732, 82.796 784.613, 79.735 787.920 C 67.349 801.298, 66.972 816.548, 78.940 820.086 C 81.199 820.754, 93.492 821.022, 112.576 820.819 L 142.651 820.500 146.341 818 C 152.496 813.829, 153.971 809.397, 154.185 794.434 L 154.370 781.500 154.935 795.500 C 155.599 811.949, 156.835 815.126, 163.985 818.750 C 168.296 820.935, 169.292 821, 198.500 821 C 227.776 821, 228.683 820.940, 232.539 818.767 C 236.323 816.633, 237.819 816.510, 266.080 816.017 L 295.661 815.500 299.241 812.767 C 305.062 808.324, 306.419 803.252, 305.680 788.712 C 305.077 776.873, 305.790 743.005, 307.968 680 C 308.548 663.225, 309.251 648.488, 309.530 647.250 C 309.913 645.552, 310.748 645, 312.931 645 C 316.631 645, 316.728 645.622, 317.593 675 C 317.958 687.375, 318.679 698.620, 319.195 699.990 C 320.576 703.655, 322.110 739.159, 322.398 774.108 C 322.632 802.540, 322.791 804.958, 324.629 808.105 C 325.718 809.968, 328.113 812.507, 329.952 813.747 C 333.188 815.927, 334.074 816.001, 357.398 816.031 C 381.237 816.062, 381.544 816.089, 385.500 818.526 L 389.500 820.990 419.500 820.978 C 448.674 820.967, 449.610 820.906, 453.500 818.734 C 459.924 815.146, 462.271 809.233, 462.892 795.071 L 463.400 783.500 464.503 797.247 C 465.684 811.965, 466.439 813.997, 472.383 818.438 C 474.997 820.391, 476.660 820.515, 503.933 820.793 C 529.338 821.051, 533.240 820.881, 537.112 819.352 C 540.164 818.147, 543.326 817.746, 547.500 818.037 C 550.800 818.268, 563.400 818.466, 575.500 818.478 L 597.500 818.500 602.154 815.764 C 610.663 810.762, 612.732 802.226, 609.513 785.403 C 608.196 778.523, 608.196 777.441, 609.513 775.986 C 610.750 774.619, 611 769.904, 610.999 747.921 C 610.997 718.521, 612.800 639.759, 613.554 636.250 C 613.954 634.393, 614.706 634, 617.863 634 L 621.689 634 622.321 648.636 C 622.668 656.685, 623.470 688.298, 624.103 718.886 C 625.045 764.447, 625.512 774.797, 626.682 776.140 C 627.923 777.564, 627.906 778.574, 626.556 783.785 C 625.700 787.087, 625 793.595, 625 798.246 C 625 808.502, 626.892 812.038, 634.468 815.941 C 639.236 818.397, 640.248 818.513, 659.574 818.822 C 670.649 818.999, 682.997 818.689, 687.013 818.132 C 693.498 817.234, 694.741 817.337, 698.118 819.060 C 701.769 820.923, 704.585 821, 768.811 821 L 835.702 821 840.404 818.500 C 844.995 816.059, 845.606 816, 866.405 816 C 886.903 816, 887.831 815.914, 891.078 813.726 C 895.972 810.428, 898.791 805.674, 899.393 799.700 C 899.681 796.840, 900.161 774.700, 900.459 750.500 C 900.797 723.132, 901.420 704.988, 902.108 702.500 C 903.287 698.241, 904.477 682.422, 905.552 656.750 L 906.211 641 909.995 641 L 913.779 641 914.447 662.750 C 914.815 674.712, 915.553 693.050, 916.088 703.500 C 916.622 713.950, 917.008 740.725, 916.944 763 C 916.875 787.218, 917.221 804.505, 917.804 806 C 919.141 809.430, 923.388 813.817, 926.527 815.010 C 928.035 815.583, 941.760 816, 959.142 816 L 989.154 816 992.003 813.150 C 1000.961 804.193, 992.682 782.737, 976.110 771.957 L 973.738 770.414 974.843 735.465 C 975.530 713.771, 976.333 700.389, 976.961 700.180 C 977.518 699.994, 978.992 699.016, 980.237 698.006 C 982.471 696.192, 982.500 695.870, 982.500 672.733 L 982.500 649.296 988.155 648.129 C 1005.210 644.607, 1018.312 632.344, 1019.682 618.622 C 1019.963 615.805, 1019.252 603.825, 1018.101 592 C 1012.446 533.894, 1012.643 536.619, 1014.054 536.149 C 1017.401 535.033, 1020 531.042, 1020 527.019 C 1020 521.546, 1014.513 493.570, 1011.366 483 C 1006.846 467.817, 997.258 452.105, 986.222 441.797 C 976.721 432.924, 961.302 424.515, 949.006 421.501 C 945.153 420.557, 942.022 419.496, 942.048 419.142 C 942.074 418.789, 944.593 416.925, 947.645 415 C 957.023 409.084, 968.600 395.738, 976.179 382.106 C 977.102 380.445, 979.359 378.459, 981.194 377.692 C 985.721 375.801, 990.669 369.926, 994.371 362.047 C 997.032 356.383, 997.500 354.130, 997.834 345.347 L 998.220 335.194 993.860 330.464 L 989.500 325.734 989.391 310.617 C 989.281 295.350, 988.768 292.291, 984.352 280.592 C 982.832 276.563, 982.746 275.601, 983.875 275.217 C 989.735 273.227, 990.898 264.744, 985.985 259.832 C 983.266 257.113, 982.453 256.851, 977.687 257.159 C 972.729 257.479, 972.106 257.246, 967.572 253.371 C 955.720 243.240, 938.475 235.327, 923 232.918 C 912.655 231.308, 892.548 232.302, 882.900 234.901 C 868.844 238.688, 854.806 246.298, 847.192 254.257 L 843.883 257.716 845.860 263.608 C 849.365 274.055, 851.806 294.717, 850.211 300.432 C 849.451 303.153, 844.589 307.923, 843.592 306.925 C 843.349 306.683, 842.459 299.868, 841.613 291.782 C 839.241 269.105, 836.942 262.002, 828.362 250.831 C 818.607 238.131, 805.330 229.838, 788.542 225.958 C 780.563 224.115, 777.062 223.818, 768.678 224.278 C 757.129 224.912, 743.787 228.396, 735.027 233.068 C 727.915 236.860, 714.774 248.849, 712.518 253.603 C 710.845 257.128, 710.851 257.550, 712.635 263.393 C 714.722 270.226, 715.024 280.497, 713.614 296.652 L 712.728 306.804 709.043 308.251 L 705.358 309.698 705.391 303.599 C 705.410 300.245, 704.627 295.164, 703.651 292.308 C 701.980 287.414, 701.975 286.967, 703.575 284.525 C 705.978 280.858, 705.688 275.603, 702.538 265.711 C 700.152 258.215, 699.954 256.671, 700.981 253.558 C 703.136 247.029, 699.953 238.976, 692.502 232.108 C 689.229 229.091, 687.420 226.409, 686.445 223.126 C 683.995 214.875, 675.204 209, 665.311 209 C 662.699 209, 661.235 208.198, 658.814 205.441 C 653.775 199.702, 648.814 197.691, 638.500 197.208 C 632.234 196.915, 628.461 197.211, 626.080 198.184 C 622.989 199.447, 622.268 199.387, 618.580 197.561 C 613.564 195.077, 603.561 194.550, 596.274 196.386 M 783.500 284.681 C 763.880 299.143, 740.941 311.871, 718.856 320.548 L 709.212 324.338 709.741 332.049 C 710.128 337.705, 709.834 341.038, 708.638 344.550 C 707.740 347.184, 707.118 349.452, 707.256 349.589 C 707.394 349.727, 709.973 350.465, 712.988 351.228 L 718.471 352.617 722.553 360.648 C 727.030 369.455, 734.171 379.283, 739.114 383.443 C 747.624 390.603, 759.938 394.366, 774.500 394.255 C 791.384 394.127, 801.368 389.713, 813.240 377.129 C 817.481 372.633, 821.206 367.249, 824.438 360.946 C 827.101 355.751, 829.422 351.333, 829.594 351.130 C 829.766 350.926, 831.986 350.371, 834.526 349.896 C 843.770 348.169, 848.190 341.895, 845.930 333.709 C 844.560 328.748, 841.146 326.561, 836.043 327.377 C 830.904 328.199, 829 325.726, 829 318.226 C 829 313.010, 828.921 312.865, 825.250 311.354 C 817.378 308.112, 814.906 306.669, 810.347 302.656 C 805.046 297.990, 796.491 285.512, 795.500 281.002 C 795.141 279.363, 794.543 277.863, 794.173 277.667 C 793.803 277.471, 789 280.627, 783.500 284.681 M 601.158 283.503 C 597.775 287.071, 592.180 288.320, 585.290 287.046 C 582.178 286.471, 579.030 286, 578.294 286 C 574.712 286, 566.069 306.459, 564.430 318.819 C 563.513 325.732, 562.211 326.688, 555.914 325.075 C 549.611 323.459, 546.654 325.084, 544.833 331.163 C 543.705 334.929, 543.763 335.440, 545.432 336.417 C 546.449 337.013, 549.270 339.188, 551.701 341.250 C 554.132 343.313, 557.164 345, 558.438 345 C 561.428 345, 562.337 346.244, 564.523 353.326 C 570.021 371.137, 586.094 386.217, 604.103 390.463 C 612.255 392.384, 627.680 392.400, 635.760 390.494 C 644.248 388.493, 653.246 383.786, 659.164 378.250 C 665.057 372.737, 672.504 361.813, 674.837 355.257 C 677.175 348.686, 677.499 348.317, 681.590 347.549 C 691.239 345.739, 695.758 340.691, 694.713 332.894 C 693.869 326.604, 690.287 323.684, 684.481 324.555 C 680.686 325.124, 680.001 324.923, 678.685 322.850 C 677.864 321.558, 676.887 318.601, 676.513 316.279 C 676.140 313.958, 674.983 310.976, 673.942 309.653 C 672.901 308.330, 670.065 303.029, 667.641 297.874 C 661.173 284.121, 661.437 284.362, 655.136 286.455 C 647.518 288.985, 637.334 287.422, 633.312 283.104 C 631.521 281.182, 631.217 281.159, 626.965 282.633 C 619.119 285.352, 612.925 285.513, 608.235 283.120 C 605.949 281.954, 603.949 281.008, 603.790 281.017 C 603.630 281.027, 602.446 282.146, 601.158 283.503 M 310 284.552 C 281.593 292.583, 280.535 292.672, 276.281 287.369 L 273.368 283.738 269.836 286.839 C 264.609 291.428, 260.080 301.528, 257.608 314.102 C 256.439 320.050, 254.937 325.463, 254.271 326.129 C 253.323 327.077, 252.205 327.058, 249.119 326.039 C 243.721 324.258, 240.579 325.260, 238.619 329.390 C 233.828 339.487, 240.550 348.957, 253.860 350.861 C 258.273 351.492, 258.435 351.646, 260.743 357.388 C 267.560 374.345, 281.992 387.042, 299 391.047 C 306.638 392.846, 321.194 392.647, 328.887 390.638 C 347.764 385.711, 363.176 370.338, 366.934 352.687 C 368.867 343.610, 375.637 337.284, 385.373 335.458 C 388.843 334.807, 389.101 334.533, 388.509 332.124 C 386.762 325.010, 382.222 322.174, 376.446 324.587 C 371.531 326.640, 370.524 325.547, 369.080 316.596 C 367.685 307.947, 362.598 296.768, 358.159 292.596 L 355.069 289.692 349.285 291.937 C 346.103 293.172, 341.925 294.797, 340 295.547 C 331.752 298.764, 327.168 296.680, 322.394 287.543 C 320.802 284.497, 319.275 282.037, 319 282.077 C 318.725 282.116, 314.675 283.230, 310 284.552 M 132.315 294.073 C 131.178 295.958, 129.006 300.313, 127.487 303.750 L 124.727 310 111.975 310 L 99.223 310 98.634 313.250 C 95.343 331.430, 95.889 351.423, 99.971 362.166 C 104.122 373.091, 113.438 383.655, 123.980 389.393 C 135.333 395.572, 155.997 397.869, 169.276 394.429 C 187.207 389.782, 201.777 376.149, 207.064 359.072 C 209.918 349.854, 211.404 333.426, 210.536 320.694 L 209.811 310.050 194.238 309.775 L 178.664 309.500 175.747 300.744 C 174.142 295.928, 172.442 292.227, 171.968 292.520 C 171.495 292.812, 169.865 296.865, 168.347 301.526 L 165.588 310 153.388 310 L 141.189 310 138.233 301.750 C 136.607 297.212, 135.075 292.858, 134.829 292.073 C 134.533 291.128, 133.683 291.804, 132.315 294.073 M 947.500 297.206 C 935.595 299.953, 914.360 300.574, 897.927 298.657 C 890.462 297.786, 883.630 296.795, 882.745 296.456 C 880.768 295.697, 876.365 301.924, 875.374 306.879 C 874.844 309.530, 873.956 310.517, 871.102 311.631 C 866.714 313.342, 860.025 316.778, 857.537 318.597 C 856.096 319.650, 855.954 320.240, 856.874 321.349 C 857.858 322.534, 858.526 322.312, 861.044 319.959 C 868.652 312.852, 881.839 310.125, 892.106 313.535 C 899.254 315.909, 907.952 324.452, 910.324 331.428 C 912.834 338.809, 912.528 349.324, 909.622 355.565 C 903.988 367.664, 895.695 372.974, 882.410 372.990 C 875.389 372.999, 873.516 372.599, 868.243 369.964 C 862.717 367.202, 857.109 362.152, 854.490 357.577 C 853.542 355.922, 853.362 355.942, 851.585 357.906 C 849.721 359.966, 849.723 360, 851.723 360 C 854.444 360, 855.633 361.621, 858.034 368.599 C 862.477 381.512, 872.327 394.670, 882.450 401.213 C 891.987 407.376, 899.819 409.281, 913.774 408.831 C 924.020 408.501, 926.253 408.103, 931.468 405.682 C 944.057 399.837, 953.614 389.988, 960.112 376.165 C 963.874 368.161, 968.201 363.326, 972.401 362.435 C 978.522 361.136, 981.680 356.351, 982.671 346.877 C 983.225 341.570, 983.056 340.514, 981.467 339.352 C 977.555 336.492, 976.279 337.568, 975.554 344.338 C 974.269 356.342, 967.605 365.906, 957.148 370.757 C 952.462 372.931, 950.782 373.184, 943.648 372.793 C 931.013 372.099, 921.653 366.122, 916.405 355.396 C 914.021 350.522, 913.797 349.133, 914.203 341.735 C 914.883 329.338, 919.863 321.114, 930.045 315.572 C 940.166 310.064, 953.966 311.275, 963.435 318.503 C 965.946 320.419, 968 321.717, 968 321.388 C 968 321.058, 967.292 318.056, 966.426 314.716 C 964.498 307.276, 960.983 300.192, 957.849 297.430 C 955.510 295.369, 955.468 295.368, 947.500 297.206 M 472 299.609 C 456.354 310.834, 431.044 324.796, 417.882 329.464 L 410.264 332.166 409.132 342.119 C 407.528 356.225, 407.701 372.432, 409.531 379.458 C 411.816 388.230, 416.536 396.253, 423.087 402.502 C 433.285 412.228, 445.863 416.521, 464 416.464 C 472.918 416.436, 477.081 415.938, 482.542 414.248 C 498.727 409.239, 510.982 397.226, 515.439 382 C 517.238 375.853, 519.284 350.166, 518.809 339.682 L 518.500 332.864 512.454 332.620 C 500.162 332.124, 488.674 323.130, 481.181 308.134 C 478.881 303.533, 477 299.146, 477 298.384 C 477 296.470, 476.052 296.702, 472 299.609 M 588.284 313.775 C 585.344 314.246, 581 319.525, 581 322.626 C 581 325.888, 583.537 330.682, 585.945 331.970 C 589.219 333.723, 593.722 333.143, 596.694 330.587 C 598.992 328.610, 599.500 327.362, 599.500 323.692 C 599.500 317.129, 594.569 312.769, 588.284 313.775 M 645 314.132 C 635.336 317.829, 638.151 333, 648.500 333 C 653.534 333, 658 328.577, 658 323.593 C 658 317.092, 650.855 311.893, 645 314.132 M 280.360 316.460 C 277.552 318.427, 275.626 323.375, 276.427 326.566 C 277.430 330.560, 281.731 334, 285.723 334 C 290.572 334, 295 329.466, 295 324.500 C 295 317.216, 286.189 312.377, 280.360 316.460 M 334.923 317.923 C 332.759 320.087, 332 321.795, 332 324.500 C 332 327.205, 332.759 328.913, 334.923 331.077 C 337.087 333.241, 338.795 334, 341.500 334 C 346.581 334, 351 329.581, 351 324.500 C 351 321.795, 350.241 320.087, 348.077 317.923 C 345.913 315.759, 344.205 315, 341.500 315 C 338.795 315, 337.087 315.759, 334.923 317.923 M 738.923 322.923 C 736.759 325.087, 736 326.795, 736 329.500 C 736 334.581, 740.419 339, 745.500 339 C 750.592 339, 755 334.582, 755 329.478 C 755 326.656, 754.279 325.129, 751.894 322.901 C 747.653 318.939, 742.899 318.947, 738.923 322.923 M 792.328 322.394 C 786.961 327.010, 789.589 336.676, 796.696 338.460 C 800.194 339.338, 805.536 337.357, 807.418 334.485 C 813.471 325.247, 800.808 315.100, 792.328 322.394 M 119.923 325.923 C 115.124 330.723, 116.150 337.475, 122.151 340.578 C 128.747 343.989, 136 339.497, 136 332.002 C 136 323.600, 126.019 319.827, 119.923 325.923 M 178.299 324.503 C 175.453 326.496, 173.667 331.997, 174.855 335.106 C 177.418 341.810, 185.745 343.709, 190.727 338.727 C 194.598 334.857, 194.572 328.749, 190.672 325.394 C 187.425 322.602, 181.612 322.183, 178.299 324.503 M 875.218 329.663 C 868.519 332.965, 865.071 342.387, 868.294 348.584 C 874.938 361.360, 892.171 359.906, 895.941 346.250 C 899.180 334.520, 886.293 324.205, 875.218 329.663 M 938.020 329.695 C 932.508 332.553, 929.740 337.482, 930.228 343.570 C 930.724 349.760, 933.129 353.292, 938.736 356.068 C 950.925 362.102, 963.562 348.452, 957.248 336.071 C 953.643 329.001, 944.930 326.112, 938.020 329.695 M 875.636 336.636 C 871.890 340.382, 872.048 345.202, 876.046 349.200 C 878.679 351.832, 879.596 352.166, 882.796 351.657 C 890.612 350.413, 893.502 342.348, 888.077 336.923 C 884.205 333.051, 879.334 332.939, 875.636 336.636 M 938.455 336.455 C 933.672 341.237, 936.030 349.966, 942.547 351.601 C 945.587 352.364, 950.729 350.374, 952.038 347.929 C 952.567 346.940, 953 344.506, 953 342.520 C 953 334.866, 943.856 331.053, 938.455 336.455 M 428.923 341.923 C 426.759 344.087, 426 345.795, 426 348.500 C 426 353.263, 430.441 358, 434.907 358 C 439.638 358, 444.400 353.234, 444.400 348.500 C 444.400 345.536, 443.724 344.142, 441.184 341.873 C 436.898 338.043, 432.786 338.060, 428.923 341.923 M 484.763 341.344 C 481.386 344.474, 480.619 347.314, 482.011 351.533 C 483.213 355.175, 487.139 358, 491 358 C 494.306 358, 498.499 355.394, 499.805 352.528 C 501.344 349.151, 501.313 348.463, 499.452 344.540 C 496.733 338.810, 489.253 337.183, 484.763 341.344 M 534.549 351.250 C 534.335 351.938, 533.942 356.212, 533.675 360.750 C 533.250 367.962, 533.397 368.997, 534.845 368.978 C 538.372 368.930, 543 363.332, 543 359.113 C 543 355.822, 540.949 352.298, 538.343 351.110 C 535.276 349.713, 535.024 349.722, 534.549 351.250 M 383.573 353.570 C 378.433 358.710, 381.805 367.911, 389.750 370.423 C 391.976 371.127, 392 371.033, 392 361.567 L 392 352 388.571 352 C 386.686 352, 384.436 352.706, 383.573 353.570 M 325.525 360.031 C 317.544 363.997, 310.659 364.078, 303.178 360.293 C 298.215 357.782, 297.636 357.694, 295.164 359.075 C 289.350 362.323, 292.426 370.104, 301.226 374.410 C 307.949 377.699, 315.232 378.624, 321.871 377.031 C 334.063 374.106, 341.519 363.279, 334.653 358.469 C 332.016 356.622, 332.581 356.526, 325.525 360.031 M 630.136 360.087 C 623.202 363.852, 617.900 363.910, 610.540 360.301 C 606.070 358.108, 604.516 357.783, 602.268 358.569 C 600.110 359.323, 599.430 360.268, 599.180 362.856 C 598.913 365.632, 599.514 366.798, 602.842 369.964 C 612.585 379.233, 629.382 379.264, 639.088 370.031 C 643.495 365.839, 644.293 361.480, 641.171 358.655 C 638.667 356.389, 636.406 356.682, 630.136 360.087 M 783 363.214 C 776.519 366.668, 770.780 366.651, 764.077 363.157 C 759.016 360.519, 755.836 360.419, 753.655 362.829 C 747.618 369.499, 760.566 380.015, 774.788 379.990 C 787.567 379.968, 800.102 369.384, 795.560 362.451 C 793.453 359.236, 790.079 359.441, 783 363.214 M 134.088 362.835 C 133.490 363.954, 133 365.782, 133 366.899 C 133 370.097, 138.494 375.536, 144.205 377.993 C 156.661 383.351, 176.250 376.318, 176.250 366.488 C 176.250 361.008, 172.089 359.546, 166.437 363.039 C 161.251 366.244, 154.550 366.590, 147.500 364.017 C 138.331 360.670, 135.386 360.411, 134.088 362.835 M 689.864 362.250 C 689.028 362.938, 686.400 366.875, 684.024 371 C 678.967 379.777, 663.955 395.239, 656.917 398.922 C 653.158 400.888, 652.333 401.817, 652.333 404.080 C 652.333 406.636, 652.803 406.959, 658.659 408.430 C 662.138 409.304, 667.421 411.096, 670.397 412.412 L 675.810 414.806 678.489 407.153 C 679.962 402.944, 684.068 393.500, 687.613 386.167 L 694.059 372.834 697.892 373.482 C 701.471 374.086, 701.859 373.904, 703.728 370.737 L 705.729 367.345 698.920 364.172 C 691.025 360.494, 691.798 360.658, 689.864 362.250 M 241.256 371.715 C 243.588 382.603, 244.058 400.919, 242.144 406.336 C 239.723 413.186, 232.226 420, 227.109 420 C 223.386 420, 223.981 421.816, 228.883 425.414 L 233.775 429.006 242.472 423.546 C 250.511 418.499, 269.879 410, 273.343 410 C 276.913 410, 277.503 409.034, 277.165 403.741 C 276.844 398.711, 276.630 398.363, 271.856 395.085 C 265.144 390.477, 255.275 379.641, 251 372.186 C 248.875 368.479, 246.518 365.713, 245 365.143 C 243.625 364.627, 241.797 363.918, 240.937 363.567 C 239.557 363.004, 239.595 363.958, 241.256 371.715 M 837.053 370.143 C 831.379 381.080, 818.417 395.665, 810.927 399.538 C 808.185 400.956, 808.029 401.344, 808.621 405.279 C 809.385 410.360, 809.256 410.225, 815.500 412.455 C 822.723 415.035, 836.038 422.381, 841.926 427.036 C 846.961 431.015, 847.030 431.036, 850.116 429.440 C 854.834 427, 860.762 424.929, 868.427 423.042 C 874.444 421.561, 875.397 421.016, 875.681 418.895 C 875.950 416.885, 874.786 415.540, 869.084 411.272 C 857.437 402.557, 845.375 385.376, 841.020 371.300 L 839.314 365.785 837.053 370.143 M 553.122 375.049 C 550.395 378.737, 542.090 383.539, 535.846 385.037 C 531.158 386.161, 531.023 386.307, 527.106 394.399 C 522.865 403.160, 512.875 415.060, 506.402 419.061 C 503.300 420.978, 502.928 421.645, 503.231 424.753 C 503.561 428.143, 503.832 428.360, 510.537 430.616 C 514.367 431.905, 520.028 434.284, 523.117 435.903 L 528.735 438.846 533.117 434.364 C 539.237 428.107, 546.437 422.696, 555.576 417.488 C 563.528 412.957, 576.681 408, 580.753 408 C 582.562 408, 582.981 407.464, 582.900 405.250 C 582.713 400.076, 581.495 398.178, 575.500 393.715 C 568.795 388.724, 562.724 382.589, 558.270 376.304 L 555.296 372.108 553.122 375.049 M 894 375.694 C 888.809 377.549, 888.769 383.139, 893.912 388.031 C 903.388 397.045, 919.798 397.417, 928.683 388.818 C 933.394 384.258, 934.647 380.637, 932.596 377.506 C 930.727 374.654, 926.016 374.071, 924.044 376.447 C 923.383 377.243, 920.860 378.652, 918.436 379.578 C 913.086 381.621, 907.901 380.997, 900.951 377.475 C 898.264 376.114, 895.939 375.036, 895.783 375.079 C 895.627 375.122, 894.825 375.399, 894 375.694 M 365.363 385.805 C 361.438 390.037, 355.722 395.075, 352.661 397 C 347.252 400.402, 347.095 400.628, 347.048 405.063 L 347 409.627 355.099 411.967 C 369.567 416.148, 383.148 423.743, 393.980 433.711 L 399.183 438.500 407.828 434.262 C 412.582 431.931, 418.189 429.681, 420.287 429.262 C 422.385 428.843, 424.079 428.163, 424.051 427.750 C 424.023 427.337, 424 425.977, 424 424.726 C 424 423.092, 422.269 421.192, 417.847 417.976 C 410.156 412.381, 402.830 403.505, 398.747 394.834 C 395.765 388.503, 395.404 388.138, 391.547 387.559 C 386.378 386.784, 378.065 382.919, 375.595 380.142 C 374.547 378.964, 373.422 378.025, 373.095 378.055 C 372.768 378.085, 369.288 381.573, 365.363 385.805 M 475.270 384.540 C 468.752 388.469, 462.458 388.814, 455.494 385.626 C 448.705 382.518, 446.869 382.383, 444.655 384.829 C 441.021 388.845, 443.664 393.887, 451.658 398.186 C 458.388 401.805, 463.756 402.503, 470.276 400.608 C 477.050 398.639, 481.855 395.412, 484.333 391.169 C 486.259 387.871, 486.259 387.824, 484.281 385.172 C 481.628 381.615, 480.280 381.521, 475.270 384.540 M 719.519 400.558 C 719.123 406.374, 718.967 411.300, 719.173 411.506 C 719.379 411.713, 723.250 410.680, 727.774 409.212 C 735.435 406.726, 736 406.354, 736 403.792 C 736 401.584, 735.201 400.633, 731.955 398.977 C 729.730 397.842, 726.184 395.354, 724.075 393.449 L 720.240 389.984 719.519 400.558 M 599.200 412.094 C 599.524 416.566, 600.209 418.597, 602.063 420.584 C 608.310 427.276, 619.217 429.212, 628.223 425.226 C 634.207 422.578, 636.991 418.267, 636.996 411.643 C 637 407.411, 636.775 406.878, 635.250 407.499 C 631.362 409.085, 611.570 409.224, 605.138 407.712 L 598.775 406.216 599.200 412.094 M 294.203 412.431 C 294.756 419.099, 297.052 422.717, 302.425 425.385 C 307.845 428.077, 313.814 428.487, 320.267 426.611 C 328.163 424.315, 331 420.714, 331 412.986 L 331 407.126 327.250 407.813 C 321.975 408.779, 303.359 408.669, 298.117 407.640 L 293.734 406.779 294.203 412.431 M 128.024 412.250 C 128.115 424.614, 137.415 434.244, 150.585 435.609 C 165.344 437.139, 176.264 428.533, 177.743 414.205 C 178.275 409.050, 178.182 408.718, 176.407 409.419 C 166.612 413.289, 146.215 413.858, 135.500 410.561 C 128.503 408.407, 127.996 408.521, 128.024 412.250 M 753.188 414.918 C 753.702 422.034, 755.980 425.139, 763 428.294 C 771.784 432.242, 783.330 430.063, 789.626 423.269 C 791.560 421.183, 792 419.628, 792 414.879 L 792 409.050 788.750 409.775 C 784.329 410.761, 761.420 410.694, 756.625 409.681 L 752.750 408.862 753.188 414.918 M 583 423.761 C 570.625 427.675, 559.072 434.039, 548.785 442.608 L 541.953 448.300 548.799 455.400 C 559.782 466.791, 567.477 479.428, 572.429 494.207 C 576.821 507.313, 581.789 527.650, 581.267 530.382 C 580.986 531.852, 579.299 534.280, 577.519 535.778 L 574.281 538.500 575.546 547 C 576.242 551.675, 577.631 563.912, 578.633 574.193 C 580.300 591.289, 580.628 592.934, 582.478 593.449 C 589.408 595.380, 648.539 594.794, 650.559 592.775 C 650.825 592.508, 651.934 584.687, 653.024 575.395 C 654.113 566.103, 655.952 551.654, 657.112 543.286 L 659.219 528.072 655.609 524.668 C 653.624 522.796, 652 520.295, 652 519.110 C 652 515.648, 657.904 483.016, 659.619 477 C 661.958 468.792, 670.278 453.393, 676.502 445.749 C 679.526 442.036, 682 438.764, 682 438.479 C 682 437.377, 668.177 429.088, 662.482 426.774 C 651.817 422.440, 651.326 422.441, 649.111 426.783 C 646.745 431.419, 639.091 438.646, 634.525 440.554 C 624.678 444.668, 609.532 444.353, 600.705 439.849 C 595.684 437.288, 588.313 430.489, 586.171 426.443 C 585.123 424.463, 583.941 423.463, 583 423.761 M 890.288 427.787 C 891.088 434.538, 893.100 437.373, 899.280 440.452 C 911.933 446.758, 927 440.070, 927 428.148 L 927 425.164 915.750 425.699 C 905.500 426.186, 896.575 425.339, 891.591 423.405 C 889.821 422.718, 889.726 423.037, 890.288 427.787 M 104.381 428.386 C 93.466 433.721, 85.450 439.688, 76.404 449.212 C 61.317 465.096, 55.865 477.264, 50.634 506.720 C 50.075 509.867, 50.179 509.976, 55.212 511.470 C 58.121 512.334, 64.172 513, 69.114 513 C 76.591 513, 77.938 512.745, 78.366 511.250 C 78.642 510.288, 79.181 503.234, 79.564 495.575 C 80.201 482.825, 80.456 481.453, 82.585 479.325 C 85.528 476.382, 88.461 476.370, 91.381 479.290 C 93.370 481.279, 93.754 482.951, 94.305 492.040 C 95.069 504.632, 93.652 536.539, 91.507 555.057 C 88.763 578.750, 80.674 626.904, 71.023 676.998 C 69.910 682.772, 69 687.779, 69 688.125 C 69 689.069, 85.225 690.819, 105.983 692.113 C 130.140 693.620, 201.246 692.656, 220 690.567 C 227.425 689.740, 234.287 689.049, 235.250 689.032 C 236.420 689.011, 237 688.207, 237 686.606 C 237 685.289, 234.306 669.972, 231.013 652.568 C 218.271 585.222, 214.271 556.048, 211.948 513.520 C 210.335 483.979, 211.570 477, 218.412 477 C 225.788 477, 227.496 480.999, 228.612 500.883 L 229.307 513.265 236.403 512.703 C 240.307 512.393, 245.916 511.610, 248.869 510.962 L 254.237 509.783 253.546 502.767 C 250.994 476.871, 236.707 452.092, 215.088 436.065 C 208.137 430.912, 195.861 423.997, 193.677 424.004 C 193.030 424.006, 191.631 426.143, 190.568 428.754 C 187.642 435.944, 177.024 446.112, 169.500 448.930 C 157.836 453.297, 143.773 452.496, 132.668 446.831 C 126.364 443.615, 118.972 436.057, 115.984 429.773 L 113.261 424.045 104.381 428.386 M 272.440 426.432 C 264.591 429.455, 258.829 432.357, 251.918 436.769 L 246.336 440.332 253.014 450.416 C 256.687 455.962, 260.871 463.221, 262.312 466.548 C 266.656 476.580, 270.747 494.399, 271.536 506.730 L 272.255 517.960 269.354 520.730 C 266.501 523.454, 266.467 523.615, 267.276 530.500 C 268.633 542.048, 276.140 592.469, 276.565 592.897 C 278.475 594.815, 336.250 595.222, 343.658 593.369 C 346.116 592.754, 346.074 592.940, 351.153 560.099 C 354.239 540.151, 354.266 539.669, 352.404 538.331 C 347.288 534.654, 345 531.714, 345 528.814 C 345 523.919, 353.804 495.310, 358.906 483.627 C 362.435 475.547, 371.286 462.815, 378.832 454.963 L 385.950 447.558 383.225 444.696 C 376.771 437.918, 357.024 427.048, 348.268 425.453 C 345.843 425.011, 345.169 425.502, 342.827 429.412 C 334.701 442.982, 311.908 448.152, 295.600 440.124 C 289.103 436.926, 284.114 432.114, 281.733 426.750 C 280.275 423.466, 280.152 423.462, 272.440 426.432 M 730.971 425.442 C 710.145 433.117, 687.025 454.983, 679.169 474.434 C 676.594 480.808, 673.710 493.573, 672.512 503.900 L 671.774 510.254 683.637 509.561 C 690.162 509.181, 696.228 508.662, 697.117 508.409 C 698.280 508.079, 699.068 505.784, 699.926 500.225 C 702.556 483.179, 705.217 478, 711.345 478 C 718.990 478, 719.642 482.788, 715.547 508.855 C 714.196 517.460, 712.384 529.900, 711.521 536.500 C 710.658 543.100, 709.747 549.443, 709.496 550.595 C 709.100 552.412, 709.736 552.846, 714.280 553.863 C 734.861 558.469, 784.487 560.425, 810 557.636 C 825.613 555.929, 832 554.534, 832 552.832 C 832 552.241, 830.226 539.325, 828.057 524.129 C 822.203 483.108, 822.293 484.381, 825.040 481.457 C 828.190 478.104, 833.286 478.127, 836.420 481.508 C 839.085 484.383, 840.598 489.349, 842.036 499.940 C 842.592 504.032, 843.183 507.516, 843.350 507.683 C 844.176 508.509, 854.962 510, 860.111 510 C 865.925 510, 865.948 509.988, 865.491 507.250 C 865.239 505.738, 864.529 500.910, 863.913 496.522 C 861.792 481.406, 857.051 469.587, 848.596 458.340 C 840.178 447.142, 827.694 436.901, 814.111 430.052 C 809.046 427.498, 807.547 427.108, 806.877 428.166 C 806.411 428.899, 806.024 429.802, 806.015 430.171 C 806.007 430.540, 803.916 432.926, 801.370 435.472 C 792.268 444.574, 778.574 449.192, 766.812 447.128 C 754.222 444.917, 740.918 435.947, 737.915 427.643 C 736.471 423.649, 736.129 423.541, 730.971 425.442 M 441.214 436.276 C 441.602 441.651, 442.032 442.641, 445.258 445.598 C 450.152 450.083, 458.446 452.434, 466.664 451.667 C 473.526 451.026, 478.011 449.165, 482.250 445.199 C 484.697 442.909, 485 441.919, 485 436.206 C 485 430.501, 484.805 429.861, 483.250 430.462 C 476.151 433.205, 460.087 433.715, 448.139 431.578 L 440.779 430.261 441.214 436.276 M 940.071 440.679 C 938.155 445.980, 930.775 453.404, 924.714 456.129 C 920.321 458.104, 917.846 458.475, 909 458.487 C 899.763 458.498, 897.833 458.187, 892.954 455.899 C 885.885 452.583, 880.441 447.798, 877.818 442.595 C 876.683 440.343, 875.613 438.341, 875.441 438.147 C 875.268 437.952, 871.535 438.990, 867.145 440.452 L 859.163 443.110 863.832 449.305 C 876.392 465.974, 881.013 480.676, 884.537 515.186 C 885.189 521.571, 885.095 521.995, 882.467 524.624 L 879.715 527.376 884.434 559.622 C 887.029 577.357, 889.397 592.802, 889.696 593.945 C 889.995 595.087, 891.198 596.227, 892.369 596.479 C 898.756 597.848, 914.155 598.995, 926.196 598.997 C 938.002 599, 964.969 597.335, 965.771 596.555 C 965.921 596.409, 965.355 584.638, 964.514 570.395 C 963.673 556.153, 962.693 532.308, 962.336 517.407 C 961.692 490.566, 961.706 490.294, 963.843 488.157 C 966.923 485.077, 971.495 485.341, 974.954 488.800 C 977.641 491.487, 977.784 492.132, 978.483 504.698 L 979.212 517.796 984.856 518.420 C 987.960 518.763, 992.638 519.301, 995.250 519.616 C 1001.044 520.313, 1000.960 520.936, 997.487 503.126 C 993.138 480.822, 987.763 468.992, 976.657 457.285 C 968.390 448.571, 960.928 443.454, 952.102 440.448 C 940.771 436.590, 941.556 436.575, 940.071 440.679 M 418.325 447.365 C 396.907 456.011, 383.129 469.103, 372.932 490.500 C 368.776 499.220, 362 519.086, 362 522.552 C 362 523.213, 364.137 524.672, 366.750 525.795 C 372.179 528.128, 387.191 531.212, 388.119 530.185 C 388.459 529.808, 389.645 523.308, 390.754 515.740 C 391.863 508.173, 393.328 501.310, 394.008 500.490 C 395.852 498.268, 401.348 498.621, 403.595 501.107 C 405.868 503.622, 405.836 511.039, 403.442 536.500 C 400.301 569.911, 390.241 628.891, 379.956 674.194 C 378.330 681.355, 377 687.579, 377 688.024 C 377 689.070, 384.187 690.607, 401 693.158 C 418.094 695.751, 480.405 696.913, 503.792 695.074 C 517.967 693.960, 542.593 690.505, 545.988 689.154 C 547.465 688.567, 547.145 686.058, 542.842 664.500 C 533.590 618.154, 524.076 553.042, 521.797 520.475 C 520.540 502.514, 521.096 499.679, 526.374 497.150 C 528.922 495.928, 529.511 495.991, 531.838 497.729 C 534.788 499.931, 535.193 501.531, 537.032 518.250 L 538.325 530 542.557 530 C 547.124 530, 559.158 526.680, 562.647 524.457 L 564.793 523.089 562.505 515.295 C 554.011 486.358, 541.598 467.233, 523.418 455.073 C 517.203 450.917, 501.210 443.288, 500.580 444.181 C 500.456 444.356, 499.566 446.629, 498.602 449.232 C 496.409 455.150, 489.838 461.120, 482.147 464.181 C 477.309 466.107, 474.637 466.429, 463.500 466.429 C 452.233 466.429, 449.700 466.117, 444.500 464.084 C 437.298 461.268, 429.900 454.185, 427.879 448.170 L 426.500 444.065 418.325 447.365 M 679.750 526.728 C 677.688 526.944, 675.998 527.206, 675.996 527.310 C 675.994 527.415, 674.866 535.786, 673.489 545.913 C 672.111 556.041, 669.856 573.591, 668.475 584.913 C 667.095 596.236, 665.291 607.846, 664.466 610.714 C 660.776 623.533, 668.014 634.994, 679.801 634.998 C 683.714 635, 684.223 634.706, 685.437 631.750 C 687.927 625.688, 688.264 622.075, 686.654 618.684 C 685.310 615.850, 685.291 614.216, 686.498 604.983 C 687.251 599.217, 689.491 580.775, 691.476 564 C 693.461 547.225, 695.348 531.813, 695.670 529.750 L 696.256 526 689.878 526.168 C 686.370 526.261, 681.813 526.513, 679.750 526.728 M 245.500 528.057 C 243.300 528.512, 238.846 528.911, 235.602 528.942 L 229.705 529 230.378 538.574 C 231.344 552.322, 234.461 575.044, 239.009 601.500 C 244.193 631.648, 244.228 631.765, 248.415 632.550 C 253.825 633.565, 260.540 629.003, 262.933 622.685 C 264.612 618.255, 264.238 613.483, 260.592 592.818 C 258.717 582.193, 255.699 563.038, 253.884 550.250 C 252.069 537.462, 250.340 527.052, 250.042 527.115 C 249.744 527.178, 247.700 527.602, 245.500 528.057 M 847.398 534.592 C 847.784 538.941, 849.686 554.200, 851.625 568.500 C 857.662 613.027, 857.703 613.540, 855.526 617.582 C 853.825 620.741, 853.769 621.584, 854.950 626.290 C 855.669 629.155, 856.705 632.063, 857.251 632.750 C 859.900 636.082, 868.873 632.800, 873.239 626.903 C 877.036 621.776, 876.570 615.361, 869.161 570.697 C 865.348 547.705, 862.004 528.671, 861.732 528.399 C 861.460 528.126, 857.965 527.629, 853.966 527.294 L 846.696 526.684 847.398 534.592 M 54.141 537.728 C 52.096 555.160, 48.088 586.049, 45.899 601.247 C 43.855 615.440, 43.836 616.282, 45.470 620.561 C 47.812 626.694, 52.776 630.369, 58.816 630.443 L 63.437 630.500 67.140 607.500 C 71.103 582.882, 75.458 550.318, 76.451 537.881 L 77.060 530.263 67.780 529.576 C 62.676 529.199, 57.777 528.680, 56.894 528.423 C 55.547 528.032, 55.102 529.539, 54.141 537.728 M 980 537.125 C 980 540.370, 982.116 571.949, 983.587 590.655 C 984.860 606.830, 984.928 611.266, 983.933 613.126 C 983.251 614.400, 982.590 618.752, 982.463 622.797 C 982.197 631.317, 982.872 632.023, 989.261 629.914 C 994.624 628.144, 998.582 624.733, 1001.203 619.624 C 1003.560 615.029, 1003.636 616.826, 998.924 565.565 C 997.866 554.050, 997 542.913, 997 540.815 C 997 537.476, 996.706 537, 994.647 537 C 993.352 537, 989.527 536.711, 986.147 536.358 C 981.221 535.843, 980 535.995, 980 537.125 M 366.150 560.750 C 363.322 580.996, 359.662 601.500, 356.821 613.013 C 354.814 621.144, 354.793 621.777, 356.356 627.152 C 358.771 635.461, 365.518 641.550, 370.282 639.722 C 372.675 638.804, 387.971 547, 385.732 547 C 385.426 547, 381.649 546.325, 377.338 545.500 C 373.027 544.675, 369.273 544, 368.995 544 C 368.717 544, 367.437 551.538, 366.150 560.750 M 548.595 545.606 C 544.797 546.360, 541.553 547.114, 541.386 547.281 C 540.882 547.784, 545.793 585.024, 549.511 608.899 C 551.430 621.218, 553 632.356, 553 633.649 C 553 635.660, 553.496 636, 556.429 636 C 561.319 636, 566.321 631.024, 568.371 624.121 C 569.812 619.271, 569.817 617.741, 568.427 607.637 C 566.238 591.720, 560.049 550.007, 559.394 546.750 C 558.769 543.642, 558.578 543.622, 548.595 545.606 M 685.540 734.713 C 684.832 772.783, 684.879 774.514, 686.650 775.485 C 687.668 776.042, 691.200 779.217, 694.500 782.541 L 700.501 788.583 705.500 784.794 C 708.250 782.710, 711.962 780.519, 713.750 779.925 C 716.742 778.931, 717 778.505, 717 774.569 C 717 761.542, 713.256 699.948, 712.412 699.087 C 712.189 698.859, 707.079 698.110, 701.056 697.421 C 695.033 696.732, 689.244 695.895, 688.192 695.561 C 686.339 694.973, 686.257 696.188, 685.540 734.713 M 832.876 698.739 L 826.252 699.086 825.560 710.293 C 825.179 716.457, 824 732.525, 822.940 746 C 820.511 776.865, 820.500 778.882, 822.750 779.694 C 823.712 780.041, 825.694 781.152, 827.154 782.163 C 830.368 784.387, 831 784.445, 831 782.518 C 831 781.051, 837.624 773.764, 841.511 770.954 C 843.491 769.523, 843.508 768.946, 842.615 733.750 C 841.979 708.659, 841.379 698.058, 840.604 698.196 C 839.997 698.304, 836.519 698.548, 832.876 698.739 M 728.011 702.605 C 728.017 704.747, 728.909 722.025, 729.993 741 C 731.077 759.975, 731.972 775.990, 731.982 776.588 C 731.994 777.325, 736.628 777.648, 746.344 777.588 L 760.687 777.500 761.344 753.588 C 761.705 740.437, 762 722.999, 762 714.838 L 762 700 751.750 699.993 C 746.112 699.989, 738.462 699.699, 734.750 699.348 L 728 698.711 728.011 702.605 M 784.250 700.740 L 778 701.095 778 728.892 C 778 744.180, 778.295 761.511, 778.656 767.404 L 779.311 778.120 792.906 777.810 L 806.500 777.500 807.746 758.500 C 808.431 748.050, 809.557 730.612, 810.248 719.750 L 811.505 700 801.002 700.193 C 795.226 700.299, 787.688 700.545, 784.250 700.740 M 856.351 714.097 C 856.700 722.018, 857.278 736.938, 857.635 747.250 L 858.284 766 870.945 766 L 883.605 766 884.822 739.250 C 885.491 724.538, 886.030 709.913, 886.020 706.750 L 886 701 874.125 701 C 867.594 701, 860.780 700.706, 858.983 700.347 L 855.716 699.693 856.351 714.097 M 932.127 720.248 C 932.472 730.837, 932.810 745.462, 932.877 752.750 L 933 766 945.853 766 L 958.707 766 959.383 737.750 C 959.755 722.212, 960.322 707.587, 960.643 705.250 L 961.227 701 946.364 700.998 L 931.500 700.997 932.127 720.248 M 235.500 705.545 C 231.100 706.262, 225.402 706.884, 222.838 706.925 C 217.223 707.015, 217.883 704.369, 214.961 738.500 C 213.831 751.700, 212.563 765.770, 212.142 769.766 L 211.378 777.031 215.813 779.631 C 218.253 781.061, 222.037 783.845, 224.221 785.819 C 227.988 789.222, 228.247 789.306, 229.247 787.453 C 230.550 785.037, 240.478 775.217, 244.388 772.476 L 247.275 770.452 246.129 745.476 C 245.499 731.739, 244.987 716.788, 244.992 712.250 C 244.996 707.712, 244.662 704.054, 244.250 704.120 C 243.838 704.185, 239.900 704.827, 235.500 705.545 M 260.367 728.138 C 260.736 741.537, 261.313 755.538, 261.648 759.250 L 262.258 766 276.129 766 L 290 766 289.979 760.250 C 289.967 757.087, 290.505 743.600, 291.174 730.279 C 291.843 716.957, 292.190 705.872, 291.945 705.645 C 291.700 705.418, 284.344 704.905, 275.598 704.504 L 259.696 703.775 260.367 728.138 M 335.374 708.750 C 335.683 711.362, 336.484 725.313, 337.154 739.750 L 338.372 766 351.069 766 L 363.765 766 364.366 758.750 C 364.696 754.763, 365.262 740.813, 365.623 727.750 L 366.279 704 350.546 704 L 334.812 704 335.374 708.750 M 535 708.050 C 529.775 709.017, 525.190 709.852, 524.811 709.904 C 523.674 710.062, 523.016 717.061, 521.202 748.307 L 519.471 778.115 523.486 779.929 C 525.694 780.927, 529.272 783.300, 531.438 785.203 L 535.375 788.663 538.479 784.582 C 540.186 782.337, 543.743 778.925, 546.383 777 L 551.184 773.500 550.572 748 C 550.235 733.975, 549.690 718.788, 549.361 714.250 C 548.669 704.699, 549.998 705.273, 535 708.050 M 381.609 717.193 C 381.284 722.862, 380.635 737.175, 380.167 749 C 379.331 770.163, 379.350 770.523, 381.409 771.937 C 382.559 772.728, 385.776 775.715, 388.558 778.575 L 393.616 783.776 400.396 780.638 L 407.175 777.500 406.620 769.500 C 406.038 761.122, 401.705 710.643, 401.538 710.305 C 401.486 710.197, 398.305 709.627, 394.471 709.037 C 390.637 708.447, 386.308 707.722, 384.850 707.425 L 382.200 706.885 381.609 717.193 M 177.624 709.748 L 164.747 710.062 165.386 729.281 C 165.738 739.851, 166.299 754.013, 166.633 760.750 L 167.241 773 181.548 773 L 195.856 773 196.435 767.750 C 196.753 764.862, 197.907 752.150, 198.998 739.500 C 200.090 726.850, 201.217 714.813, 201.503 712.750 L 202.024 709 196.262 709.217 C 193.093 709.337, 184.706 709.576, 177.624 709.748 M 105.397 713.750 C 105.712 715.813, 106.659 727.175, 107.501 739 C 108.343 750.825, 109.286 763.313, 109.596 766.750 L 110.159 773 124.944 773 L 139.728 773 140.349 761.750 C 140.690 755.563, 141.262 741.681, 141.620 730.903 L 142.272 711.306 138.386 710.664 C 136.249 710.311, 127.823 710.017, 119.662 710.011 L 104.824 710 105.397 713.750 M 417.310 716.909 C 417.619 719.984, 418.676 734.987, 419.660 750.250 L 421.448 778 435.628 778 L 449.808 778 450.374 767.750 C 450.685 762.112, 451.196 747.518, 451.510 735.317 L 452.080 713.135 447.790 712.601 C 445.431 712.308, 437.481 711.899, 430.124 711.693 L 416.748 711.318 417.310 716.909 M 491.124 711.962 L 474.747 712.500 474.969 723.500 C 475.091 729.550, 475.710 744.175, 476.345 756 L 477.500 777.500 491.577 777.776 L 505.655 778.053 506.885 754.276 C 507.561 741.199, 508.382 726.112, 508.709 720.750 C 509.050 715.140, 508.920 711.090, 508.401 711.212 C 507.905 711.329, 500.131 711.667, 491.124 711.962 M 569.317 786.931 C 561.145 787.388, 558.577 787.912, 556.317 789.589 C 553.236 791.873, 548.396 799.730, 549.432 800.765 C 550.415 801.749, 580.012 802.339, 587.598 801.526 L 594.272 800.812 593.670 794.365 C 593.339 790.819, 592.801 787.487, 592.475 786.959 C 591.861 785.965, 586.699 785.959, 569.317 786.931 M 642.105 791.947 C 639.997 801.775, 640.047 801.827, 652.500 802.678 C 660.276 803.209, 684.704 801.630, 685.810 800.524 C 686.637 799.696, 680.899 791.984, 677.677 789.594 C 675.148 787.718, 673.206 787.463, 659.032 787.148 L 643.210 786.795 642.105 791.947" stroke="none" fill="black" fill-rule="evenodd"/>
</svg>