<svg xmlns="http://www.w3.org/2000/svg" width="1024" height="1024" viewBox="0 0 1024 1024" version="1.1">
	<path d="M 705.335 76.423 C 698.009 78.199, 690.006 82.491, 682.549 88.642 L 676.116 93.948 668.398 91.974 C 659.100 89.596, 648.957 89.447, 640.644 91.567 C 633.256 93.451, 622.247 99.733, 618.448 104.234 C 614.743 108.623, 610.216 118.375, 609.420 123.682 L 608.773 128 604.097 128 C 587.797 128, 571.290 138.714, 565.959 152.753 C 563.188 160.050, 562.251 173.709, 564.016 181.065 C 565.258 186.243, 565.226 186.437, 562.897 187.944 C 556.985 191.768, 550.786 198.690, 547.750 204.856 C 544.846 210.756, 544.481 212.494, 544.160 221.961 C 543.863 230.724, 544.163 233.566, 545.938 238.829 C 548.525 246.494, 551.901 252.120, 557.243 257.668 L 561.256 261.837 556.191 264.403 C 542.484 271.349, 535.057 287.024, 535.017 309.090 C 534.964 338.451, 552.437 363.088, 576.899 368.140 L 582.520 369.301 584.873 375.401 C 593.822 398.603, 617.327 426.789, 640.710 442.356 C 662.382 456.784, 684.176 463.869, 712 465.531 C 753.251 467.995, 793.678 451.210, 824.500 418.822 C 838.205 404.420, 849.212 387.785, 855.314 372.250 C 856.757 368.578, 857.388 368, 859.954 368 C 864.488 368, 873.843 364.173, 880.301 359.677 C 890.313 352.707, 899.864 337.674, 903.603 323 C 904.867 318.040, 905.122 314.013, 904.682 306 C 904.039 294.295, 902.254 287.229, 897.824 278.860 C 894.052 271.733, 891.189 269.061, 882.718 264.760 L 875.937 261.316 880.092 258.436 C 889.614 251.838, 894.932 240.943, 895.749 226.359 C 896.168 218.875, 895.876 215.952, 894.138 210.230 C 891.685 202.153, 885.235 192.734, 879.183 188.391 C 875.582 185.807, 875.226 185.182, 875.827 182.500 C 876.197 180.850, 876.461 175, 876.414 169.500 C 876.346 161.726, 875.842 158.276, 874.149 154 C 868.015 138.509, 855.873 129.809, 838.317 128.325 C 832.678 127.848, 830.706 127.296, 830.365 126.096 C 828.593 119.863, 822.833 110.732, 816.893 104.742 C 807.389 95.159, 799.668 91.619, 787.247 91.154 C 779.927 90.879, 776.523 91.254, 770.949 92.947 L 763.903 95.087 757.202 90.016 C 740.177 77.134, 722.021 72.376, 705.335 76.423 M 263.500 86.605 C 239.285 89.985, 225.906 93.897, 209.030 102.529 C 194.317 110.055, 182.548 118.546, 170.951 130 C 150.551 150.148, 136.945 173.319, 128.672 202 C 124.373 216.901, 121.011 242.575, 121.003 260.559 L 121 268.619 115.898 273.912 C 107.022 283.121, 103 295.006, 103 312.029 C 103 326.408, 105.923 335.702, 114.277 347.888 C 117.259 352.237, 117.281 352.365, 116.703 362.388 C 116.105 372.763, 112.485 391.896, 108.869 403.796 C 107.749 407.483, 104.845 414.208, 102.416 418.740 C 97.648 427.637, 97.246 429.650, 99.405 433.800 C 101.517 437.858, 104.907 440.627, 111.143 443.385 C 136.270 454.497, 169.481 454.123, 193.314 442.459 L 200.129 439.124 206.814 443.435 C 233.157 460.424, 266.314 468.943, 294.721 466.023 C 317.327 463.699, 336.973 457.166, 355.697 445.745 L 364.894 440.135 370.383 443.108 C 373.402 444.743, 380.963 447.287, 387.186 448.761 C 397.178 451.128, 400.545 451.444, 416 451.462 C 431.320 451.481, 434.493 451.197, 441.470 449.184 C 463.906 442.713, 473.018 431.015, 464.981 419 C 459.462 410.748, 452.655 384.752, 449.996 361.774 L 448.871 352.047 451.803 347.774 C 461.103 334.215, 464.485 322.593, 463.668 307 C 462.865 291.679, 459.631 283.134, 451.103 273.804 L 446.133 268.365 446.051 250.596 C 445.992 238.092, 446.450 230.260, 447.595 224.163 C 449.956 211.591, 449.195 202.150, 445.118 193.439 C 441.246 185.165, 440.174 183.897, 432.807 178.880 C 427.897 175.536, 426.328 173.594, 421.391 164.752 C 409.466 143.392, 399.879 132.277, 381.500 118.502 C 362.180 104.022, 344.607 95.381, 323 89.737 C 312.101 86.889, 310.325 86.718, 289 86.459 C 276.625 86.309, 265.150 86.374, 263.500 86.605 M 342.147 191.656 C 341.012 196.520, 339.787 203.446, 339.424 207.046 L 338.766 213.592 342.633 214.861 C 344.760 215.559, 350.443 216.388, 355.263 216.704 L 364.026 217.279 362.519 214.389 C 361.690 212.800, 361.010 210.468, 361.006 209.206 C 361.001 207.435, 348.999 188.344, 344.942 183.656 C 344.540 183.191, 343.282 186.791, 342.147 191.656 M 663.500 195.616 C 657.320 201.931, 655.697 203.016, 649.645 204.884 C 641.714 207.332, 636.139 207.503, 630.500 205.471 C 628.300 204.679, 626.348 204.023, 626.162 204.015 C 625.976 204.007, 626.101 205.688, 626.438 207.750 C 627.568 214.647, 625.314 226.897, 621.481 234.696 C 617.546 242.701, 612.514 247.709, 604.316 251.779 L 599.133 254.352 598.816 270.098 C 598.515 285.082, 598.385 285.967, 596.124 288.370 C 591.581 293.201, 585.369 292.644, 579.381 286.869 L 576.262 283.861 572.416 285.681 C 564.859 289.255, 561.520 297.564, 562.238 311 C 562.827 322.018, 566.488 331.402, 572.219 336.579 C 576.574 340.513, 576.866 340.541, 591.630 338.409 C 598.142 337.469, 600.947 340.812, 605.549 355 C 611.691 373.935, 617.538 384.443, 629.880 398.724 C 664.846 439.181, 723.599 451.307, 770.481 427.744 C 780.979 422.468, 790.242 415.786, 799.904 406.519 C 816.636 390.472, 825.693 376.187, 833.114 354.140 C 837.283 341.754, 837.955 340.592, 842.230 338.381 C 844.798 337.053, 845.844 337.073, 851.981 338.564 C 857.976 340.022, 859.408 340.060, 863.178 338.868 C 871.347 336.283, 877.443 323.322, 877.459 308.500 C 877.472 296.571, 874.051 289.146, 866.820 285.407 C 864.005 283.951, 863.790 283.997, 861.851 286.463 C 857.648 291.806, 850.678 293.436, 844.872 290.434 C 840.064 287.947, 839.010 283.935, 838.923 267.782 L 838.847 253.500 831.173 248.468 C 818.947 240.451, 813 229.027, 813 213.560 L 813 206.331 805.123 206.787 C 792.378 207.525, 781.308 202.609, 774.558 193.214 L 771.065 188.351 763.073 192.323 C 749.650 198.994, 736.710 198.368, 724.776 190.471 L 720.922 187.920 718.129 189.908 C 716.593 191.002, 712.898 192.895, 709.918 194.114 C 699.788 198.261, 682.719 196.637, 673.811 190.679 L 670.500 188.464 663.500 195.616 M 297.500 200.555 C 288.308 209.810, 281.455 214.526, 260.500 226.014 C 228.049 243.805, 206.218 253.696, 178.626 263.111 C 173.196 264.964, 168.635 266.935, 168.491 267.490 C 168.347 268.046, 167.786 272.483, 167.244 277.351 C 166.358 285.309, 165.941 286.520, 163.110 289.351 C 160.433 292.029, 159.226 292.500, 155.046 292.500 C 150.993 292.500, 149.604 291.995, 147.125 289.620 L 144.119 286.740 139.656 289.356 C 129.023 295.587, 127.021 312.995, 135.085 329.117 C 140.204 339.352, 144.656 341.429, 155.907 338.832 C 164.666 336.810, 167.117 339.345, 172.022 355.500 C 178.149 375.682, 195.365 401.129, 211.967 414.543 C 228.773 428.122, 250.452 437.071, 273.300 439.864 C 283.734 441.139, 299.526 439.928, 311.154 436.960 C 349.854 427.083, 381.207 395.976, 395.063 353.709 C 398.779 342.375, 399.601 340.741, 402.285 339.353 C 404.806 338.049, 406.235 337.972, 410.823 338.893 C 422.616 341.262, 426.083 340.126, 430.601 332.418 C 438.713 318.576, 439.427 299.535, 432.129 291.664 C 427.611 286.791, 426.514 286.601, 420.335 289.624 C 416.664 291.421, 413.045 292.383, 409.792 292.430 C 405.457 292.491, 404.488 292.108, 402.030 289.358 C 399.817 286.883, 399.085 284.867, 398.577 279.858 C 396.857 262.905, 397.970 265.117, 387.177 257.192 C 381.854 253.285, 375.178 248.238, 372.340 245.978 L 367.179 241.869 359.064 243.112 C 351.925 244.204, 350.042 244.140, 343.406 242.575 C 328.083 238.963, 317.199 231.329, 311.706 220.340 C 308.727 214.381, 308.044 211.783, 306.621 201 L 305.500 192.500 297.500 200.555 M 400.972 207.301 C 393.365 209.179, 392.284 209.736, 390.972 212.454 C 390.162 214.129, 387.990 216.209, 386.144 217.075 L 382.788 218.651 388.644 223.871 C 394.680 229.252, 410.010 240, 411.649 240 C 412.889 240, 418.386 215.792, 418.450 210.051 L 418.500 205.500 414 205.348 C 411.525 205.264, 405.662 206.143, 400.972 207.301 M 658.209 272.984 C 651.329 274.615, 647.987 280.268, 648.022 290.218 C 648.065 302.481, 653.533 308.989, 663.800 308.996 C 670.929 309.001, 674.306 307.049, 677.148 301.277 C 680.245 294.987, 680.373 284.054, 677.408 278.922 C 673.987 272.998, 667.118 270.874, 658.209 272.984 M 771.500 272.817 C 760.782 273.668, 755.587 289.429, 761.927 301.858 C 764.826 307.540, 768.140 309.472, 774.931 309.440 C 786.224 309.387, 790.500 304.459, 790.500 291.500 C 790.500 276.774, 785.358 271.718, 771.500 272.817 M 223.374 274.985 C 218.309 277.031, 214.455 286.433, 215.305 294.671 C 216.460 305.853, 221.565 310.999, 231.500 310.995 C 241.439 310.990, 247.294 304.002, 247.416 292 C 247.540 279.789, 242.186 273.939, 231 274.065 C 227.975 274.099, 224.543 274.513, 223.374 274.985 M 331 274.706 C 328.591 275.587, 324.935 279.260, 323.258 282.485 C 320.783 287.244, 321.205 297.820, 324.103 303.665 C 327.208 309.928, 329.718 311.153, 338.662 310.774 C 349.623 310.309, 353.018 306.042, 352.978 292.782 C 352.949 283.274, 350.486 277.519, 345.564 275.462 C 342.147 274.034, 333.995 273.611, 331 274.706 M 276.123 331.002 C 268.484 332.806, 264.772 341.776, 269.502 347.003 C 275.571 353.708, 290.823 353.564, 296.559 346.747 C 304.705 337.067, 291.975 327.259, 276.123 331.002 M 679.270 358.483 C 675.279 360.217, 672.009 365.372, 672.004 369.934 C 671.999 374.561, 678.837 381.078, 689.536 386.641 C 703.993 394.159, 718.991 395.943, 734.590 392.001 C 748.200 388.561, 763.437 379.923, 766.565 373.875 C 769.880 367.463, 764.526 359.415, 756.203 358.302 C 753.018 357.875, 751.801 358.360, 747.500 361.766 C 740.869 367.018, 737.409 368.698, 729.290 370.608 C 715.815 373.777, 702.472 370.641, 692.570 361.976 C 686.555 356.713, 684.552 356.186, 679.270 358.483 M 318.942 362.861 C 318.086 363.212, 315.695 365.386, 313.629 367.692 C 305.123 377.184, 287.585 381.387, 272.680 377.505 C 264.554 375.388, 259.214 372.486, 253.822 367.255 C 249.461 363.025, 248.866 362.755, 245.034 363.269 C 239.729 363.980, 236.318 366.266, 234.326 370.443 C 232.218 374.863, 233.131 378.102, 237.964 383.345 C 242.532 388.301, 256.323 395.845, 266.490 398.949 C 275.105 401.579, 290.493 401.834, 299.500 399.495 C 316.763 395.012, 335.012 382.058, 334.996 374.300 C 334.991 371.760, 331.522 366.375, 328.798 364.676 C 325.969 362.913, 321.032 362.003, 318.942 362.861 M 866.500 523.656 C 846.693 526.008, 830.563 534.626, 820.147 548.421 C 817.804 551.525, 814.327 557.133, 812.422 560.883 L 808.958 567.702 800.729 563.739 C 781.411 554.437, 761.712 548.115, 746 546.175 C 733.832 544.672, 692.904 545.553, 681.913 547.554 C 666.563 550.348, 646.909 558.177, 635.387 566.085 L 631.273 568.908 625.887 559.704 C 618.966 547.879, 608.162 536.909, 598.366 531.762 C 590.156 527.448, 577.036 524.017, 568.708 524.007 C 539.266 523.971, 511.815 545.215, 504.567 573.644 C 502.562 581.508, 502.548 596.828, 504.539 604.540 C 508.991 621.789, 518.759 633.894, 535.200 642.535 C 542.957 646.612, 555.192 650, 562.160 650 C 564.822 650, 566.994 650.337, 566.987 650.750 C 566.980 651.163, 566.093 654.312, 565.015 657.748 C 562.070 667.143, 560.866 679.182, 561.940 688.500 C 562.448 692.900, 563.124 697.175, 563.443 698.001 C 563.870 699.107, 562.465 700.105, 558.097 701.799 C 546.712 706.214, 539.341 715.721, 535.400 731.072 C 532.941 740.649, 533.894 757.034, 537.490 767 C 544.333 785.969, 555.795 798.345, 570.855 803.025 C 574.351 804.111, 578.453 805, 579.971 805 C 582.450 805, 582.964 805.639, 584.996 811.250 C 593.839 835.656, 612.686 860.593, 634.980 877.387 C 651.710 889.990, 675.491 900.585, 695 904.127 C 706.602 906.234, 737.369 905.940, 748 903.621 C 765.282 899.851, 782.280 892.560, 797.950 882.196 C 809.035 874.864, 826.345 858.045, 835.878 845.344 C 843.674 834.956, 853.865 816.767, 856.035 809.366 C 857.183 805.449, 857.481 805.206, 861.700 804.730 C 874.364 803.303, 889.981 790.620, 897.167 775.926 C 902.524 764.974, 904 758.138, 904 744.287 C 904 721.691, 897.487 709.006, 882.236 701.901 L 875.500 698.763 875.461 681.131 C 875.427 666.064, 875.123 662.617, 873.371 657.427 L 871.320 651.354 879.451 650.179 C 906.591 646.255, 924.724 632.131, 932.665 608.733 C 940.940 584.348, 932.215 554.879, 911.726 538.013 C 904.568 532.120, 891.425 526.089, 882.130 524.431 C 874.564 523.081, 872.290 522.968, 866.500 523.656 M 260 525.449 C 218.251 530.912, 189.922 543.890, 165 568.969 C 149.036 585.034, 140.558 598.717, 132.989 620.637 C 126.311 639.975, 124.645 651.534, 124.697 678.170 L 124.742 700.840 119.990 702.815 C 102.713 709.995, 93.861 736.177, 100.022 761.876 C 105.280 783.809, 120.093 800.251, 138.948 805.083 C 142.295 805.941, 144.004 806.905, 144.012 807.939 C 144.031 810.354, 150.374 824.323, 155.079 832.311 C 169.178 856.252, 195.358 880.528, 219.330 891.893 C 239.255 901.338, 257.041 905.326, 279.500 905.384 C 309.627 905.462, 334.177 897.786, 361.042 879.890 C 385.160 863.824, 411.817 830.601, 417.086 810.043 C 418.289 805.347, 418.300 805.338, 424.022 804.156 C 447.510 799.305, 464.032 775.180, 463.985 745.803 C 463.950 723.779, 456.166 708.990, 441.384 702.864 L 436.033 700.646 436.767 696.573 C 437.170 694.333, 437.476 683.725, 437.447 673 C 437.401 655.815, 437.078 652.009, 434.730 640.942 C 429.443 616.019, 422.770 600.909, 408.836 582.311 C 393.140 561.362, 369.893 544.905, 342.947 535.668 C 315.666 526.317, 283.579 522.364, 260 525.449 M 717.348 608.340 C 704.303 631.202, 679.660 656.192, 655.303 671.259 C 644.065 678.210, 626.195 687.162, 610.750 693.578 L 599 698.458 599 710.164 C 599 716.602, 598.570 723.001, 598.045 724.383 C 595.612 730.780, 587.872 731.461, 581.471 725.841 C 578.514 723.244, 577.460 722.879, 574.522 723.430 C 570.894 724.110, 565.658 727.903, 563.957 731.081 C 558.677 740.946, 562.503 764.188, 570.852 772.965 C 575.610 777.967, 580.100 778.892, 588.006 776.498 C 598.209 773.409, 600.816 775.424, 604.031 788.883 C 607.122 801.824, 611.573 812.049, 618.944 823.144 C 627.339 835.781, 636.188 845.546, 646.864 853.955 C 663.202 866.823, 675.980 872.912, 696 877.369 C 712.259 880.988, 721.430 881.526, 733.500 879.570 C 760.338 875.220, 779.408 866.145, 797.127 849.291 C 816.358 830.998, 828.485 810.903, 832.003 791.500 C 833.567 782.879, 836.275 777.288, 839.626 775.761 C 841.648 774.839, 843.540 774.952, 848.835 776.309 C 856.930 778.383, 859.061 778.419, 863.518 776.557 C 867.972 774.696, 872.321 767.872, 875.535 757.698 C 878.349 748.792, 878.654 741.564, 876.518 734.373 C 874.831 728.693, 872.147 725.819, 866.754 723.920 C 863.126 722.643, 862.903 722.702, 859.736 725.771 C 855.138 730.227, 851.320 731.387, 846.528 729.784 C 839.752 727.517, 838.572 724.744, 838 709.755 L 837.500 696.645 822.500 690.448 C 792.749 678.156, 770.128 662.593, 747.648 638.951 C 737.130 627.889, 725.942 612.058, 723.831 605.250 C 723.106 602.913, 722.285 601.014, 722.007 601.032 C 721.728 601.050, 719.632 604.338, 717.348 608.340 M 357.984 626.720 C 339.396 642.575, 308.425 660.022, 285.500 667.554 C 264.176 674.559, 240.927 677.418, 228.577 674.554 C 224.832 673.686, 221.382 672.736, 220.909 672.444 C 220.437 672.152, 223.127 669.265, 226.887 666.028 C 234.379 659.580, 239.921 652.629, 242.933 645.901 C 244.005 643.507, 244.771 641.438, 244.636 641.303 C 244.501 641.168, 240.365 642.792, 235.445 644.912 C 225.897 649.026, 206.056 655.190, 197 656.856 C 193.975 657.412, 185.573 658.400, 178.329 659.051 C 165.385 660.214, 165.147 660.279, 164.505 662.835 C 163.629 666.328, 162.056 696.743, 162.025 710.800 C 161.996 723.861, 160.774 727.361, 155.466 729.579 C 150.478 731.663, 148.760 731.376, 143 727.500 C 140.139 725.575, 137.250 724, 136.580 724 C 135.909 724, 133.488 725.602, 131.201 727.560 C 122.094 735.355, 121.664 750.482, 130.076 767.148 C 134.652 776.216, 136.321 777.065, 149.285 776.923 C 163.090 776.771, 163.219 776.878, 166.464 791.239 C 170.650 809.767, 177.526 823.222, 190.476 838.231 C 213.545 864.965, 244.852 879.264, 280.500 879.349 C 295.404 879.384, 302.572 878.352, 315.456 874.319 C 354.328 862.148, 391.167 823.074, 396.019 788.868 C 397.756 776.622, 399.858 775.099, 412.258 777.107 C 419.102 778.215, 420.424 778.168, 423.480 776.711 C 431.116 773.070, 437.200 760.279, 437.376 747.500 C 437.499 738.605, 436.084 733.441, 432.288 728.931 C 429.139 725.188, 421.764 721.209, 421.186 722.941 C 418.542 730.874, 404.757 732.834, 400.860 725.831 C 399.995 724.277, 399.345 716.997, 398.910 704 C 398.391 688.522, 397.805 682.850, 396.066 676.500 C 392.281 662.675, 383.342 645.720, 369.399 625.918 L 365.468 620.337 357.984 626.720 M 221.041 714.250 C 218.923 715.015, 216.409 717.174, 214.554 719.817 C 211.821 723.715, 211.526 724.882, 211.526 731.820 C 211.526 740.362, 213.278 744.635, 218.323 748.395 C 222.294 751.355, 232.672 751.382, 236.608 748.443 C 240.598 745.465, 242.971 740.186, 243.600 732.892 C 244.067 727.473, 243.797 725.824, 241.825 722.059 C 240.546 719.616, 238.369 716.795, 236.986 715.789 C 233.753 713.439, 225.491 712.641, 221.041 714.250 M 330.500 714.353 C 326.794 716.073, 323.474 719.601, 322.067 723.315 C 320.164 728.336, 320.795 737.019, 323.482 742.789 C 326.554 749.388, 330.694 751.518, 338.820 750.679 C 349.025 749.626, 352.434 745.043, 352.404 732.422 C 352.383 723.615, 350.746 719.383, 345.986 715.835 C 342.644 713.344, 334.379 712.553, 330.500 714.353 M 657.419 714.019 C 651.502 715.844, 648.121 722.344, 648.044 732.038 C 647.993 738.522, 650.975 745.272, 655.277 748.407 C 659.209 751.273, 668.784 751.293, 672.605 748.443 C 677.261 744.971, 679.504 739.432, 679.468 731.500 C 679.430 723.193, 677.133 717.637, 672.811 715.402 C 669.096 713.481, 661.405 712.790, 657.419 714.019 M 768.450 714.407 C 759.045 718.503, 756.227 732.102, 762.292 744.124 C 764.035 747.578, 765.343 748.778, 768.500 749.821 C 773.585 751.500, 782.031 750.550, 785.370 747.924 C 791.456 743.136, 792.902 727.431, 787.988 719.480 C 784.301 713.515, 775.653 711.269, 768.450 714.407 M 714.170 769.098 C 705.565 770.233, 700.861 776.019, 703.079 782.741 C 703.986 785.486, 705.272 786.684, 709.359 788.587 C 714.984 791.206, 718.540 791.533, 724.219 789.956 C 732.023 787.789, 736.308 781.573, 733.940 775.855 C 731.602 770.210, 724.400 767.749, 714.170 769.098 M 242.241 800.995 C 240.448 802.088, 238.088 804.448, 236.995 806.241 C 233.003 812.788, 235.087 817.870, 244.197 823.797 C 252.268 829.048, 260.528 832.681, 268.878 834.650 C 277.505 836.685, 292.983 835.965, 302 833.111 C 314.886 829.031, 331 817.256, 331 811.918 C 331 808.065, 327.664 802.825, 323.938 800.827 C 318.645 797.989, 315.712 798.489, 310.329 803.148 C 300.500 811.655, 286.121 814.912, 271.799 811.877 C 264.693 810.371, 259.548 807.640, 254.921 802.919 C 250.497 798.406, 247.286 797.919, 242.241 800.995 M 678.219 801.256 C 673.089 802.900, 669 808.223, 669 813.258 C 669 817.083, 669.528 817.950, 675.083 823.235 C 689.677 837.123, 714.367 843.433, 734.661 838.463 C 745.087 835.909, 759.087 828.691, 765.648 822.487 C 771.042 817.387, 771.261 816.983, 770.744 813.125 C 770.446 810.908, 769.263 807.774, 768.114 806.161 C 765.841 802.967, 758.789 799.615, 756.125 800.460 C 755.209 800.751, 752.298 803.217, 749.656 805.941 C 743.958 811.814, 739.052 814.366, 729.168 816.598 C 723.048 817.980, 720.484 818.071, 713.396 817.156 C 702.313 815.725, 696.944 813.223, 689.389 805.969 C 685.970 802.686, 682.797 800.046, 682.337 800.102 C 681.876 800.158, 680.023 800.677, 678.219 801.256" stroke="none" fill="black" fill-rule="evenodd"/>
</svg>