<svg xmlns="http://www.w3.org/2000/svg" width="1024" height="1024" viewBox="0 0 1024 1024" version="1.1">
	<path d="M 480.585 248.107 C 464.618 250.435, 443.865 258.973, 438.037 265.611 C 434.707 269.404, 434.164 273.310, 436.532 276.441 C 439.263 280.052, 438.281 282.397, 431.549 288.344 C 422.696 296.165, 409.925 311.702, 405.700 319.793 C 399.866 330.964, 397.839 338.958, 397.278 353 C 396.909 362.252, 397.223 367.968, 398.487 375 C 401.744 393.120, 401.925 391.861, 395.333 397.004 C 388.646 402.221, 386.750 406.217, 385.043 418.688 C 383.509 429.893, 385.561 443.834, 390.198 453.698 C 392.296 458.162, 401.735 466.015, 409.358 469.639 C 412.564 471.163, 413.895 472.827, 417.239 479.487 C 419.452 483.894, 422.075 488.538, 423.069 489.806 C 424.063 491.074, 425.807 493.999, 426.945 496.306 C 429.429 501.339, 447.204 520.953, 455.250 527.539 C 458.413 530.127, 461 532.429, 461 532.654 C 461 534.228, 456.622 545.721, 455.676 546.631 C 455.029 547.254, 451.350 548.788, 447.500 550.042 C 426.487 556.885, 403.112 568.118, 392.500 576.475 C 379.893 586.403, 382.265 586.139, 372.260 578.726 C 355.307 566.167, 341.579 558.822, 321.500 551.569 C 316 549.583, 310.825 547.586, 310 547.132 C 309.175 546.677, 307.462 543.427, 306.193 539.909 L 303.886 533.513 307.693 530.519 C 323.335 518.217, 340.649 496.281, 349.186 477.949 C 350.896 474.278, 352.172 473.040, 355.784 471.546 C 362.644 468.708, 371.001 459.849, 375.583 450.555 C 379.424 442.764, 379.500 442.394, 379.500 431.555 C 379.500 421.687, 379.216 419.893, 376.852 414.853 C 375.396 411.746, 371.756 406.542, 368.763 403.286 L 363.322 397.368 362.717 386.934 C 362.332 380.304, 361.180 373.305, 359.556 367.735 C 358.150 362.914, 357 358.629, 357 358.212 C 357 357.795, 360.233 356.353, 364.183 355.008 C 373.033 351.995, 381.057 346.871, 387.070 340.394 C 393.444 333.527, 396.672 327.604, 398.999 318.504 C 402.490 304.854, 401.192 291.772, 395.234 280.575 C 391.357 273.287, 379.716 261.912, 372.824 258.676 C 351.614 248.718, 328.462 252.479, 312.486 268.478 C 309.178 271.790, 305.395 276.637, 304.079 279.250 C 302.763 281.863, 301.357 284, 300.956 284 C 300.554 284, 294.213 282.465, 286.863 280.590 C 268.217 275.831, 256.732 274.583, 238.583 275.341 C 222.148 276.028, 211.596 277.758, 204.386 280.948 C 196.733 284.333, 195.632 283.931, 191.047 276.080 C 182.498 261.442, 167.797 253.584, 149 253.603 C 132.558 253.621, 120.248 258.754, 109.613 270.027 C 99.365 280.890, 95.033 291.904, 95.012 307.145 C 94.991 322.100, 100.174 333.830, 110.931 343.172 C 114.662 346.413, 118.751 348.541, 127.207 351.644 C 133.944 354.116, 138.386 356.274, 138.216 356.994 C 138.061 357.658, 136.787 362.093, 135.387 366.851 C 133.521 373.187, 132.689 378.842, 132.274 388 L 131.707 400.500 126.925 405.752 C 116.911 416.751, 113.800 429.398, 117.838 442.693 C 121.602 455.084, 130.469 466.144, 140.554 471.026 C 143.911 472.651, 145.168 474.045, 146.784 477.935 C 153.510 494.119, 173.740 519.905, 188.135 530.641 L 190.769 532.607 188.413 540.053 L 186.056 547.500 177.278 550.901 C 142.623 564.326, 129.924 571.822, 112.936 588.885 C 100.366 601.512, 94.373 610.244, 88.436 624.587 C 83.416 636.713, 82.250 643.032, 80.517 667.500 C 79.660 679.600, 78.289 698.289, 77.471 709.031 C 76.653 719.772, 75.695 735.568, 75.342 744.132 L 74.699 759.702 77.886 764.335 C 81.941 770.229, 86.309 774.397, 92 777.805 L 96.500 780.500 513.829 780.755 L 931.158 781.009 938.126 778.893 C 944.619 776.921, 945.463 776.320, 950.494 770.094 C 957.051 761.978, 958 759.646, 958 751.647 C 958 739.325, 952.508 659.547, 950.865 648 C 949.341 637.290, 945.563 625.952, 939.869 615 C 932.979 601.749, 926.620 593.496, 916.339 584.462 C 900.109 570.199, 883.267 560.705, 858.723 551.983 C 848.632 548.397, 845.997 547.068, 845.558 545.343 C 845.256 544.156, 844.733 542.469, 844.397 541.593 C 843.872 540.225, 844.824 540, 851.143 539.997 C 860.024 539.993, 896.367 534.850, 907.500 532.022 C 922.872 528.117, 935 521.908, 935 517.944 C 935 516.866, 933.850 511.150, 932.444 505.242 C 925.945 477.934, 925.394 473.436, 922.975 428 C 919.494 362.619, 911.712 329.102, 893.933 302.905 C 879.359 281.430, 855.693 267.430, 837.003 269.226 C 832.525 269.656, 830.973 269.199, 822.552 264.976 C 807.093 257.223, 791.646 254.494, 772.155 256.075 C 760.045 257.056, 753.181 258.542, 741.692 262.667 C 709.369 274.274, 682.553 300.907, 670.961 332.914 C 661.705 358.472, 658.919 375.477, 657.023 418 C 655.152 459.963, 652.800 481.164, 647.409 504.655 C 643.771 520.503, 643.805 520.618, 653.651 525.743 C 664.749 531.520, 677.160 534.630, 698.500 536.984 C 708.400 538.076, 718.862 539.234, 721.750 539.557 C 725.942 540.026, 727 540.510, 727 541.961 C 727 545.243, 723.642 547.610, 713.500 551.479 C 700.659 556.378, 679.068 566.644, 672 571.212 C 668.975 573.167, 663.615 577.015, 660.088 579.763 L 653.676 584.759 648.088 580.208 C 635.658 570.083, 624.661 564.496, 599.651 555.601 C 577.713 547.798, 578.470 548.295, 576.041 540.138 C 574.918 536.368, 574 532.792, 574 532.190 C 574 531.588, 575.913 529.761, 578.250 528.128 C 584.331 523.882, 598.665 508.907, 605.954 499.186 C 609.383 494.613, 614.194 486.636, 616.646 481.460 L 621.105 472.048 629.391 467.531 C 633.949 465.046, 638.455 462.155, 639.405 461.105 C 643.134 456.985, 649 434.344, 649 424.073 C 649 419.648, 647.598 409.959, 646.312 405.500 C 645.995 404.400, 644.018 401.904, 641.920 399.952 L 638.106 396.405 640.225 382.952 C 641.883 372.423, 642.360 364.720, 642.421 347.500 C 642.509 322.295, 641.857 318.671, 634.488 303.394 C 627.933 289.806, 620.883 284.048, 600 275.233 C 595.704 273.420, 595.395 273.006, 593.177 266.118 C 589.500 254.701, 583.176 249, 574.187 249 C 569.690 249, 567 251.338, 567 255.247 C 567 263.156, 563.938 264.061, 553.719 259.168 C 543.533 254.292, 531.484 250.443, 520.290 248.491 C 511.057 246.881, 490.361 246.681, 480.585 248.107 M 816.036 332.445 C 811.508 339.395, 803.621 347.487, 792.500 356.592 C 771.210 374.023, 743.505 387.555, 712.820 395.509 C 705.846 397.317, 699.658 399.093, 699.070 399.457 C 698.481 399.821, 698 401.412, 698 402.994 C 698 409.948, 695.623 411.913, 685.281 413.513 C 682.153 413.997, 680.248 415.092, 677.914 417.750 C 674.834 421.259, 674.776 421.508, 675.208 429.418 C 675.659 437.689, 677.311 442.397, 681.291 446.750 C 682.998 448.617, 684.397 449, 689.500 449 C 697.447 449, 698.427 450.046, 704.948 465.505 C 711.462 480.946, 718.786 491.658, 730.358 502.668 C 749.401 520.787, 769.788 528.870, 789.266 526.021 C 811.671 522.745, 834.210 511.183, 852.111 493.783 C 860.407 485.718, 868.156 472.723, 873.436 458.021 C 874.913 453.908, 876.657 450.202, 877.311 449.787 C 877.965 449.371, 881.026 449.024, 884.114 449.015 C 888.836 449.002, 890.146 448.581, 892.366 446.361 C 897.488 441.239, 899.791 425.576, 896.455 418.546 C 894.514 414.455, 892.037 413.238, 884.600 412.721 C 877.094 412.199, 876 410.819, 876 401.879 L 876 395.140 863.604 385.522 C 842.854 369.422, 828.413 350.247, 823.366 332.092 C 822.434 328.741, 821.349 326, 820.954 326 C 820.558 326, 818.345 328.900, 816.036 332.445 M 245.130 334.622 C 243.975 335.431, 239.805 340.459, 235.863 345.796 C 220.824 366.157, 208.123 376.345, 181.333 389.536 C 169.474 395.375, 161.372 399.983, 160.083 401.621 C 158.560 403.558, 158 405.713, 158 409.635 C 158 416.818, 155.893 419, 148.955 419 C 144.857 419, 143.422 419.487, 141.314 421.595 C 138.841 424.069, 138.746 424.554, 139.314 431.910 C 140.415 446.199, 142.500 449, 152.033 449 C 156.204 449, 159.139 449.474, 159.767 450.250 C 160.323 450.938, 162.707 456.223, 165.065 461.995 C 170.082 474.282, 173.806 480.875, 181.812 491.645 C 195.276 509.758, 212.605 520.629, 235.877 525.562 C 250.484 528.658, 267.220 526.128, 282.738 518.479 C 301.885 509.041, 319.206 488.207, 330.941 460.500 L 335.601 449.500 343.050 449.341 C 347.148 449.253, 351.053 449.140, 351.730 449.091 C 355.086 448.843, 359.858 431.431, 358.525 424.293 C 357.697 419.862, 353.753 417, 348.476 417 C 342.932 417, 340.093 414.653, 339.405 409.500 C 338.406 402.023, 338.035 401.289, 333.865 398.529 C 331.571 397.011, 322.226 392.049, 313.097 387.502 C 286.863 374.433, 269.085 360.261, 254.500 340.791 C 251.750 337.120, 248.989 333.899, 248.365 333.634 C 247.740 333.368, 246.285 333.813, 245.130 334.622 M 523.250 338.991 C 517.647 349.106, 510.882 355.530, 500.606 360.495 C 486.021 367.541, 467.631 371.231, 464.200 367.800 C 462.191 365.791, 462.844 361.252, 466.056 354.888 C 467.737 351.558, 469.565 347.634, 470.119 346.167 C 471.063 343.665, 470.889 343.728, 467.312 347.187 C 461.633 352.680, 452.893 357.538, 442.394 361.035 L 433.032 364.154 431.407 369.327 C 430.350 372.693, 429.535 380.437, 429.072 391.500 C 428.651 401.581, 427.866 409.416, 427.145 410.750 C 426.044 412.787, 425.192 413, 418.120 413 C 409.088 413, 407.496 414.044, 406.438 420.662 C 405.554 426.189, 407.591 437.634, 410.329 442.526 L 412.554 446.500 421.011 447 L 429.469 447.500 432.530 456 C 434.214 460.675, 436.804 467.132, 438.285 470.348 C 441.849 478.084, 452.863 494.811, 458.222 500.626 C 467.459 510.648, 480.188 518.628, 495.423 523.949 C 508.855 528.641, 523.398 528.282, 540 522.849 C 558.043 516.945, 575.108 503.550, 588.222 485 C 593.619 477.366, 601.049 462.796, 603.521 455 C 605.943 447.360, 606.377 447, 613.168 447 C 618.042 447, 619.505 446.586, 621.428 444.663 C 624.113 441.978, 625.906 434.934, 626.711 423.900 C 627.233 416.742, 627.128 416.203, 624.910 414.650 C 623.396 413.589, 620.536 413, 616.900 413 C 613.578 413, 610.831 412.484, 610.241 411.750 C 609.689 411.063, 608.682 406.450, 608.004 401.500 C 606.031 387.108, 601.541 370.822, 597.343 362.833 C 595.242 358.834, 590.900 352.759, 587.695 349.333 L 581.867 343.103 575.437 347.039 C 558.617 357.334, 539.307 365.045, 529.635 365.328 C 521.227 365.575, 520.941 364.742, 524.840 351.375 C 529.719 334.647, 528.955 328.694, 523.250 338.991 M 286.445 400.093 C 281.646 401.449, 279.193 404.925, 277.009 413.465 C 274.459 423.436, 274.485 426.075, 277.168 429.486 C 281.490 434.981, 290.097 436.501, 297.599 433.095 C 306.651 428.984, 308.792 420.361, 303.442 409.555 C 299.475 401.542, 293.362 398.139, 286.445 400.093 M 554.005 400.695 C 549.096 403.230, 546.025 409.310, 545.303 417.924 C 544.831 423.554, 545.052 425.431, 546.436 427.543 C 551.556 435.357, 567.109 434.267, 573.241 425.664 C 576.263 421.425, 576.392 412.035, 573.495 407.105 C 569.256 399.889, 560.892 397.139, 554.005 400.695 M 820.765 401.060 C 818.649 402.177, 816.810 404.001, 816.523 405.266 C 814.472 414.305, 814.046 417.128, 814.024 421.827 C 814.004 426.367, 814.421 427.575, 816.850 430.003 C 821.848 435.001, 831.992 434.990, 839.031 429.978 C 850.363 421.909, 842.158 398.866, 828.016 399.044 C 826.082 399.069, 822.819 399.976, 820.765 401.060 M 466.708 403.090 C 459.108 407.101, 456.902 415.708, 461.325 424.093 C 465.511 432.027, 475.103 435.194, 483 431.248 C 487.669 428.916, 491.265 421.978, 490.369 417.030 C 489.438 411.888, 486.531 406.625, 482.967 403.626 C 479.068 400.345, 472.330 400.123, 466.708 403.090 M 198.271 404.964 C 192.391 407.633, 189.732 412.117, 190.394 418.249 C 191.128 425.060, 193.422 429.178, 198.212 432.284 C 211.981 441.212, 227.115 425.224, 218.734 410.604 C 214.611 403.413, 206.569 401.197, 198.271 404.964 M 735.962 405.250 C 729.510 408.504, 727.307 413.325, 728.940 420.621 C 730.948 429.593, 737.312 435, 745.866 435 C 753.969 435, 761.603 424.218, 759.164 416.217 C 755.508 404.222, 746.471 399.951, 735.962 405.250 M 215.295 465.171 C 205.771 467.735, 207.460 479.826, 218.514 488.226 C 225.759 493.730, 232.951 496.207, 243.332 496.772 C 249.870 497.128, 253.854 496.795, 258.670 495.491 C 270.666 492.244, 281.306 483.052, 282.649 474.775 C 283.122 471.858, 282.720 470.718, 280.235 467.937 C 275.920 463.108, 271.842 463.329, 265.417 468.741 C 262.712 471.018, 258.475 473.798, 256 474.919 C 247.093 478.951, 235.618 476.937, 227.676 469.946 C 222.196 465.122, 219.434 464.057, 215.295 465.171 M 541.539 467.480 C 534.990 472.193, 525.671 475, 516.576 475 C 507.621 475, 500.689 473.001, 493.976 468.484 C 487.602 464.194, 483.368 463.914, 479.947 467.556 C 476.963 470.732, 476.776 476.290, 479.514 480.417 C 482.295 484.610, 492.282 490.720, 500.458 493.232 C 510.006 496.165, 525.756 496.171, 534.748 493.244 C 542.197 490.820, 549.807 486.123, 553.972 481.379 C 559.491 475.093, 557.041 465.822, 549.500 464.454 C 547.139 464.025, 545.444 464.669, 541.539 467.480 M 754.357 464.992 C 749.377 467.001, 747.494 474.186, 750.449 479.901 C 752.611 484.083, 758.613 488.924, 765.811 492.292 C 771.015 494.727, 773.933 495.380, 781.358 495.768 C 792.106 496.330, 799.290 495.042, 807.768 491.032 C 821.956 484.322, 826.727 477.174, 822.487 468.976 C 820.745 465.606, 815.837 463.819, 812.092 465.190 C 810.767 465.674, 808.167 467.402, 806.314 469.029 C 799.650 474.880, 795.295 476.476, 786 476.474 C 776.641 476.472, 772.206 474.723, 763.172 467.473 C 758.621 463.821, 757.818 463.595, 754.357 464.992 M 211.588 544.137 C 211.348 544.886, 210.607 547.300, 209.941 549.500 C 209.274 551.700, 207.868 555.213, 206.815 557.307 C 205.763 559.401, 205.161 561.931, 205.478 562.931 C 206.428 565.925, 217.237 575.580, 222.787 578.392 C 237.334 585.763, 256.816 585.905, 270.316 578.739 C 277.037 575.170, 286.727 565.935, 287.664 562.204 C 288.017 560.798, 287.738 558.264, 287.045 556.574 C 286.352 554.883, 285.219 551.250, 284.527 548.500 C 283.834 545.750, 282.870 543.575, 282.384 543.667 C 281.897 543.759, 275.664 545.057, 268.533 546.552 C 256.975 548.974, 254.204 549.206, 243.033 548.683 C 231.830 548.158, 226.572 547.203, 214.262 543.455 C 212.774 543.001, 211.878 543.230, 211.588 544.137 M 808 545.650 C 789.384 549.901, 772.745 549.833, 753.890 545.430 C 751.892 544.963, 751.159 545.252, 750.763 546.660 C 750.479 547.672, 749.337 550.762, 748.225 553.527 C 746.421 558.016, 746.347 558.970, 747.535 562.425 C 750.222 570.240, 761.519 578.909, 773.909 582.664 C 776.334 583.399, 782.024 584, 786.554 584 C 796.706 584, 805.400 581.485, 813.572 576.184 C 819.452 572.370, 827 564.941, 827 562.967 C 827 562.402, 825.875 559.267, 824.500 556 C 823.125 552.733, 822 548.472, 822 546.530 C 822 542.330, 822.425 542.357, 808 545.650 M 539.500 546.727 C 525.833 550.111, 507.979 550.255, 493.091 547.102 C 482.448 544.848, 481.062 545.034, 481.015 548.723 C 481.007 549.395, 479.827 552.423, 478.393 555.452 L 475.786 560.958 478.469 565.537 C 481.863 571.329, 491.010 578.129, 499.223 580.967 C 512.114 585.420, 527.921 584.485, 540.801 578.506 C 546.305 575.951, 557.516 566.099, 558.521 562.935 C 558.838 561.936, 557.952 558.865, 556.548 556.095 C 555.147 553.329, 554 549.477, 554 547.533 C 554 543.237, 553.668 543.219, 539.500 546.727 M 307.893 575.268 C 302.263 586.123, 284.680 598.957, 268.500 604.022 C 258.761 607.070, 240.158 607.828, 230.500 605.569 C 215.044 601.955, 193.310 588.324, 187.678 578.713 L 185.026 574.188 180.763 575.490 C 153.972 583.672, 129.753 601.007, 116.179 621.714 C 106.664 636.230, 106.401 637.579, 101.949 694.500 C 97.337 753.460, 97.372 752.372, 100 755 C 101.852 756.852, 103.333 757, 120 757 L 138 757 138 714.882 L 138 672.765 141.882 668.882 C 147.319 663.446, 151.394 663.479, 156.384 669.003 L 160 673.006 160 715.003 L 160 757 249.500 757 C 334.071 757, 339 756.904, 339.001 755.250 C 339.002 748.679, 345.212 658.020, 346.073 652 C 348.275 636.600, 353.707 621.538, 361.350 609.641 C 363.421 606.418, 364.977 603.689, 364.807 603.577 C 364.638 603.464, 362.475 601.782, 360 599.838 C 350.020 592.001, 329.460 580.718, 315.764 575.563 L 309.051 573.036 307.893 575.268 M 444.500 577.088 C 431.335 581.545, 414.355 590.336, 404.326 597.887 C 395.191 604.765, 381.429 619.605, 377.824 626.465 C 373.698 634.316, 369.989 647.027, 368.983 656.765 C 367.997 666.306, 362 750.514, 362 754.814 C 362 756.991, 362.086 757, 382.500 757 L 403 757 403 716.960 C 403 678.630, 403.087 676.750, 405.040 672.921 C 408.327 666.479, 415.796 663.215, 420.945 665.971 C 421.943 666.505, 423.601 668.867, 424.630 671.221 C 426.338 675.129, 426.526 679.032, 426.802 716.250 L 427.104 757 516.552 757 L 606 757 606.094 735.250 C 606.146 723.288, 606.486 704.275, 606.850 693 C 607.434 674.889, 607.749 672.092, 609.555 669 C 613.732 661.843, 623.849 664.572, 627.880 673.943 C 629.920 678.684, 630 680.350, 630 717.935 L 630 757 651 757 C 662.550 757, 671.999 756.663, 671.998 756.250 C 671.998 755.837, 670.668 738.175, 669.043 717 C 667.418 695.825, 665.596 671.750, 664.993 663.500 C 664.074 650.920, 663.344 646.843, 660.469 638.229 C 653.945 618.681, 640.365 602.498, 621.915 592.287 C 609.688 585.520, 579.345 572.910, 578.512 574.250 C 578.426 574.387, 577.191 576.525, 575.767 579 C 572.329 584.976, 569.208 587.783, 558.656 594.390 C 544.174 603.456, 531.829 607, 514.726 607 C 499.533 607, 486.693 602.746, 472.712 593.081 C 464.028 587.079, 460.931 583.958, 457.989 578.250 C 456.784 575.913, 455.281 574.009, 454.649 574.021 C 454.017 574.032, 449.450 575.412, 444.500 577.088 M 712.343 577.930 C 698.792 583.091, 678.950 594.358, 671.378 601.193 L 669.257 603.108 675.034 614.304 C 686.238 636.016, 687.857 644.804, 691.461 703.500 C 692.846 726.050, 694.244 747.313, 694.569 750.750 L 695.159 757 784.007 757 L 872.856 757 872.273 716.184 C 871.953 693.735, 871.991 674.173, 872.357 672.712 C 872.727 671.238, 874.680 668.930, 876.744 667.528 C 883.112 663.201, 889.093 664.614, 892.756 671.311 C 894.309 674.151, 894.555 678.985, 895 715.500 L 895.500 756.500 912.889 756.774 C 933.491 757.099, 934.996 756.620, 935.007 749.727 C 935.015 744.743, 929.516 669.025, 928.085 654.428 C 926.825 641.565, 921.833 627.110, 915.972 619.346 C 901.315 599.933, 881.651 585.930, 856.670 577.116 C 851.814 575.402, 847.510 574, 847.106 574 C 846.701 574, 845.667 575.475, 844.807 577.279 C 842.144 582.862, 838.036 586.924, 828.708 593.197 C 812.607 604.023, 803.367 607.096, 787 607.070 C 769.916 607.042, 759.679 603.434, 742.171 591.273 C 735.215 586.441, 731.964 583.420, 729.390 579.396 C 727.372 576.240, 725.225 574.013, 724.219 574.031 C 723.274 574.048, 717.929 575.803, 712.343 577.930" stroke="none" fill="black" fill-rule="evenodd"/>
</svg>