<svg xmlns="http://www.w3.org/2000/svg" width="100%" height="100%" viewBox="0 0 1024 1024" version="1.1" style="width: 100%; height: 100%; display: block;"><defs><linearGradient id="gradient-lovable-element-17518425930440ksfhcspq-1752003813841" x1="6.698729810778062%" y1="75%" x2="93.30127018922194%" y2="25.000000000000004%"><stop offset="0%" stop-color="#B8860B"><animate attributeName="stop-color" values="#B8860B;#FFC107;#FFFF00;#FFC107;#B8860B" dur="10s" repeatCount="indefinite"/></stop><stop offset="50%" stop-color="#FFC107"><animate attributeName="stop-color" values="#FFC107;#FFFF00;#B8860B;#FFFF00;#FFC107" dur="10s" repeatCount="indefinite"/></stop><stop offset="100%" stop-color="#FFFF00"><animate attributeName="stop-color" values="#FFFF00;#B8860B;#FFC107;#B8860B;#FFFF00" dur="10s" repeatCount="indefinite"/></stop></linearGradient></defs>
	<path d="M 263.914 114.911 C 259.384 116.362, 255.942 119.194, 253.942 123.113 C 252.110 126.704, 252 129.309, 252 168.960 L 252 211 222.182 211 C 189.022 211, 186.645 211.339, 175.250 217.689 C 162.943 224.548, 154.099 235.678, 148.862 250.902 C 147.209 255.707, 147 259.657, 147 286.157 L 147 316 107.750 316.006 C 83.836 316.009, 67.047 316.415, 64.781 317.044 C 56.127 319.447, 50.753 328.655, 53.042 337.156 C 54.522 342.654, 59.505 347.386, 65.368 348.863 C 68.356 349.615, 82.945 350, 108.443 350 L 147 350 147 382.500 L 147 415 107.750 415.006 C 84.645 415.009, 67.018 415.423, 64.897 416.012 C 60.015 417.368, 54.315 423.117, 52.996 428.014 C 51.647 433.025, 53.027 438.691, 56.645 442.990 C 61.781 449.093, 61.016 449, 105.950 449 L 147 449 147 482.500 L 147 516 106.565 516 C 80.351 516, 65.140 516.375, 63.315 517.067 C 56.913 519.492, 52.904 525.567, 52.847 532.928 C 52.800 539.017, 55.024 543.326, 59.869 546.532 L 63.681 549.055 105.091 549.277 L 146.500 549.500 147.103 577 C 147.435 592.125, 148.235 607.425, 148.881 611 C 152.139 629.032, 165.668 644.044, 184.662 650.703 C 192.420 653.423, 192.803 653.455, 222.220 653.803 L 251.939 654.156 252.220 697.328 C 252.498 740.191, 252.516 740.522, 254.734 743.633 C 257.979 748.182, 265.240 751.341, 270.602 750.537 C 276.095 749.713, 281.046 746.363, 283.248 741.980 C 284.830 738.831, 284.997 734.478, 284.998 696.250 L 285 654 318.500 654 L 352 654 352 696.099 C 352 742.031, 352.047 742.444, 357.788 746.682 C 362.614 750.245, 367.704 751.405, 372.378 750.007 C 374.645 749.329, 377.788 747.858, 379.363 746.738 C 384.891 742.808, 385 741.831, 385 696.032 L 385 654 417.969 654 L 450.939 654 451.219 697.250 L 451.500 740.500 453.829 743.765 C 460.563 753.207, 475.672 752.535, 481.534 742.532 L 484 738.324 484 700.667 L 484 663.010 478.921 656.755 C 471.613 647.754, 462.443 633.515, 459.281 626.258 L 456.555 620 326.027 619.978 C 199.962 619.957, 195.357 619.891, 191.316 618.057 C 188.684 616.861, 186.088 614.579, 184.316 611.902 L 181.500 607.646 181.206 434.573 C 181 313.691, 181.234 260.383, 181.982 257.795 C 183.425 252.805, 187.556 248.107, 192.459 245.880 C 196.329 244.122, 203.804 244.043, 368.934 244.022 L 541.369 244 545.798 246.144 C 548.742 247.569, 551.195 249.814, 553.113 252.840 L 556 257.392 556 321.696 C 556 357.063, 556.362 386, 556.804 386 C 557.245 386, 562.083 384.502, 567.554 382.671 C 573.024 380.840, 580.313 378.753, 583.750 378.034 L 590 376.727 590 363.363 L 590 350 611.052 350 L 632.104 350 639.440 343.250 C 643.474 339.538, 648.738 334.700, 651.138 332.500 C 653.537 330.300, 662.700 320.637, 671.500 311.027 C 690.319 290.475, 706.293 274.596, 710.500 272.260 C 712.853 270.954, 716.303 270.585, 726.500 270.547 C 740.681 270.496, 743.726 269.654, 747.324 264.791 C 750.434 260.588, 750.644 252.465, 747.771 247.519 C 746.499 245.329, 744.342 242.974, 742.979 242.284 C 739.897 240.725, 712.545 240.578, 706 242.085 C 695.529 244.497, 682.407 253.314, 675.881 262.323 C 674.315 264.484, 662.564 277.420, 649.767 291.070 L 626.500 315.887 608.303 315.943 L 590.105 316 589.803 284.750 L 589.500 253.500 586.157 245.750 C 579.197 229.617, 567.407 218.473, 551.514 213.005 C 546.174 211.168, 543.106 211, 514.843 211 L 484 211 484 168.968 C 484 123.362, 483.898 122.425, 478.491 118.171 C 469.714 111.268, 456.478 114.078, 452.371 123.718 C 451.282 126.273, 451 135.593, 451 168.968 L 451 211 418 211 L 385 211 385 168.960 C 385 129.115, 384.897 126.719, 383.031 123.061 C 377.643 112.499, 361.836 111.410, 354.908 121.124 L 352.500 124.500 352.219 167.750 L 351.939 211 318.469 211 L 285 211 285 168.148 C 285 125.302, 285 125.295, 282.737 121.898 C 279.055 116.370, 269.930 112.983, 263.914 114.911 M 658.903 139.968 C 649.656 141.622, 641.179 147.395, 634.928 156.296 C 629.169 164.497, 627.545 170.606, 628.190 181.641 C 629.050 196.362, 636.966 208.023, 650.529 214.546 C 669.819 223.824, 691.623 217.180, 700.266 199.389 L 702.399 195 802.987 195 L 903.576 195 908.038 192.750 C 916.794 188.335, 919.325 177.623, 913.641 169.034 C 911.801 166.254, 909.939 164.799, 907.271 164.058 C 904.760 163.361, 870.014 163.009, 803.270 163.006 L 703.041 163 701.086 159.168 C 698.180 153.472, 687.996 144.516, 681.780 142.191 C 675.459 139.826, 665.248 138.834, 658.903 139.968 M 663.213 167.515 C 657.101 170.155, 654.709 182.225, 659.252 187.506 C 663.748 192.734, 674.748 191.424, 677.043 185.387 C 681.059 174.825, 672.348 163.568, 663.213 167.515 M 801 239.968 C 773.185 240.526, 772.542 240.634, 768 245.489 C 765.799 247.841, 765.500 249.047, 765.500 255.564 C 765.500 262.744, 765.609 263.076, 769.137 266.604 L 772.774 270.240 839.137 270.073 C 899.410 269.920, 905.815 269.748, 908.935 268.202 C 916.381 264.513, 919.126 255.087, 915.070 247.137 C 910.824 238.814, 911.824 238.979, 867 239.222 C 845.275 239.339, 815.575 239.675, 801 239.968 M 348 281.885 C 340.212 282.769, 337.174 284.577, 333.966 290.241 C 331.906 293.878, 331.477 296.252, 331.027 306.500 L 330.500 318.500 325.221 319.790 C 322.318 320.500, 317.842 322.412, 315.275 324.040 C 312.709 325.668, 310.173 327, 309.640 327 C 309.108 327, 305.709 324.389, 302.086 321.197 C 290.964 311.398, 288.731 310, 284.194 310 C 280.541 310, 279.083 310.830, 271.288 317.347 C 258.892 327.711, 247.311 340.441, 243.561 347.823 C 241.071 352.726, 242.151 355.457, 251.058 366.767 L 259.037 376.899 255.999 382.700 C 254.328 385.890, 252.690 390.799, 252.358 393.609 L 251.755 398.717 239.988 399.259 C 226.420 399.884, 222.159 401.389, 218.865 406.718 C 216.931 409.848, 216.650 412.006, 216.245 426.862 C 215.703 446.710, 216.962 460.133, 219.709 463.812 C 224.035 469.607, 226.267 470.439, 238.985 470.999 C 245.514 471.287, 251.024 471.743, 251.229 472.011 C 251.435 472.280, 252.109 475.045, 252.729 478.155 C 253.348 481.264, 255.013 485.645, 256.430 487.889 L 259.006 491.970 254.653 497.735 C 252.258 500.906, 248.370 506.345, 246.013 509.822 C 241.836 515.982, 241.757 516.247, 242.937 520.182 C 245.095 527.388, 270.801 551.994, 281.735 557.321 C 285.708 559.256, 286.173 559.286, 289.235 557.798 C 291.031 556.926, 296.769 552.835, 301.986 548.708 L 311.471 541.203 316.986 544.987 C 320.019 547.069, 324.637 549.559, 327.250 550.522 L 332 552.272 332 563.320 C 332 572.504, 332.355 575.101, 334.102 578.712 C 337.544 585.822, 338.368 586, 367.700 585.998 C 396.088 585.997, 398.068 585.636, 402.429 579.663 C 404.274 577.136, 404.500 575.397, 404.500 563.715 L 404.500 550.603 411.046 548.052 C 414.647 546.648, 419.239 544.464, 421.251 543.197 L 424.909 540.893 433.954 547.413 L 443 553.933 443.026 546.717 C 443.117 521.318, 448.112 500.650, 458.866 481.171 C 469.264 462.340, 492.829 435.600, 512.250 420.594 C 517.063 416.876, 521 413.407, 521 412.885 C 521 409.791, 517.633 404.787, 513.889 402.316 C 509.733 399.574, 509.288 399.504, 496.906 399.647 L 484.192 399.795 482.557 393.287 C 481.658 389.708, 479.815 385.150, 478.461 383.158 C 477.108 381.166, 476 379.218, 476 378.830 C 476 378.441, 480.042 373.078, 484.983 366.912 C 494.875 354.565, 496.216 351.253, 493.474 345.949 C 491.285 341.716, 474.421 324.273, 466 317.531 C 452.955 307.088, 451.920 307.143, 437.676 319.036 L 426.854 328.073 423.324 325.891 C 421.382 324.691, 416.578 322.460, 412.647 320.932 L 405.500 318.155 404.939 305.744 C 404.292 291.413, 402.890 287.875, 396.449 284.321 C 392.894 282.360, 390.603 282.092, 373.500 281.645 C 363.050 281.371, 351.575 281.479, 348 281.885 M 725.024 308.603 C 706.362 313.618, 695.498 330.548, 698.026 350.678 C 699.684 363.883, 704.306 372.184, 713.500 378.468 C 729.771 389.590, 749.093 388.364, 763.118 375.320 C 765.969 372.669, 769.154 368.587, 770.197 366.250 L 772.094 362 838.709 362 L 905.324 362 909.657 359.461 C 914.887 356.396, 917 352.652, 917 346.451 C 917 340.812, 914.749 335.742, 911.164 333.309 C 908.677 331.620, 903.974 331.467, 840.520 331 L 772.541 330.500 770.520 327.138 C 760.946 311.208, 742.816 303.822, 725.024 308.603 M 731.302 336.012 C 727.798 337.423, 725.703 342.553, 726.260 348.356 C 727.167 357.794, 736.095 362.157, 742.857 356.467 C 751.374 349.300, 747.506 334.881, 737.115 335.063 C 735.127 335.098, 732.511 335.525, 731.302 336.012 M 351 364.551 C 347.425 365.317, 340.225 368.046, 335 370.617 C 326.967 374.569, 324.103 376.696, 316.448 384.395 C 303.564 397.355, 298.082 408.434, 295.974 425.775 C 294.663 436.557, 295.994 449.282, 299.485 459.335 C 306.245 478.802, 322.817 495.459, 343.227 503.302 C 351.361 506.427, 351.785 506.480, 368.500 506.467 C 385.407 506.454, 385.545 506.435, 393.809 503.131 C 409.511 496.853, 421.959 486.656, 429.855 473.603 C 446.270 446.467, 444.136 413.527, 424.414 389.618 C 414.134 377.154, 399.313 367.907, 384.303 364.590 C 375.561 362.659, 359.921 362.640, 351 364.551 M 600 407.568 C 598.625 407.799, 594.350 408.498, 590.500 409.121 C 577.480 411.226, 561.240 417.922, 556.237 423.248 C 553.433 426.232, 551 432.157, 551 436 C 551 442.850, 553.696 446.114, 586.613 479.107 L 619.144 511.715 618.490 515.607 C 616.132 529.649, 610.917 540.575, 604.235 545.474 C 597.621 550.323, 589.847 553.864, 581.847 555.671 L 575.023 557.212 557.330 540.856 C 547.598 531.860, 532.181 517.256, 523.068 508.403 C 513.956 499.550, 505.517 491.787, 504.316 491.153 C 501.243 489.531, 493.443 489.719, 490.002 491.499 C 484.790 494.194, 482.256 498.888, 478.638 512.550 C 472.974 533.943, 472.568 536.629, 472.612 552.500 C 472.677 576.550, 477.004 595.510, 486.722 614.324 C 493.175 626.820, 500.792 636.605, 513.987 649.353 C 526.439 661.383, 535.693 667.883, 550.500 674.999 C 578.183 688.302, 605.235 691.840, 635 686.049 C 640.775 684.925, 645.749 684.005, 646.054 684.003 C 646.359 684.001, 657.834 695.797, 671.554 710.215 C 685.274 724.633, 706.826 747.245, 719.446 760.465 C 732.066 773.684, 750.741 793.274, 760.946 803.997 C 823.182 869.397, 829.935 875.996, 839.500 880.772 C 847.430 884.731, 860.368 888.198, 869.243 888.741 C 900.826 890.675, 928.210 874.428, 942.124 845.500 C 947.394 834.544, 949.402 824.171, 948.707 811.500 C 947.649 792.236, 939.238 776.100, 921.345 759.006 C 903.784 742.229, 814.739 655.766, 790.002 631.472 C 775.426 617.156, 759.277 601.363, 754.115 596.376 L 744.731 587.308 746.893 576.904 C 751.855 553.039, 752.229 549.902, 751.662 537 C 750.016 499.606, 731.154 460.584, 705.036 440.539 C 684.760 424.977, 665.349 415.367, 644 410.319 C 635.788 408.377, 630.123 407.761, 618 407.491 C 609.475 407.302, 601.375 407.336, 600 407.568 M 820.241 409.995 C 818.448 411.088, 816.061 413.448, 814.936 415.241 C 812.144 419.688, 812.636 428.275, 815.949 432.929 C 820.224 438.932, 820.788 439, 865.718 438.996 C 904.648 438.993, 906.648 438.902, 909.759 437.005 C 919.267 431.209, 919.455 416.518, 910.102 410.270 C 906.705 408.001, 906.692 408, 865.102 408.004 C 825.354 408.007, 823.355 408.096, 820.241 409.995 M 773.978 413.786 C 769.306 418.458, 767.460 424.353, 768.978 429.750 C 771.004 436.953, 775.167 440.002, 782.973 439.996 C 790.065 439.991, 794.458 437.409, 797.036 431.729 C 802.215 420.321, 795.617 410.012, 783.132 410.004 C 778.252 410, 777.421 410.344, 773.978 413.786 M 606.500 442.623 C 604.850 442.878, 602.855 443.309, 602.067 443.582 C 601.126 443.907, 608.574 452.047, 623.762 467.289 C 650.463 494.087, 652.063 496.473, 652.809 510.624 C 653.808 529.572, 641.285 559.657, 627.258 572.004 C 621.683 576.912, 611.874 581.695, 599 585.784 C 580.730 591.588, 567.372 592.341, 558.705 588.056 C 556.392 586.913, 543.925 576.127, 531 564.088 L 507.500 542.199 506.577 548.345 C 505.346 556.540, 507.265 573.494, 510.571 583.621 C 515.769 599.545, 526.098 615.566, 538.274 626.589 C 551.396 638.470, 571.690 649.279, 586.866 652.472 C 597.297 654.666, 614.252 654.427, 628.035 651.891 C 646.721 648.453, 657.167 650.352, 668.653 659.277 C 677.687 666.296, 749.488 740.224, 837.862 833.500 C 852.224 848.658, 856.154 851.592, 864.833 853.635 C 880.654 857.359, 895.289 853.146, 905.330 841.977 C 915.312 830.876, 918.703 809.718, 912.112 799.671 C 907.707 792.955, 872.165 756.933, 836 722.530 C 815.905 703.414, 755.387 644.179, 736.607 625.244 C 723.158 611.684, 717.638 605.382, 715.149 600.744 L 711.798 594.500 712.291 583 C 712.621 575.291, 713.610 568.368, 715.289 562 C 718.877 548.397, 719.511 539.343, 717.635 528.476 C 713.652 505.394, 703.375 485.064, 688.797 471.427 C 670.162 453.995, 645.082 443.387, 620.500 442.539 C 614.450 442.331, 608.150 442.368, 606.500 442.623 M 866.519 793.598 C 854.312 798.066, 849.273 813.259, 856.417 824.054 C 863.038 834.059, 880.203 834.678, 888.178 825.201 C 889.605 823.505, 891.323 819.823, 891.995 817.020 C 894.286 807.469, 890.114 798.170, 881.711 794.102 C 876.708 791.680, 872.171 791.529, 866.519 793.598" stroke="none" fill-rule="evenodd" id="lovable-element-17518425930440ksfhcspq" fill="url(#gradient-lovable-element-17518425930440ksfhcspq-1752003813841)"/>
</svg>