<svg xmlns="http://www.w3.org/2000/svg" width="1024" height="1024" viewBox="0 0 1024 1024" version="1.1">
	<path d="M 678.320 107.964 C 652.558 108.560, 652.331 108.619, 647.126 116.092 L 644.752 119.500 645.415 260.956 L 646.077 402.412 648.292 406.426 C 649.528 408.668, 652.270 411.480, 654.503 412.796 L 658.500 415.153 776.333 414.559 C 876.363 414.055, 894.589 413.747, 896.964 412.519 C 901.024 410.419, 904.818 405.488, 905.606 401.286 C 905.983 399.275, 906.060 349.795, 905.777 291.329 C 905.350 203.136, 905.027 184.692, 903.881 183.056 C 903.122 181.972, 885.836 164.944, 865.469 145.216 C 840.816 121.338, 827.312 108.956, 825.070 108.174 C 821.579 106.957, 727.648 106.823, 678.320 107.964 M 669.917 132.417 C 669.688 132.646, 669.616 190.696, 669.758 261.417 L 670.015 390 776.170 390 L 882.325 390 881.662 350.836 C 881.298 329.296, 881 287.490, 881 257.934 L 881 204.195 850.750 203.804 C 816.854 203.366, 815.478 203.115, 810.382 196.436 L 807.500 192.659 807.209 162.330 L 806.917 132 738.625 132 C 701.065 132, 670.146 132.187, 669.917 132.417 M 832 163.423 L 832 179 848 179 C 856.800 179, 864 178.866, 864 178.701 C 864 178.537, 856.800 171.527, 848 163.124 L 832 147.846 832 163.423 M 198.500 166.022 C 172.707 171.199, 152.766 194.062, 149.125 222.633 C 148.472 227.752, 148.203 319.395, 148.354 485 L 148.585 739.500 150.858 746.973 C 158.164 770.995, 173.418 786.352, 195.609 792.028 C 203.037 793.928, 207.078 794, 305.660 794 L 408 794 408.004 829.250 C 408.007 862.426, 408.122 864.688, 409.956 867.696 C 411.028 869.453, 413.116 871.685, 414.597 872.656 C 417.129 874.315, 422.791 874.402, 509.581 874.119 L 601.873 873.819 607.686 879.744 C 624.987 897.378, 648.734 903.622, 674.985 897.441 C 686.248 894.788, 695.647 889.551, 703.863 881.350 L 711.226 874 803.965 874 L 896.704 874 900.102 871.730 C 901.971 870.482, 904.287 867.894, 905.248 865.980 C 906.889 862.715, 906.997 853.618, 906.998 718.898 L 907 575.296 904.742 571.898 C 903.500 570.029, 900.480 567.487, 898.030 566.250 C 894.195 564.313, 892.008 564, 882.288 564 L 871 564 871 549.450 C 871 533.460, 870.405 531.201, 864.990 526.645 C 860.596 522.947, 856.961 522.265, 834.500 520.921 C 810.829 519.504, 775.990 520.194, 757.564 522.445 C 715.332 527.603, 675.289 541.044, 659.284 555.434 L 654.284 559.930 649.886 555.715 C 647.466 553.397, 642.903 550.150, 639.746 548.500 L 634.005 545.500 634.002 383.910 C 634 225.649, 633.959 222.157, 632.001 214.410 C 628.664 201.207, 623.858 192.758, 614.088 182.915 C 604.777 173.535, 595.754 168.281, 585.201 166.097 C 578.915 164.796, 204.971 164.723, 198.500 166.022 M 199.844 191.394 C 186.319 196.225, 176.797 207.912, 173.983 223.133 C 173.326 226.689, 173.070 316.141, 173.240 483.028 L 173.500 737.500 176 743.685 C 179.353 751.980, 183.885 758.171, 189.694 762.389 C 199.393 769.434, 193.503 769.096, 305.474 769.024 C 360.905 768.988, 406.537 768.786, 406.879 768.575 C 407.220 768.364, 407.379 747.491, 407.230 722.191 L 406.961 676.189 311.912 676.085 C 207.319 675.970, 213.526 676.351, 208.829 669.765 L 206.500 666.500 206.500 448.456 C 206.500 239.978, 206.579 230.291, 208.304 227.658 C 209.297 226.144, 211.547 224.028, 213.304 222.956 C 216.440 221.044, 219.803 221.007, 391.500 221.005 C 556.136 221.003, 566.703 221.107, 569.929 222.752 C 571.815 223.713, 574.290 225.771, 575.429 227.324 C 577.500 230.147, 577.500 230.161, 577.333 355.324 C 577.242 424.171, 577.401 490.895, 577.688 503.599 L 578.209 526.699 589.355 529.475 C 595.485 531.002, 602.664 533.062, 605.309 534.052 L 610.118 535.853 609.723 379.176 C 609.330 222.867, 609.324 222.487, 607.224 216.767 C 603.042 205.374, 594.066 195.665, 584.360 192.033 C 578.965 190.015, 577.557 190, 391.212 190.044 C 239.378 190.079, 202.801 190.337, 199.844 191.394 M 742.475 216.050 C 740.811 216.540, 737.886 218.554, 735.975 220.526 L 732.500 224.111 732.500 276.627 L 732.500 329.144 736.641 333.006 C 741.701 337.726, 746.730 338.947, 752.489 336.855 C 754.695 336.053, 765.275 329.753, 776 322.854 C 786.725 315.956, 802.700 305.882, 811.500 300.468 C 829.648 289.303, 833.542 285.957, 834.532 280.679 C 836.469 270.357, 832.636 265.888, 810.411 252.554 C 802.210 247.634, 787.625 238.685, 778 232.668 C 768.375 226.651, 758.475 220.475, 756 218.943 C 750.730 215.681, 746.675 214.814, 742.475 216.050 M 230 448.612 L 230 652.224 317.923 651.856 C 366.281 651.653, 406.126 651.208, 406.467 650.866 C 406.809 650.525, 407.333 633.878, 407.633 613.873 C 407.932 593.868, 408.596 576.118, 409.108 574.428 C 409.619 572.738, 411.583 569.858, 413.473 568.026 C 417.388 564.232, 421.895 563.155, 434.250 563.060 L 442 563 442.006 551.250 C 442.012 537.602, 442.991 533.219, 447.067 528.576 C 451.569 523.449, 455.860 522.258, 474.613 520.929 C 490.749 519.785, 532.900 520.182, 547.502 521.615 L 553.504 522.204 553.706 383.602 L 553.907 245 391.954 245 L 230 245 230 448.612 M 757 276.893 C 757 291.802, 757.212 304, 757.470 304 C 757.904 304, 782.512 288.765, 795.550 280.425 L 801.148 276.844 780.324 263.805 C 768.871 256.634, 758.938 250.546, 758.250 250.276 C 757.269 249.891, 757 255.613, 757 276.893 M 309.500 340.388 C 304.558 342.545, 299.422 349.074, 297.997 355.011 C 296.556 361.018, 297.136 376.673, 298.978 381.500 C 299.607 383.150, 301.558 386.016, 303.311 387.869 C 314.238 399.415, 332.662 394.278, 336.912 378.500 C 339.592 368.549, 337.512 351.463, 332.908 345.610 C 328.228 339.660, 316.938 337.141, 309.500 340.388 M 457.500 340.665 C 452.703 343.200, 450.869 345.175, 448.368 350.500 C 446.368 354.757, 446.018 357.074, 446.010 366.101 C 445.999 377.613, 446.936 381.696, 450.772 386.859 C 457.519 395.939, 473.921 396.272, 480.845 387.470 C 485.144 382.005, 486.240 376.933, 485.846 364.324 C 485.399 349.983, 483.345 345.138, 476.093 341.320 C 470.825 338.547, 462.091 338.239, 457.500 340.665 M 335.217 439.561 C 325.845 446.125, 329.564 463.450, 343.256 477.015 C 350.654 484.345, 363.710 491.208, 375 493.704 C 385.112 495.939, 403.255 495.864, 412.500 493.549 C 433.740 488.231, 449.706 474.033, 453.881 456.750 C 456.273 446.851, 451.163 438, 443.058 438 C 437.736 438, 434.569 440.899, 430.669 449.342 C 427.123 457.016, 423.638 460.631, 416.107 464.444 C 408.263 468.416, 401.235 470.001, 391.568 469.979 C 381.200 469.955, 372.296 467.376, 364.893 462.253 C 358.587 457.889, 356.511 455.344, 353.165 447.875 C 351.532 444.232, 349.152 440.519, 347.876 439.625 C 344.930 437.562, 338.120 437.527, 335.217 439.561 M 478 545.611 C 475.525 545.829, 472.149 546.230, 470.498 546.503 L 467.495 546.998 467.141 674.499 C 466.946 744.875, 467.171 801.984, 467.644 801.965 C 468.115 801.945, 472.775 801.258, 478 800.437 C 491.589 798.301, 536.346 797.424, 553.131 798.963 C 587.040 802.073, 618.318 810.471, 637.192 821.533 C 640.445 823.440, 643.330 825, 643.603 825 C 643.875 825, 643.964 771.788, 643.799 706.750 L 643.500 588.500 640.180 583.718 C 633.179 573.634, 621.164 566.575, 598 558.938 C 582.182 553.722, 563.993 549.921, 543 547.444 C 530.273 545.942, 487.824 544.745, 478 545.611 M 771.500 546.082 C 741.321 548.865, 707.257 557.299, 689 566.509 C 681.447 570.319, 674.108 576.481, 670.814 581.779 L 668.500 585.500 668 705.750 C 667.725 771.888, 667.623 826, 667.773 826 C 667.923 826, 671.523 823.980, 675.773 821.512 C 691.617 812.309, 710.056 806.107, 735 801.593 C 766.648 795.865, 802.235 795.627, 835.250 800.923 L 846 802.647 846 674.937 L 846 547.227 842.750 546.567 C 837.347 545.469, 782.212 545.094, 771.500 546.082 M 431.584 591.250 C 431.721 592.487, 431.871 651.212, 431.917 721.750 L 432 850 521.032 850 C 594.109 850, 610.651 850.245, 613.340 851.369 C 615.141 852.121, 619.474 855.953, 622.967 859.885 C 633.527 871.766, 646.755 876.372, 663.669 874.057 C 675.100 872.493, 682.379 868.597, 690.064 859.928 C 693.492 856.062, 697.557 852.246, 699.098 851.449 C 701.485 850.215, 715.332 850, 792.450 850 L 883 850 883 720 L 883 590 877.017 590 L 871.033 590 870.767 703.250 C 870.502 815.450, 870.481 816.532, 868.446 819.997 C 865.946 824.253, 861.023 827.713, 856.138 828.647 C 853.882 829.079, 847.564 828.521, 839.500 827.178 C 816.484 823.344, 807.897 822.605, 787 822.661 C 753.022 822.751, 720.071 828.209, 700.419 837.001 C 694.254 839.759, 679.806 849.080, 672.500 855.014 C 667.437 859.125, 659.332 862.978, 655.718 862.990 C 651.220 863.006, 646.259 860.402, 640.005 854.743 C 629.619 845.344, 609.643 835.540, 590.500 830.447 C 559.537 822.208, 513.285 819.961, 478.876 825.023 C 458.091 828.081, 453.706 827.623, 448.298 821.831 C 442.757 815.897, 443 821.462, 443 700.532 L 443 589 437.167 589 C 431.711 589, 431.350 589.145, 431.584 591.250 M 704.500 609.420 C 700.548 611.188, 698.833 614.268, 698.833 619.598 C 698.833 624.146, 701.504 629.129, 704.921 630.958 C 705.972 631.520, 727.081 631.971, 756.374 632.056 C 811.260 632.216, 809.166 632.448, 812.589 625.828 C 815.112 620.950, 813.932 615.242, 809.576 611.251 L 806.029 608 756.765 608.039 C 717.780 608.070, 706.874 608.358, 704.500 609.420 M 704.110 667.396 C 700.732 669.268, 699.077 672.765, 699.035 678.115 C 698.998 683.036, 701.242 686.983, 705.328 689.182 C 708.645 690.968, 803.256 690.338, 807.652 688.501 C 813.355 686.118, 815.682 678.154, 812.483 671.967 C 809.367 665.942, 809.893 665.997, 755.800 666.035 C 716.800 666.063, 706.001 666.348, 704.110 667.396 M 347.166 711 L 334.832 711.500 331.916 714.766 C 326.620 720.697, 328.443 731.084, 335.357 734.365 C 340.034 736.585, 367.322 736.728, 372.510 734.560 C 376.481 732.901, 379.991 727.787, 379.996 723.651 C 380.001 719.844, 377.522 714.820, 374.750 713.022 C 371.767 711.086, 362.248 710.389, 347.166 711 M 705.500 724.927 C 697.855 728.127, 696.446 739.411, 702.963 745.250 L 706.032 748 742 748 L 777.968 748 781.234 745.082 C 784.242 742.395, 784.500 741.685, 784.500 736.105 C 784.500 730.817, 784.147 729.693, 781.728 727.273 L 778.957 724.500 743.228 724.295 C 723.578 724.182, 706.600 724.466, 705.500 724.927" stroke="none" fill="black" fill-rule="evenodd"/>
</svg>