<svg xmlns="http://www.w3.org/2000/svg" width="100%" height="100%" viewBox="0 0 1024 1024" version="1.1" style="width: 100%; height: 100%; display: block;"><defs><linearGradient id="gradient-lovable-element-175200338428529refka53-1752003406803" x1="14.644660940672622%" y1="85.35533905932738%" x2="85.35533905932738%" y2="14.64466094067263%"><stop offset="0%" stop-color="#0000FF"><animate attributeName="stop-color" values="#0000FF;#00CED1;#00FF00;#00CED1;#0000FF" dur="10s" repeatCount="indefinite"/></stop><stop offset="50%" stop-color="#00CED1"><animate attributeName="stop-color" values="#00CED1;#00FF00;#0000FF;#00FF00;#00CED1" dur="10s" repeatCount="indefinite"/></stop><stop offset="100%" stop-color="#00FF00"><animate attributeName="stop-color" values="#00FF00;#0000FF;#00CED1;#0000FF;#00FF00" dur="10s" repeatCount="indefinite"/></stop></linearGradient></defs>
	<path d="M 231.654 70.999 C 201.867 77.297, 177.312 101.142, 168.835 132 L 166.500 140.500 166.500 513 L 166.500 885.500 168.779 893.837 C 173.405 910.754, 180.334 922.466, 192.290 933.575 C 204.496 944.917, 215.850 950.699, 232.661 954.133 C 241.631 955.966, 250.501 956.016, 516.710 955.743 C 826.527 955.426, 794.527 956.324, 812.500 947.448 C 833.030 937.311, 848.915 917.784, 855.167 895 L 857.500 886.500 857.195 515.500 C 857.027 311.450, 856.645 142.700, 856.346 140.500 C 852.616 113.036, 834.148 88.240, 808.675 76.491 C 804.729 74.671, 798.800 72.362, 795.500 71.360 C 789.765 69.618, 777.383 69.529, 515 69.333 C 250.228 69.135, 240.187 69.194, 231.654 70.999 M 243 109.142 C 229.228 111.417, 216.613 120.934, 210.218 133.873 L 206.500 141.396 206.500 512.948 L 206.500 884.500 209.701 891.259 C 213.482 899.240, 221.061 907.627, 227.814 911.302 C 239.015 917.399, 219.108 917.001, 512.460 916.988 C 736.328 916.978, 781.349 916.750, 785.650 915.605 C 798.015 912.313, 808.564 903.694, 814.173 892.301 L 817.500 885.542 817.757 516.571 C 818.040 108.765, 818.553 141.552, 811.713 130.140 C 805.289 119.423, 792.845 111.016, 780.387 108.976 C 772.715 107.719, 250.635 107.881, 243 109.142 M 278.281 174.957 C 267.245 177.623, 257.689 185.903, 251.708 197.979 L 248.500 204.457 248.246 303.504 C 247.970 411.315, 247.862 408.967, 253.542 418.661 C 257.350 425.160, 264.444 431.601, 271.761 435.203 L 278.458 438.500 370.479 438.500 L 462.500 438.500 467.803 436.326 C 480.637 431.064, 490.581 419.045, 493.021 405.844 C 493.691 402.220, 493.953 366.257, 493.774 302.342 L 493.500 204.395 489.734 196.776 C 485.387 187.981, 479.012 181.627, 470.192 177.295 L 464.500 174.500 373 174.340 C 322.675 174.251, 280.052 174.529, 278.281 174.957 M 558.254 175.460 C 548.786 178.418, 539.262 186.602, 534.615 195.774 C 530.229 204.428, 529.979 210.620, 530.010 309.509 C 530.042 409.949, 530.015 409.380, 535.250 417.943 C 538.836 423.809, 547.197 432.066, 552.031 434.516 C 560.942 439.031, 563.447 439.134, 656.553 438.808 L 744.606 438.500 752.225 434.734 C 764.443 428.695, 772.499 418.188, 774.992 405.040 C 775.625 401.706, 776 364.473, 776 305.074 C 776 222.755, 775.798 209.644, 774.448 204.460 C 770.899 190.830, 760.695 179.874, 747.819 175.867 C 742.145 174.101, 736.984 174.004, 652.161 174.067 C 580.622 174.120, 561.642 174.402, 558.254 175.460 M 288.464 213.402 C 286.540 214.809, 286.494 216.711, 286.221 306.161 C 285.960 391.569, 286.053 397.566, 287.662 398.742 C 289.011 399.728, 307.137 400, 371.634 400 L 453.887 400 455.453 397.763 C 456.848 395.772, 457.017 385.682, 456.989 305.926 C 456.964 230.786, 456.733 216.017, 455.560 214.413 C 454.205 212.560, 451.600 212.492, 372.295 212.233 C 302.423 212.005, 290.141 212.176, 288.464 213.402 M 569.655 213.829 C 568.141 215.502, 568 223.351, 568 306.174 C 568 392.594, 568.083 396.765, 569.829 398.345 C 571.499 399.857, 578.762 400, 653.706 400 C 728.801 400, 735.871 399.860, 737.128 398.347 C 738.264 396.978, 738.547 381.160, 738.771 306.367 C 739.039 216.885, 739.022 216.022, 737.021 214.021 C 735.026 212.026, 733.945 212, 653.155 212 C 575.135 212, 571.233 212.085, 569.655 213.829 M 403.840 249.187 C 400.903 251.490, 392.523 259.232, 385.217 266.392 L 371.934 279.410 356.717 264.304 C 348.348 255.996, 340.060 248.479, 338.300 247.599 C 326.402 241.654, 311.067 252.734, 312.205 266.454 C 312.758 273.133, 314.958 276.250, 331.142 293.299 L 344.307 307.167 330.808 320.833 C 313.307 338.552, 313 338.980, 313 345.685 C 313 348.663, 313.646 352.348, 314.435 353.875 C 317.598 359.991, 327.842 367, 333.619 367 C 334.925 367, 337.683 365.512, 339.747 363.694 C 341.811 361.876, 344.850 359.366, 346.500 358.117 C 348.150 356.868, 354.591 350.878, 360.814 344.805 L 372.128 333.764 387.314 348.737 C 395.666 356.972, 403.940 364.450, 405.700 365.355 C 410.660 367.904, 416.053 367.469, 420.636 364.149 C 426.081 360.204, 429.734 355.619, 431.122 350.988 C 433.237 343.929, 430.776 339.904, 413.642 322.392 L 398.500 306.916 405.848 299.708 C 409.889 295.744, 415.739 289.437, 418.848 285.693 C 421.957 281.949, 426.188 276.848, 428.250 274.357 C 431.448 270.494, 432 269.112, 432 264.966 C 432 260.596, 431.491 259.493, 426.974 254.064 C 418.232 243.560, 412.545 242.361, 403.840 249.187 M 688.301 246.950 C 684.250 248.790, 673.804 258.194, 660.224 272.228 L 653.714 278.956 643.777 269.728 C 620.898 248.482, 617.458 245.995, 611 246.037 C 605.544 246.073, 600.208 249.469, 595.657 255.803 C 593.082 259.387, 592.579 261, 592.643 265.459 C 592.750 272.850, 594.852 275.913, 611.387 292.765 L 625.384 307.030 610.816 321.765 C 602.803 329.869, 595.466 338.037, 594.512 339.916 C 593.351 342.201, 592.934 344.723, 593.251 347.536 C 594.182 355.791, 603.629 365.607, 611.677 366.680 C 614.961 367.118, 616.416 366.579, 622 362.854 C 625.575 360.470, 634.251 352.840, 641.279 345.900 C 650.712 336.585, 654.263 333.647, 654.841 334.680 C 655.271 335.449, 661.112 341.880, 667.819 348.970 C 680.892 362.789, 687.147 367, 694.600 367 C 702.675 367, 711.554 358.516, 712.624 349.778 C 713.453 343.005, 710.611 338.537, 695.121 322.263 C 687.629 314.393, 681.500 307.572, 681.500 307.105 C 681.500 306.637, 687.350 299.864, 694.500 292.052 C 713.084 271.749, 715.601 267.381, 713.095 259.788 C 710.658 252.404, 701.696 244.972, 695.290 245.022 C 693.755 245.034, 690.611 245.902, 688.301 246.950 M 275.727 484.938 C 266.612 487.875, 256.971 496.177, 252.555 504.892 C 251.172 507.620, 249.568 512.923, 248.989 516.676 C 248.293 521.194, 248.033 555.939, 248.219 619.500 L 248.500 715.500 251.722 722.302 C 255.488 730.253, 264.215 739.516, 271 742.765 C 279.549 746.857, 285.458 747.084, 376 746.785 C 457.311 746.517, 462.800 746.389, 467.500 744.649 C 478.545 740.559, 488.843 729.541, 492.097 718.331 C 493.259 714.329, 493.500 696.340, 493.500 613.479 L 493.500 513.459 490.283 506.979 C 486.069 498.491, 478.457 490.843, 470.152 486.754 L 463.544 483.500 372.522 483.289 C 286.188 483.088, 281.203 483.173, 275.727 484.938 M 559.286 484.438 C 550.016 487.363, 540.476 494.918, 535.651 503.153 C 529.911 512.949, 529.999 511.267, 530.008 610.960 C 530.012 663.616, 530.427 706.086, 530.986 710.942 C 533.215 730.338, 545.952 743.583, 564.762 746.069 C 573.678 747.247, 740.688 746.886, 745.500 745.678 C 756.568 742.899, 766.721 734.373, 772.190 723.267 L 775.500 716.544 775.802 619.522 C 776.019 549.897, 775.782 520.806, 774.964 516.500 C 772.577 503.940, 763.430 492.302, 751.248 486.322 L 745.500 483.500 654.500 483.304 C 581.132 483.146, 562.684 483.365, 559.286 484.438 M 287.035 523.934 C 286.344 525.227, 286 555.770, 286 615.959 L 286 706.050 288.565 707.025 C 290.155 707.629, 322.048 708, 372.494 708 C 445.466 708, 454.021 707.836, 455.444 706.413 C 456.874 704.983, 457.005 695.873, 456.766 614.376 C 456.533 535.260, 456.312 523.808, 455 522.979 C 454.087 522.401, 421.157 522.025, 370.785 522.015 C 290.023 522, 288.046 522.046, 287.035 523.934 M 569.200 523.200 C 567.460 524.940, 567.460 705.060, 569.200 706.800 C 570.114 707.714, 590.121 708, 653.143 708 L 735.887 708 737.443 705.777 C 738.824 703.807, 739 693.531, 739 615 C 739 536.469, 738.824 526.193, 737.443 524.223 L 735.887 522 653.143 522 C 590.121 522, 570.114 522.286, 569.200 523.200 M 321.935 557.265 C 320.087 558.510, 317.222 561.453, 315.570 563.804 C 313.116 567.296, 312.579 569.038, 312.641 573.315 C 312.763 581.706, 315.582 585.819, 334.110 604.632 L 345.073 615.764 338.378 622.132 C 318.901 640.657, 313.422 647.645, 312.373 655.293 C 310.875 666.225, 319.713 676, 331.096 676 C 336.671 676, 344.712 669.992, 360.314 654.167 L 372.129 642.184 376.314 646.840 C 405.395 679.182, 412.586 682.453, 425.303 669.121 C 431.327 662.806, 432.571 659.907, 431.663 654.308 C 430.846 649.273, 427.920 645.454, 412.659 629.500 L 399.267 615.500 412.234 602.127 C 430.229 583.568, 433.260 578.394, 431.019 570.071 C 428.966 562.445, 420.008 555.080, 412.718 555.022 C 407.335 554.979, 403.358 557.850, 388.084 572.802 L 372.669 587.893 357.396 573.090 C 348.996 564.948, 340.565 557.547, 338.661 556.643 C 333.563 554.224, 326.031 554.504, 321.935 557.265 M 695.354 558.998 C 690.572 561.429, 682.556 570.522, 660.500 598.533 C 657.750 602.025, 651.857 609.338, 647.404 614.783 L 639.308 624.684 627.226 612.818 C 610.384 596.276, 605.824 594.503, 595.574 600.510 C 586.949 605.564, 583.529 615.028, 587.156 623.805 C 588.927 628.090, 627.435 667.661, 632.210 670.103 C 636.928 672.515, 644.632 672.584, 648.036 670.243 C 652.677 667.053, 659.034 659.481, 693.500 616.082 C 701.200 606.386, 709.899 595.583, 712.832 592.076 C 719.105 584.573, 720.059 582.408, 720.141 575.472 C 720.295 562.602, 706.411 553.376, 695.354 558.998 M 501.265 797.477 C 492.887 799.836, 486.469 803.591, 480.010 809.911 C 472.868 816.899, 468.605 825.259, 466.919 835.582 C 462.472 862.808, 484.311 888.847, 511.701 888.976 C 529.199 889.058, 545.795 879.003, 553.215 863.824 C 565.357 838.983, 553.652 808.582, 528.243 798.965 C 520.815 796.154, 508.396 795.469, 501.265 797.477 M 509.686 831.067 C 497.011 834.644, 499.617 853, 512.799 853 C 518.489 853, 524.423 845.666, 523.336 839.979 C 522.217 834.123, 515.167 829.520, 509.686 831.067" stroke="none" fill-rule="evenodd" id="lovable-element-175200338428529refka53" fill="url(#gradient-lovable-element-175200338428529refka53-1752003406803)"/>
</svg>