<svg xmlns="http://www.w3.org/2000/svg" viewBox="0 0 1024 1024" width="100%" height="100%" style="width: 100%; height: 100%; display: block;">
<style>
@keyframes anim-transform-06bf5576-1139-4e7d-8fe4-2ddaeb97e3b3 {
  0% {
    transform: translate(-312px, 488px) scale(0.125) rotate(0deg);
    opacity: 1;
  }
  33.3% {
    transform: translate(-262px, 188px) scale(0.135) rotate(0deg);
    opacity: 1;
  }
  66.7% {
    transform: translate(-362px, -112px) scale(0.115) rotate(0deg);
    opacity: 1;
  }
  100.0% {
    transform: translate(-312px, -412px) scale(0.125) rotate(0deg);
    opacity: 1;
  }
}
.anim-06bf5576-1139-4e7d-8fe4-2ddaeb97e3b3 {
  animation: anim-transform-06bf5576-1139-4e7d-8fe4-2ddaeb97e3b3 3s ease-in-out infinite;
  transform-origin: 512px 512px;
  z-index: -1;
}
@keyframes anim-transform-82dc3023-859e-4c04-a998-b22ef3c2df0f {
  0% {
    transform: translate(288px, 538px) scale(0.1) rotate(0deg);
    opacity: 1;
  }
  33.3% {
    transform: translate(238px, 238px) scale(0.11) rotate(0deg);
    opacity: 1;
  }
  66.7% {
    transform: translate(338px, -62px) scale(0.09) rotate(0deg);
    opacity: 1;
  }
  100.0% {
    transform: translate(288px, -362px) scale(0.1) rotate(0deg);
    opacity: 1;
  }
}
.anim-82dc3023-859e-4c04-a998-b22ef3c2df0f {
  animation: anim-transform-82dc3023-859e-4c04-a998-b22ef3c2df0f 3s ease-in-out infinite;
  transform-origin: 512px 512px;
  z-index: -1;
}
@keyframes anim-transform-3eb64083-5366-4f97-b982-534cfdca2c16 {
  0% {
    transform: translate(-162px, 568px) scale(0.135) rotate(0deg);
    opacity: 1;
  }
  33.3% {
    transform: translate(-112px, 268px) scale(0.145) rotate(0deg);
    opacity: 1;
  }
  66.7% {
    transform: translate(-212px, -32px) scale(0.125) rotate(0deg);
    opacity: 1;
  }
  100.0% {
    transform: translate(-162px, -332px) scale(0.135) rotate(0deg);
    opacity: 1;
  }
}
.anim-3eb64083-5366-4f97-b982-534cfdca2c16 {
  animation: anim-transform-3eb64083-5366-4f97-b982-534cfdca2c16 3s ease-in-out infinite;
  transform-origin: 512px 512px;
  z-index: -1;
}
@keyframes anim-transform-58310607-2a19-426d-8a84-ad6894477858 {
  0% {
    transform: translate(138px, 588px) scale(0.095) rotate(0deg);
    opacity: 1;
  }
  33.3% {
    transform: translate(88px, 288px) scale(0.105) rotate(0deg);
    opacity: 1;
  }
  66.7% {
    transform: translate(188px, -12px) scale(0.085) rotate(0deg);
    opacity: 1;
  }
  100.0% {
    transform: translate(138px, -312px) scale(0.095) rotate(0deg);
    opacity: 1;
  }
}
.anim-58310607-2a19-426d-8a84-ad6894477858 {
  animation: anim-transform-58310607-2a19-426d-8a84-ad6894477858 3s ease-in-out infinite;
  transform-origin: 512px 512px;
  z-index: -1;
}
@keyframes anim-transform-d1df808a-5d7a-42a1-8847-2e226e2c08c9 {
  0% {
    transform: translate(-462px, 438px) scale(0.14) rotate(0deg);
    opacity: 1;
  }
  33.3% {
    transform: translate(-412px, 138px) scale(0.15) rotate(0deg);
    opacity: 1;
  }
  66.7% {
    transform: translate(-512px, -162px) scale(0.13) rotate(0deg);
    opacity: 1;
  }
  100.0% {
    transform: translate(-462px, -462px) scale(0.14) rotate(0deg);
    opacity: 1;
  }
}
.anim-d1df808a-5d7a-42a1-8847-2e226e2c08c9 {
  animation: anim-transform-d1df808a-5d7a-42a1-8847-2e226e2c08c9 3s ease-in-out infinite;
  transform-origin: 512px 512px;
  z-index: -1;
}
@keyframes anim-transform-7e6e3e75-e1b0-4f64-93f7-2b66a7ebcc25 {
  0% {
    transform: translate(462px, 468px) scale(0.11) rotate(0deg);
    opacity: 1;
  }
  33.3% {
    transform: translate(412px, 168px) scale(0.12) rotate(0deg);
    opacity: 1;
  }
  66.7% {
    transform: translate(512px, -132px) scale(0.1) rotate(0deg);
    opacity: 1;
  }
  100.0% {
    transform: translate(462px, -432px) scale(0.11) rotate(0deg);
    opacity: 1;
  }
}
.anim-7e6e3e75-e1b0-4f64-93f7-2b66a7ebcc25 {
  animation: anim-transform-7e6e3e75-e1b0-4f64-93f7-2b66a7ebcc25 3s ease-in-out infinite;
  transform-origin: 512px 512px;
  z-index: -1;
}
@keyframes anim-transform-f7548e68-8cb7-4fad-aec4-5b149c4f6c12 {
  0% {
    transform: translate(-162px, 638px) scale(0.12) rotate(0deg);
    opacity: 1;
  }
  33.3% {
    transform: translate(-212px, 338px) scale(0.13) rotate(0deg);
    opacity: 1;
  }
  66.7% {
    transform: translate(-112px, 38px) scale(0.11) rotate(0deg);
    opacity: 1;
  }
  100.0% {
    transform: translate(-162px, -262px) scale(0.12) rotate(0deg);
    opacity: 1;
  }
}
.anim-f7548e68-8cb7-4fad-aec4-5b149c4f6c12 {
  animation: anim-transform-f7548e68-8cb7-4fad-aec4-5b149c4f6c12 3s ease-in-out infinite;
  transform-origin: 512px 512px;
  z-index: -1;
}
@keyframes anim-transform-7e639af6-f655-472c-847e-425401f3bac0 {
  0% {
    transform: translate(138px, 668px) scale(0.13) rotate(0deg);
    opacity: 1;
  }
  33.3% {
    transform: translate(188px, 368px) scale(0.14) rotate(0deg);
    opacity: 1;
  }
  66.7% {
    transform: translate(88px, 68px) scale(0.12) rotate(0deg);
    opacity: 1;
  }
  100.0% {
    transform: translate(138px, -232px) scale(0.13) rotate(0deg);
    opacity: 1;
  }
}
.anim-7e639af6-f655-472c-847e-425401f3bac0 {
  animation: anim-transform-7e639af6-f655-472c-847e-425401f3bac0 3s ease-in-out infinite;
  transform-origin: 512px 512px;
  z-index: -1;
}
@keyframes anim-transform-edd62109-27c4-41aa-b812-252fc2f13083 {
  0% {
    transform: translate(-12px, 488px) scale(0.09) rotate(0deg);
    opacity: 1;
  }
  33.3% {
    transform: translate(-62px, 188px) scale(0.1) rotate(0deg);
    opacity: 1;
  }
  66.7% {
    transform: translate(38px, -112px) scale(0.08) rotate(0deg);
    opacity: 1;
  }
  100.0% {
    transform: translate(-12px, -412px) scale(0.09) rotate(0deg);
    opacity: 1;
  }
}
.anim-edd62109-27c4-41aa-b812-252fc2f13083 {
  animation: anim-transform-edd62109-27c4-41aa-b812-252fc2f13083 3s ease-in-out infinite;
  transform-origin: 512px 512px;
  z-index: -1;
}
@keyframes anim-transform-e7fa9101-693d-42ae-893e-05233521d2e0 {
  0% {
    transform: translate(-12px, 518px) scale(0.14) rotate(0deg);
    opacity: 1;
  }
  33.3% {
    transform: translate(38px, 218px) scale(0.15) rotate(0deg);
    opacity: 1;
  }
  66.7% {
    transform: translate(-62px, -82px) scale(0.13) rotate(0deg);
    opacity: 1;
  }
  100.0% {
    transform: translate(-12px, -382px) scale(0.14) rotate(0deg);
    opacity: 1;
  }
}
.anim-e7fa9101-693d-42ae-893e-05233521d2e0 {
  animation: anim-transform-e7fa9101-693d-42ae-893e-05233521d2e0 3s ease-in-out infinite;
  transform-origin: 512px 512px;
  z-index: -1;
}
@keyframes anim-transform-870e9ddd-d696-4e1a-abba-7082e9dca9e9 {
  0% {
    transform: translate(-412px, 608px) scale(0.1) rotate(0deg);
    opacity: 1;
  }
  33.3% {
    transform: translate(-362px, 308px) scale(0.11) rotate(0deg);
    opacity: 1;
  }
  66.7% {
    transform: translate(-462px, 8px) scale(0.09) rotate(0deg);
    opacity: 1;
  }
  100.0% {
    transform: translate(-412px, -292px) scale(0.1) rotate(0deg);
    opacity: 1;
  }
}
.anim-870e9ddd-d696-4e1a-abba-7082e9dca9e9 {
  animation: anim-transform-870e9ddd-d696-4e1a-abba-7082e9dca9e9 3s ease-in-out infinite;
  transform-origin: 512px 512px;
  z-index: -1;
}
@keyframes anim-transform-73c87ff6-a5e4-4ebb-9900-45f44c8f6f08 {
  0% {
    transform: translate(412px, 638px) scale(0.12) rotate(0deg);
    opacity: 1;
  }
  33.3% {
    transform: translate(362px, 338px) scale(0.13) rotate(0deg);
    opacity: 1;
  }
  66.7% {
    transform: translate(462px, 38px) scale(0.11) rotate(0deg);
    opacity: 1;
  }
  100.0% {
    transform: translate(412px, -262px) scale(0.12) rotate(0deg);
    opacity: 1;
  }
}
.anim-73c87ff6-a5e4-4ebb-9900-45f44c8f6f08 {
  animation: anim-transform-73c87ff6-a5e4-4ebb-9900-45f44c8f6f08 3s ease-in-out infinite;
  transform-origin: 512px 512px;
  z-index: -1;
}
@keyframes anim-transform-9941fa85-8e57-435e-8e32-1e32abaf5034 {
  0% {
    transform: translate(0px, 338px) scale(0.75) rotate(0deg);
    opacity: 1;
  }
  50.0% {
    transform: translate(0px, 338px) scale(0.78) rotate(0deg);
    opacity: 1;
  }
  100.0% {
    transform: translate(0px, 338px) scale(0.75) rotate(0deg);
    opacity: 1;
  }
}
.anim-9941fa85-8e57-435e-8e32-1e32abaf5034 {
  animation: anim-transform-9941fa85-8e57-435e-8e32-1e32abaf5034 3s ease-in-out infinite;
  transform-origin: 512px 512px;
  z-index: 1;
}
</style>
<defs>



<linearGradient id="gradient-path-06bf5576-1139-4e7d-8fe4-2ddaeb97e3b3-0-1752004137420" x1="14.644660940672622%" y1="14.64466094067263%" x2="85.35533905932738%" y2="85.35533905932738%"><stop offset="0%" stop-color="#FF0000"/><stop offset="100%" stop-color="#FF0000"/></linearGradient><linearGradient id="gradient-path-82dc3023-859e-4c04-a998-b22ef3c2df0f-0-1752004137420" x1="14.644660940672622%" y1="14.64466094067263%" x2="85.35533905932738%" y2="85.35533905932738%"><stop offset="0%" stop-color="#800080"/><stop offset="100%" stop-color="#800080"/></linearGradient><linearGradient id="gradient-path-3eb64083-5366-4f97-b982-534cfdca2c16-0-1752004137420" x1="14.644660940672622%" y1="14.64466094067263%" x2="85.35533905932738%" y2="85.35533905932738%"><stop offset="0%" stop-color="#FF0000"><animate attributeName="stop-color" values="#FF0000;#800080;#FF0000" dur="1s" repeatCount="indefinite"/></stop><stop offset="100%" stop-color="#800080"><animate attributeName="stop-color" values="#800080;#FF0000;#800080" dur="1s" repeatCount="indefinite"/></stop></linearGradient><linearGradient id="gradient-path-58310607-2a19-426d-8a84-ad6894477858-0-1752004137420" x1="14.644660940672622%" y1="14.64466094067263%" x2="85.35533905932738%" y2="85.35533905932738%"><stop offset="0%" stop-color="#FF0000"/><stop offset="100%" stop-color="#FF0000"/></linearGradient><linearGradient id="gradient-path-d1df808a-5d7a-42a1-8847-2e226e2c08c9-0-1752004137420" x1="14.644660940672622%" y1="14.64466094067263%" x2="85.35533905932738%" y2="85.35533905932738%"><stop offset="0%" stop-color="#800080"/><stop offset="100%" stop-color="#800080"/></linearGradient><linearGradient id="gradient-path-7e6e3e75-e1b0-4f64-93f7-2b66a7ebcc25-0-1752004137420" x1="37.059047744873965%" y1="1.7037086855465873%" x2="62.940952255126035%" y2="98.29629131445341%"><stop offset="0%" stop-color="#FF0000"><animate attributeName="stop-color" values="#FF0000;#800080;#FF0000" dur="1s" repeatCount="indefinite"/></stop><stop offset="100%" stop-color="#800080"><animate attributeName="stop-color" values="#800080;#FF0000;#800080" dur="1s" repeatCount="indefinite"/></stop></linearGradient><linearGradient id="gradient-path-f7548e68-8cb7-4fad-aec4-5b149c4f6c12-0-1752004137420" x1="14.644660940672622%" y1="14.64466094067263%" x2="85.35533905932738%" y2="85.35533905932738%"><stop offset="0%" stop-color="#FF0000"/><stop offset="100%" stop-color="#FF0000"/></linearGradient><linearGradient id="gradient-path-7e639af6-f655-472c-847e-425401f3bac0-0-1752004137420" x1="14.644660940672622%" y1="14.64466094067263%" x2="85.35533905932738%" y2="85.35533905932738%"><stop offset="0%" stop-color="#800080"/><stop offset="100%" stop-color="#800080"/></linearGradient><linearGradient id="gradient-path-edd62109-27c4-41aa-b812-252fc2f13083-0-1752004137420" x1="14.644660940672622%" y1="14.64466094067263%" x2="85.35533905932738%" y2="85.35533905932738%"><stop offset="0%" stop-color="#FF0000"/><stop offset="100%" stop-color="#800080"/></linearGradient><linearGradient id="gradient-path-e7fa9101-693d-42ae-893e-05233521d2e0-0-1752004137420" x1="14.644660940672622%" y1="14.64466094067263%" x2="85.35533905932738%" y2="85.35533905932738%"><stop offset="0%" stop-color="#8A2BE2"><animate attributeName="stop-color" values="#8A2BE2;#FF0000;#8A2BE2" dur="1s" repeatCount="indefinite"/></stop><stop offset="100%" stop-color="#FF0000"><animate attributeName="stop-color" values="#FF0000;#8A2BE2;#FF0000" dur="1s" repeatCount="indefinite"/></stop></linearGradient><linearGradient id="gradient-path-870e9ddd-d696-4e1a-abba-7082e9dca9e9-0-1752004137420" x1="14.644660940672622%" y1="14.64466094067263%" x2="85.35533905932738%" y2="85.35533905932738%"><stop offset="0%" stop-color="#800080"/><stop offset="100%" stop-color="#800080"/></linearGradient><linearGradient id="gradient-path-73c87ff6-a5e4-4ebb-9900-45f44c8f6f08-0-1752004137420" x1="14.644660940672622%" y1="14.64466094067263%" x2="85.35533905932738%" y2="85.35533905932738%"><stop offset="0%" stop-color="#FF0000"><animate attributeName="stop-color" values="#FF0000;#800080;#FF0000" dur="1s" repeatCount="indefinite"/></stop><stop offset="100%" stop-color="#800080"><animate attributeName="stop-color" values="#800080;#FF0000;#800080" dur="1s" repeatCount="indefinite"/></stop></linearGradient><radialGradient id="gradient-path-9941fa85-8e57-435e-8e32-1e32abaf5034-0-1752004137420"><stop offset="0%" stop-color="#FF69B4"><animate attributeName="stop-color" values="#FF69B4;#8A2BE2;#FF0000;#8A2BE2;#FF69B4" dur="10s" repeatCount="indefinite"/></stop><stop offset="50%" stop-color="#8A2BE2"><animate attributeName="stop-color" values="#8A2BE2;#FF0000;#FF69B4;#FF0000;#8A2BE2" dur="10s" repeatCount="indefinite"/></stop><stop offset="100%" stop-color="#FF0000"><animate attributeName="stop-color" values="#FF0000;#FF69B4;#8A2BE2;#FF69B4;#FF0000" dur="10s" repeatCount="indefinite"/></stop></radialGradient></defs>
<g id="element-06bf5576-1139-4e7d-8fe4-2ddaeb97e3b3" class="anim-06bf5576-1139-4e7d-8fe4-2ddaeb97e3b3" fill="#0F172A">
    <path id="path-06bf5576-1139-4e7d-8fe4-2ddaeb97e3b3-0" d="M 319.500 193.439 C 299.655 196.145, 281.265 201.978, 262.034 211.667 C 242.921 221.297, 231.333 229.700, 215.376 245.500 C 188.658 271.955, 172.916 299.634, 163.619 336.500 C 159.918 351.174, 158.672 363.195, 158.643 384.500 C 158.580 430.597, 169.279 468.254, 197.567 521.500 C 217.898 559.769, 242.904 592.361, 293.470 646.500 C 335.540 691.542, 370.572 724.380, 428.500 773.076 C 450.018 791.165, 477.819 812.653, 497.824 826.658 C 513.482 837.620, 512.826 837.767, 541.646 816.855 C 579.743 789.211, 627.299 749.436, 669.500 709.918 C 697.680 683.530, 707.331 673.861, 734.800 644.500 C 768.388 608.599, 787.192 585.324, 809.523 552.008 C 821.934 533.493, 839.939 499.140, 847.461 479.626 C 862.305 441.113, 868.145 403.195, 865.099 365.113 C 862.652 334.525, 853.923 307.836, 837.623 281.105 C 811.971 239.038, 772.267 209.006, 727.122 197.520 C 709.603 193.063, 696.344 191.677, 677.500 192.333 C 657.592 193.027, 642.974 195.695, 624.467 202.011 C 580.772 216.925, 547.104 243.947, 516.050 289.026 L 511.152 296.135 506.167 288.747 C 493.270 269.635, 478.420 252.229, 464.809 240.273 C 434.554 213.696, 401.757 198.274, 365.338 193.500 C 351.897 191.738, 332.171 191.712, 319.500 193.439" stroke="none" fill-rule="evenodd" fill="url(#gradient-path-06bf5576-1139-4e7d-8fe4-2ddaeb97e3b3-0-1752004137420)"/>
</g>
<g id="element-82dc3023-859e-4c04-a998-b22ef3c2df0f" class="anim-82dc3023-859e-4c04-a998-b22ef3c2df0f" fill="#0F172A">
    <path id="path-82dc3023-859e-4c04-a998-b22ef3c2df0f-0" d="M 319.500 193.439 C 299.655 196.145, 281.265 201.978, 262.034 211.667 C 242.921 221.297, 231.333 229.700, 215.376 245.500 C 188.658 271.955, 172.916 299.634, 163.619 336.500 C 159.918 351.174, 158.672 363.195, 158.643 384.500 C 158.580 430.597, 169.279 468.254, 197.567 521.500 C 217.898 559.769, 242.904 592.361, 293.470 646.500 C 335.540 691.542, 370.572 724.380, 428.500 773.076 C 450.018 791.165, 477.819 812.653, 497.824 826.658 C 513.482 837.620, 512.826 837.767, 541.646 816.855 C 579.743 789.211, 627.299 749.436, 669.500 709.918 C 697.680 683.530, 707.331 673.861, 734.800 644.500 C 768.388 608.599, 787.192 585.324, 809.523 552.008 C 821.934 533.493, 839.939 499.140, 847.461 479.626 C 862.305 441.113, 868.145 403.195, 865.099 365.113 C 862.652 334.525, 853.923 307.836, 837.623 281.105 C 811.971 239.038, 772.267 209.006, 727.122 197.520 C 709.603 193.063, 696.344 191.677, 677.500 192.333 C 657.592 193.027, 642.974 195.695, 624.467 202.011 C 580.772 216.925, 547.104 243.947, 516.050 289.026 L 511.152 296.135 506.167 288.747 C 493.270 269.635, 478.420 252.229, 464.809 240.273 C 434.554 213.696, 401.757 198.274, 365.338 193.500 C 351.897 191.738, 332.171 191.712, 319.500 193.439" stroke="none" fill-rule="evenodd" fill="url(#gradient-path-82dc3023-859e-4c04-a998-b22ef3c2df0f-0-1752004137420)"/>
</g>
<g id="element-3eb64083-5366-4f97-b982-534cfdca2c16" class="anim-3eb64083-5366-4f97-b982-534cfdca2c16" fill="#0F172A">
    <path id="path-3eb64083-5366-4f97-b982-534cfdca2c16-0" d="M 319.500 193.439 C 299.655 196.145, 281.265 201.978, 262.034 211.667 C 242.921 221.297, 231.333 229.700, 215.376 245.500 C 188.658 271.955, 172.916 299.634, 163.619 336.500 C 159.918 351.174, 158.672 363.195, 158.643 384.500 C 158.580 430.597, 169.279 468.254, 197.567 521.500 C 217.898 559.769, 242.904 592.361, 293.470 646.500 C 335.540 691.542, 370.572 724.380, 428.500 773.076 C 450.018 791.165, 477.819 812.653, 497.824 826.658 C 513.482 837.620, 512.826 837.767, 541.646 816.855 C 579.743 789.211, 627.299 749.436, 669.500 709.918 C 697.680 683.530, 707.331 673.861, 734.800 644.500 C 768.388 608.599, 787.192 585.324, 809.523 552.008 C 821.934 533.493, 839.939 499.140, 847.461 479.626 C 862.305 441.113, 868.145 403.195, 865.099 365.113 C 862.652 334.525, 853.923 307.836, 837.623 281.105 C 811.971 239.038, 772.267 209.006, 727.122 197.520 C 709.603 193.063, 696.344 191.677, 677.500 192.333 C 657.592 193.027, 642.974 195.695, 624.467 202.011 C 580.772 216.925, 547.104 243.947, 516.050 289.026 L 511.152 296.135 506.167 288.747 C 493.270 269.635, 478.420 252.229, 464.809 240.273 C 434.554 213.696, 401.757 198.274, 365.338 193.500 C 351.897 191.738, 332.171 191.712, 319.500 193.439" stroke="none" fill-rule="evenodd" fill="url(#gradient-path-3eb64083-5366-4f97-b982-534cfdca2c16-0-1752004137420)"/>
</g>
<g id="element-58310607-2a19-426d-8a84-ad6894477858" class="anim-58310607-2a19-426d-8a84-ad6894477858" fill="#0F172A">
    <path id="path-58310607-2a19-426d-8a84-ad6894477858-0" d="M 319.500 193.439 C 299.655 196.145, 281.265 201.978, 262.034 211.667 C 242.921 221.297, 231.333 229.700, 215.376 245.500 C 188.658 271.955, 172.916 299.634, 163.619 336.500 C 159.918 351.174, 158.672 363.195, 158.643 384.500 C 158.580 430.597, 169.279 468.254, 197.567 521.500 C 217.898 559.769, 242.904 592.361, 293.470 646.500 C 335.540 691.542, 370.572 724.380, 428.500 773.076 C 450.018 791.165, 477.819 812.653, 497.824 826.658 C 513.482 837.620, 512.826 837.767, 541.646 816.855 C 579.743 789.211, 627.299 749.436, 669.500 709.918 C 697.680 683.530, 707.331 673.861, 734.800 644.500 C 768.388 608.599, 787.192 585.324, 809.523 552.008 C 821.934 533.493, 839.939 499.140, 847.461 479.626 C 862.305 441.113, 868.145 403.195, 865.099 365.113 C 862.652 334.525, 853.923 307.836, 837.623 281.105 C 811.971 239.038, 772.267 209.006, 727.122 197.520 C 709.603 193.063, 696.344 191.677, 677.500 192.333 C 657.592 193.027, 642.974 195.695, 624.467 202.011 C 580.772 216.925, 547.104 243.947, 516.050 289.026 L 511.152 296.135 506.167 288.747 C 493.270 269.635, 478.420 252.229, 464.809 240.273 C 434.554 213.696, 401.757 198.274, 365.338 193.500 C 351.897 191.738, 332.171 191.712, 319.500 193.439" stroke="none" fill-rule="evenodd" fill="url(#gradient-path-58310607-2a19-426d-8a84-ad6894477858-0-1752004137420)"/>
</g>
<g id="element-d1df808a-5d7a-42a1-8847-2e226e2c08c9" class="anim-d1df808a-5d7a-42a1-8847-2e226e2c08c9" fill="#0F172A">
    <path id="path-d1df808a-5d7a-42a1-8847-2e226e2c08c9-0" d="M 319.500 193.439 C 299.655 196.145, 281.265 201.978, 262.034 211.667 C 242.921 221.297, 231.333 229.700, 215.376 245.500 C 188.658 271.955, 172.916 299.634, 163.619 336.500 C 159.918 351.174, 158.672 363.195, 158.643 384.500 C 158.580 430.597, 169.279 468.254, 197.567 521.500 C 217.898 559.769, 242.904 592.361, 293.470 646.500 C 335.540 691.542, 370.572 724.380, 428.500 773.076 C 450.018 791.165, 477.819 812.653, 497.824 826.658 C 513.482 837.620, 512.826 837.767, 541.646 816.855 C 579.743 789.211, 627.299 749.436, 669.500 709.918 C 697.680 683.530, 707.331 673.861, 734.800 644.500 C 768.388 608.599, 787.192 585.324, 809.523 552.008 C 821.934 533.493, 839.939 499.140, 847.461 479.626 C 862.305 441.113, 868.145 403.195, 865.099 365.113 C 862.652 334.525, 853.923 307.836, 837.623 281.105 C 811.971 239.038, 772.267 209.006, 727.122 197.520 C 709.603 193.063, 696.344 191.677, 677.500 192.333 C 657.592 193.027, 642.974 195.695, 624.467 202.011 C 580.772 216.925, 547.104 243.947, 516.050 289.026 L 511.152 296.135 506.167 288.747 C 493.270 269.635, 478.420 252.229, 464.809 240.273 C 434.554 213.696, 401.757 198.274, 365.338 193.500 C 351.897 191.738, 332.171 191.712, 319.500 193.439" stroke="none" fill-rule="evenodd" fill="url(#gradient-path-d1df808a-5d7a-42a1-8847-2e226e2c08c9-0-1752004137420)"/>
</g>
<g id="element-7e6e3e75-e1b0-4f64-93f7-2b66a7ebcc25" class="anim-7e6e3e75-e1b0-4f64-93f7-2b66a7ebcc25" fill="#0F172A">
    <path id="path-7e6e3e75-e1b0-4f64-93f7-2b66a7ebcc25-0" d="M 319.500 193.439 C 299.655 196.145, 281.265 201.978, 262.034 211.667 C 242.921 221.297, 231.333 229.700, 215.376 245.500 C 188.658 271.955, 172.916 299.634, 163.619 336.500 C 159.918 351.174, 158.672 363.195, 158.643 384.500 C 158.580 430.597, 169.279 468.254, 197.567 521.500 C 217.898 559.769, 242.904 592.361, 293.470 646.500 C 335.540 691.542, 370.572 724.380, 428.500 773.076 C 450.018 791.165, 477.819 812.653, 497.824 826.658 C 513.482 837.620, 512.826 837.767, 541.646 816.855 C 579.743 789.211, 627.299 749.436, 669.500 709.918 C 697.680 683.530, 707.331 673.861, 734.800 644.500 C 768.388 608.599, 787.192 585.324, 809.523 552.008 C 821.934 533.493, 839.939 499.140, 847.461 479.626 C 862.305 441.113, 868.145 403.195, 865.099 365.113 C 862.652 334.525, 853.923 307.836, 837.623 281.105 C 811.971 239.038, 772.267 209.006, 727.122 197.520 C 709.603 193.063, 696.344 191.677, 677.500 192.333 C 657.592 193.027, 642.974 195.695, 624.467 202.011 C 580.772 216.925, 547.104 243.947, 516.050 289.026 L 511.152 296.135 506.167 288.747 C 493.270 269.635, 478.420 252.229, 464.809 240.273 C 434.554 213.696, 401.757 198.274, 365.338 193.500 C 351.897 191.738, 332.171 191.712, 319.500 193.439" stroke="none" fill-rule="evenodd" fill="url(#gradient-path-7e6e3e75-e1b0-4f64-93f7-2b66a7ebcc25-0-1752004137420)"/>
</g>
<g id="element-f7548e68-8cb7-4fad-aec4-5b149c4f6c12" class="anim-f7548e68-8cb7-4fad-aec4-5b149c4f6c12" fill="#0F172A">
    <path id="path-f7548e68-8cb7-4fad-aec4-5b149c4f6c12-0" d="M 319.500 193.439 C 299.655 196.145, 281.265 201.978, 262.034 211.667 C 242.921 221.297, 231.333 229.700, 215.376 245.500 C 188.658 271.955, 172.916 299.634, 163.619 336.500 C 159.918 351.174, 158.672 363.195, 158.643 384.500 C 158.580 430.597, 169.279 468.254, 197.567 521.500 C 217.898 559.769, 242.904 592.361, 293.470 646.500 C 335.540 691.542, 370.572 724.380, 428.500 773.076 C 450.018 791.165, 477.819 812.653, 497.824 826.658 C 513.482 837.620, 512.826 837.767, 541.646 816.855 C 579.743 789.211, 627.299 749.436, 669.500 709.918 C 697.680 683.530, 707.331 673.861, 734.800 644.500 C 768.388 608.599, 787.192 585.324, 809.523 552.008 C 821.934 533.493, 839.939 499.140, 847.461 479.626 C 862.305 441.113, 868.145 403.195, 865.099 365.113 C 862.652 334.525, 853.923 307.836, 837.623 281.105 C 811.971 239.038, 772.267 209.006, 727.122 197.520 C 709.603 193.063, 696.344 191.677, 677.500 192.333 C 657.592 193.027, 642.974 195.695, 624.467 202.011 C 580.772 216.925, 547.104 243.947, 516.050 289.026 L 511.152 296.135 506.167 288.747 C 493.270 269.635, 478.420 252.229, 464.809 240.273 C 434.554 213.696, 401.757 198.274, 365.338 193.500 C 351.897 191.738, 332.171 191.712, 319.500 193.439" stroke="none" fill-rule="evenodd" fill="url(#gradient-path-f7548e68-8cb7-4fad-aec4-5b149c4f6c12-0-1752004137420)"/>
</g>
<g id="element-7e639af6-f655-472c-847e-425401f3bac0" class="anim-7e639af6-f655-472c-847e-425401f3bac0" fill="#0F172A">
    <path id="path-7e639af6-f655-472c-847e-425401f3bac0-0" d="M 319.500 193.439 C 299.655 196.145, 281.265 201.978, 262.034 211.667 C 242.921 221.297, 231.333 229.700, 215.376 245.500 C 188.658 271.955, 172.916 299.634, 163.619 336.500 C 159.918 351.174, 158.672 363.195, 158.643 384.500 C 158.580 430.597, 169.279 468.254, 197.567 521.500 C 217.898 559.769, 242.904 592.361, 293.470 646.500 C 335.540 691.542, 370.572 724.380, 428.500 773.076 C 450.018 791.165, 477.819 812.653, 497.824 826.658 C 513.482 837.620, 512.826 837.767, 541.646 816.855 C 579.743 789.211, 627.299 749.436, 669.500 709.918 C 697.680 683.530, 707.331 673.861, 734.800 644.500 C 768.388 608.599, 787.192 585.324, 809.523 552.008 C 821.934 533.493, 839.939 499.140, 847.461 479.626 C 862.305 441.113, 868.145 403.195, 865.099 365.113 C 862.652 334.525, 853.923 307.836, 837.623 281.105 C 811.971 239.038, 772.267 209.006, 727.122 197.520 C 709.603 193.063, 696.344 191.677, 677.500 192.333 C 657.592 193.027, 642.974 195.695, 624.467 202.011 C 580.772 216.925, 547.104 243.947, 516.050 289.026 L 511.152 296.135 506.167 288.747 C 493.270 269.635, 478.420 252.229, 464.809 240.273 C 434.554 213.696, 401.757 198.274, 365.338 193.500 C 351.897 191.738, 332.171 191.712, 319.500 193.439" stroke="none" fill-rule="evenodd" fill="url(#gradient-path-7e639af6-f655-472c-847e-425401f3bac0-0-1752004137420)"/>
</g>
<g id="element-edd62109-27c4-41aa-b812-252fc2f13083" class="anim-edd62109-27c4-41aa-b812-252fc2f13083" fill="#0F172A">
    <path id="path-edd62109-27c4-41aa-b812-252fc2f13083-0" d="M 319.500 193.439 C 299.655 196.145, 281.265 201.978, 262.034 211.667 C 242.921 221.297, 231.333 229.700, 215.376 245.500 C 188.658 271.955, 172.916 299.634, 163.619 336.500 C 159.918 351.174, 158.672 363.195, 158.643 384.500 C 158.580 430.597, 169.279 468.254, 197.567 521.500 C 217.898 559.769, 242.904 592.361, 293.470 646.500 C 335.540 691.542, 370.572 724.380, 428.500 773.076 C 450.018 791.165, 477.819 812.653, 497.824 826.658 C 513.482 837.620, 512.826 837.767, 541.646 816.855 C 579.743 789.211, 627.299 749.436, 669.500 709.918 C 697.680 683.530, 707.331 673.861, 734.800 644.500 C 768.388 608.599, 787.192 585.324, 809.523 552.008 C 821.934 533.493, 839.939 499.140, 847.461 479.626 C 862.305 441.113, 868.145 403.195, 865.099 365.113 C 862.652 334.525, 853.923 307.836, 837.623 281.105 C 811.971 239.038, 772.267 209.006, 727.122 197.520 C 709.603 193.063, 696.344 191.677, 677.500 192.333 C 657.592 193.027, 642.974 195.695, 624.467 202.011 C 580.772 216.925, 547.104 243.947, 516.050 289.026 L 511.152 296.135 506.167 288.747 C 493.270 269.635, 478.420 252.229, 464.809 240.273 C 434.554 213.696, 401.757 198.274, 365.338 193.500 C 351.897 191.738, 332.171 191.712, 319.500 193.439" stroke="none" fill-rule="evenodd" fill="url(#gradient-path-edd62109-27c4-41aa-b812-252fc2f13083-0-1752004137420)"/>
</g>
<g id="element-e7fa9101-693d-42ae-893e-05233521d2e0" class="anim-e7fa9101-693d-42ae-893e-05233521d2e0" fill="#0F172A">
    <path id="path-e7fa9101-693d-42ae-893e-05233521d2e0-0" d="M 319.500 193.439 C 299.655 196.145, 281.265 201.978, 262.034 211.667 C 242.921 221.297, 231.333 229.700, 215.376 245.500 C 188.658 271.955, 172.916 299.634, 163.619 336.500 C 159.918 351.174, 158.672 363.195, 158.643 384.500 C 158.580 430.597, 169.279 468.254, 197.567 521.500 C 217.898 559.769, 242.904 592.361, 293.470 646.500 C 335.540 691.542, 370.572 724.380, 428.500 773.076 C 450.018 791.165, 477.819 812.653, 497.824 826.658 C 513.482 837.620, 512.826 837.767, 541.646 816.855 C 579.743 789.211, 627.299 749.436, 669.500 709.918 C 697.680 683.530, 707.331 673.861, 734.800 644.500 C 768.388 608.599, 787.192 585.324, 809.523 552.008 C 821.934 533.493, 839.939 499.140, 847.461 479.626 C 862.305 441.113, 868.145 403.195, 865.099 365.113 C 862.652 334.525, 853.923 307.836, 837.623 281.105 C 811.971 239.038, 772.267 209.006, 727.122 197.520 C 709.603 193.063, 696.344 191.677, 677.500 192.333 C 657.592 193.027, 642.974 195.695, 624.467 202.011 C 580.772 216.925, 547.104 243.947, 516.050 289.026 L 511.152 296.135 506.167 288.747 C 493.270 269.635, 478.420 252.229, 464.809 240.273 C 434.554 213.696, 401.757 198.274, 365.338 193.500 C 351.897 191.738, 332.171 191.712, 319.500 193.439" stroke="none" fill-rule="evenodd" fill="url(#gradient-path-e7fa9101-693d-42ae-893e-05233521d2e0-0-1752004137420)"/>
</g>
<g id="element-870e9ddd-d696-4e1a-abba-7082e9dca9e9" class="anim-870e9ddd-d696-4e1a-abba-7082e9dca9e9" fill="#0F172A">
    <path id="path-870e9ddd-d696-4e1a-abba-7082e9dca9e9-0" d="M 319.500 193.439 C 299.655 196.145, 281.265 201.978, 262.034 211.667 C 242.921 221.297, 231.333 229.700, 215.376 245.500 C 188.658 271.955, 172.916 299.634, 163.619 336.500 C 159.918 351.174, 158.672 363.195, 158.643 384.500 C 158.580 430.597, 169.279 468.254, 197.567 521.500 C 217.898 559.769, 242.904 592.361, 293.470 646.500 C 335.540 691.542, 370.572 724.380, 428.500 773.076 C 450.018 791.165, 477.819 812.653, 497.824 826.658 C 513.482 837.620, 512.826 837.767, 541.646 816.855 C 579.743 789.211, 627.299 749.436, 669.500 709.918 C 697.680 683.530, 707.331 673.861, 734.800 644.500 C 768.388 608.599, 787.192 585.324, 809.523 552.008 C 821.934 533.493, 839.939 499.140, 847.461 479.626 C 862.305 441.113, 868.145 403.195, 865.099 365.113 C 862.652 334.525, 853.923 307.836, 837.623 281.105 C 811.971 239.038, 772.267 209.006, 727.122 197.520 C 709.603 193.063, 696.344 191.677, 677.500 192.333 C 657.592 193.027, 642.974 195.695, 624.467 202.011 C 580.772 216.925, 547.104 243.947, 516.050 289.026 L 511.152 296.135 506.167 288.747 C 493.270 269.635, 478.420 252.229, 464.809 240.273 C 434.554 213.696, 401.757 198.274, 365.338 193.500 C 351.897 191.738, 332.171 191.712, 319.500 193.439" stroke="none" fill-rule="evenodd" fill="url(#gradient-path-870e9ddd-d696-4e1a-abba-7082e9dca9e9-0-1752004137420)"/>
</g>
<g id="element-73c87ff6-a5e4-4ebb-9900-45f44c8f6f08" class="anim-73c87ff6-a5e4-4ebb-9900-45f44c8f6f08" fill="#0F172A">
    <path id="path-73c87ff6-a5e4-4ebb-9900-45f44c8f6f08-0" d="M 319.500 193.439 C 299.655 196.145, 281.265 201.978, 262.034 211.667 C 242.921 221.297, 231.333 229.700, 215.376 245.500 C 188.658 271.955, 172.916 299.634, 163.619 336.500 C 159.918 351.174, 158.672 363.195, 158.643 384.500 C 158.580 430.597, 169.279 468.254, 197.567 521.500 C 217.898 559.769, 242.904 592.361, 293.470 646.500 C 335.540 691.542, 370.572 724.380, 428.500 773.076 C 450.018 791.165, 477.819 812.653, 497.824 826.658 C 513.482 837.620, 512.826 837.767, 541.646 816.855 C 579.743 789.211, 627.299 749.436, 669.500 709.918 C 697.680 683.530, 707.331 673.861, 734.800 644.500 C 768.388 608.599, 787.192 585.324, 809.523 552.008 C 821.934 533.493, 839.939 499.140, 847.461 479.626 C 862.305 441.113, 868.145 403.195, 865.099 365.113 C 862.652 334.525, 853.923 307.836, 837.623 281.105 C 811.971 239.038, 772.267 209.006, 727.122 197.520 C 709.603 193.063, 696.344 191.677, 677.500 192.333 C 657.592 193.027, 642.974 195.695, 624.467 202.011 C 580.772 216.925, 547.104 243.947, 516.050 289.026 L 511.152 296.135 506.167 288.747 C 493.270 269.635, 478.420 252.229, 464.809 240.273 C 434.554 213.696, 401.757 198.274, 365.338 193.500 C 351.897 191.738, 332.171 191.712, 319.500 193.439" stroke="none" fill-rule="evenodd" fill="url(#gradient-path-73c87ff6-a5e4-4ebb-9900-45f44c8f6f08-0-1752004137420)"/>
</g>
<g id="element-9941fa85-8e57-435e-8e32-1e32abaf5034" class="anim-9941fa85-8e57-435e-8e32-1e32abaf5034" fill="#0000FF">
    <path id="path-9941fa85-8e57-435e-8e32-1e32abaf5034-0" d="M 318.422 165.561 C 298.232 168.955, 282.162 177.837, 272.568 190.907 C 270.160 194.187, 267.191 196.677, 263.398 198.596 C 251.745 204.492, 243.816 214.199, 238.600 228.956 C 235.781 236.930, 235.577 238.468, 235.544 252 C 235.513 264.792, 235.826 267.619, 238.203 276 C 240.363 283.619, 240.986 288.272, 241.347 299.500 C 241.837 314.704, 243.576 322.698, 248.992 334.643 C 252.760 342.952, 259.782 353.506, 266.256 360.589 L 271.341 366.154 268.721 371.495 C 266.155 376.727, 265.982 376.860, 260.301 377.961 C 214.981 386.738, 188.733 398.401, 167.945 419 C 147.506 439.253, 137.783 461.544, 125.636 516 C 123.120 527.275, 119.651 544.825, 117.925 555 C 115.162 571.296, 114.854 574.989, 115.343 586 C 115.961 599.919, 117.567 606.998, 122.568 617.840 C 129.410 632.676, 137.285 641.253, 176.282 676.341 C 195.317 693.467, 196.044 694.260, 195.538 697.320 C 194.097 706.025, 186 824.700, 186 837.113 C 186 844.085, 186.232 844.960, 188.750 847.481 C 193.681 852.420, 199.315 853.325, 204.696 850.044 C 210.579 846.457, 210.670 846.015, 212.433 812.500 C 214.462 773.914, 219.189 714.478, 220.318 713.348 C 220.490 713.176, 223.744 713.926, 227.548 715.014 C 238.152 718.046, 245.450 718.478, 253 716.518 C 271.557 711.703, 282.415 699.868, 286.592 679.906 C 288.039 672.989, 288.015 670.641, 286.385 659.748 L 285.823 655.996 292.162 653.158 C 295.648 651.597, 302.934 648.846, 308.352 647.044 L 318.205 643.767 326.852 645.605 C 333.565 647.032, 339.975 647.449, 355.500 647.472 L 375.500 647.500 383.819 651.169 C 402.448 659.387, 414.045 669.193, 420.342 682.051 C 424.274 690.079, 432.321 721.951, 433.957 735.973 L 434.829 743.446 431.366 747.280 C 426.094 753.116, 420.908 761.660, 417.412 770.270 C 414.401 777.689, 414.230 777.898, 413.629 774.895 C 413.283 773.165, 412.958 766.969, 412.906 761.125 C 412.854 755.281, 412.516 746.300, 412.155 741.167 C 411.527 732.247, 411.353 731.705, 408.233 728.917 C 402.642 723.922, 393.592 725.925, 389.787 733 C 388.036 736.257, 387.946 738.304, 388.490 762.500 C 389.136 791.262, 390.668 823.760, 392.016 837.321 C 393.649 853.739, 399.843 859.537, 415.015 858.848 C 426.742 858.315, 427.567 857.260, 430.638 838.856 C 431.956 830.960, 433.932 816.689, 435.030 807.143 C 436.127 797.596, 437.528 787.696, 438.142 785.143 C 441.880 769.598, 452.916 756.546, 469 748.646 C 489.371 738.641, 515.621 735.784, 543 740.591 C 560.826 743.721, 571.145 748.874, 580.812 759.473 C 593.280 773.142, 597.739 789.496, 602.076 837.449 C 603.292 850.890, 603.451 851.522, 606.453 854.797 C 610.711 859.443, 616.927 860.244, 622 856.801 C 628.350 852.491, 628.341 852.596, 625.485 818.310 C 622.816 786.276, 621.432 778.734, 616.403 768.808 C 615.081 766.200, 614 763.296, 614 762.355 C 614 759.693, 623.711 717.146, 626.039 709.609 C 631.133 693.116, 638.092 680.099, 646.797 670.778 C 656.429 660.466, 670.710 651.428, 684.404 646.978 C 690.793 644.902, 691.829 644.828, 698.312 645.986 C 708.025 647.722, 720.971 647.548, 730.762 645.550 C 737.564 644.161, 740.039 644.063, 744.762 644.995 C 749.876 646.003, 770.077 651.798, 770.774 652.456 C 770.925 652.599, 770.363 655.349, 769.524 658.568 C 766.071 671.828, 768.575 687.046, 775.763 696.483 C 783.842 707.090, 795.496 712.500, 810.262 712.500 C 817.190 712.500, 819.115 712.814, 819.459 714 C 820.560 717.793, 826.645 764.127, 832.003 809.500 C 836.396 846.706, 836.456 846.924, 843.412 850.379 C 846.705 852.015, 847.723 852.100, 851.265 851.039 C 857.333 849.221, 861 845.090, 861 840.072 C 861 835.974, 855.346 781.814, 852.380 757.500 C 849.906 737.214, 844.437 706.583, 842.651 703.002 L 841.033 699.759 850.146 690.129 C 861.431 678.205, 869.116 668.650, 882.440 649.981 C 903.469 620.513, 906.940 612.890, 907.703 594.500 C 908.286 580.444, 906.482 571.064, 896.980 538.738 C 879.678 479.880, 871.633 460.038, 856.945 440 C 847.978 427.767, 832.961 414.883, 818.250 406.802 C 811.053 402.848, 809.986 401.745, 812.100 400.438 C 814.404 399.014, 820.973 387.602, 823.178 381.190 C 825.037 375.788, 825.482 372.362, 825.490 363.396 L 825.500 352.293 817.358 336.396 C 806.943 316.062, 803.581 306.840, 796.072 278 C 784.249 232.590, 780.022 222.845, 766.096 208.886 C 754.263 197.026, 743.822 190.842, 724 183.953 C 695.097 173.908, 655.067 181.513, 631.686 201.492 C 616.146 214.770, 604.389 233.121, 599.966 251 C 598.415 257.271, 597.638 264.876, 597.003 280 C 596.032 303.103, 594.785 310.097, 587.460 333.500 C 578.620 361.744, 578.591 361.869, 578.544 372.500 C 578.493 384.192, 580.320 390.646, 585.666 397.649 C 587.575 400.150, 588.994 402.324, 588.818 402.480 C 588.643 402.636, 585.350 404.675, 581.500 407.011 C 571.676 412.971, 563.381 419.755, 554.841 428.815 L 547.500 436.602 531.500 435.857 C 505.631 434.652, 493.242 430.564, 464.327 413.691 C 435.916 397.112, 420.042 390.445, 387.750 381.531 C 384.241 380.563, 382 379.398, 382 378.543 C 382 377.772, 384.674 374.591, 387.942 371.474 C 398.566 361.341, 407.478 346.641, 413.010 330.129 C 416.618 319.359, 417.979 305.778, 417.991 280.426 C 417.999 264.056, 418.236 261.565, 420.500 254 C 426.871 232.716, 421.381 210.177, 405.749 193.438 C 391.533 178.216, 373.127 168.913, 350.500 165.514 C 338.536 163.717, 329.316 163.730, 318.422 165.561 M 325.156 192.015 C 308.853 194.287, 298.931 199.869, 291.698 210.839 C 287.213 217.643, 286.329 218.420, 279.580 221.495 C 268.057 226.746, 263.485 233.920, 262.305 248.603 C 261.911 253.496, 262.261 258.076, 263.430 263.330 L 265.126 270.954 268.313 269.698 C 272.843 267.912, 276.561 259.968, 278.469 248 C 280.200 237.141, 281.939 234.116, 287.603 232.113 C 291.386 230.774, 292.124 230.921, 308.512 236.282 C 329.421 243.122, 337.223 244.426, 357 244.386 C 372.218 244.355, 379.673 243.453, 391.370 240.225 L 397.239 238.606 396.675 233.136 C 395.399 220.775, 384.637 207.028, 370.980 200.315 C 356.732 193.311, 338.960 190.092, 325.156 192.015 M 675.216 209.967 C 663.206 213.198, 654.534 218.321, 645.500 227.521 C 641.100 232.002, 635.930 238.304, 634.011 241.526 C 629.805 248.590, 626.061 259.172, 626.026 264.099 L 626 267.697 631.750 266.840 C 647.178 264.541, 664.968 255.806, 676.670 244.782 C 681.215 240.502, 685.187 237, 685.498 237 C 685.810 237, 687.555 237.623, 689.378 238.385 C 691.883 239.431, 693.802 241.688, 697.242 247.635 C 703.198 257.929, 707.478 263.210, 715.072 269.638 C 725.530 278.490, 735.232 282.836, 748.292 284.518 C 754.375 285.301, 758.920 289.154, 762.124 296.243 C 764.329 301.123, 764.499 302.720, 764.479 318.500 C 764.459 335.089, 764.379 335.730, 761.178 345 C 757.472 355.732, 751.777 366.041, 745.328 373.687 L 740.953 378.874 742.960 382.175 C 744.927 385.409, 745.238 385.522, 758.234 387.732 C 780.893 391.584, 779.815 391.594, 785.302 387.493 C 793.626 381.274, 798.011 372.419, 798.140 361.570 C 798.197 356.787, 797.484 354.772, 792.208 344.817 C 781.721 325.031, 774.389 304.366, 765.964 270.857 C 763.765 262.111, 760.864 252.028, 759.517 248.448 C 753.266 231.842, 739.493 218.780, 720.369 211.321 C 714.162 208.900, 712.006 208.611, 698 208.325 C 685.056 208.060, 681.299 208.331, 675.216 209.967 M 300.735 272.276 C 299.215 276.381, 296.628 281.593, 294.988 283.858 C 290.866 289.548, 282.798 294.636, 274.744 296.623 C 268.114 298.259, 268 298.343, 268 301.594 C 268 315.635, 278.334 337.532, 290.230 348.697 C 302.391 360.109, 314.127 365.481, 329.365 366.608 C 355.927 368.572, 379.160 350.119, 388.081 319.973 C 389.970 313.587, 390.358 309.387, 390.748 291.105 L 391.203 269.709 388.352 270.273 C 370.167 273.870, 350.371 273.304, 324.500 268.447 C 316.800 267.002, 308.925 265.592, 307 265.315 L 303.500 264.811 300.735 272.276 M 679.921 276.636 C 673.098 281.825, 656.792 288.689, 643.603 291.924 C 636.510 293.663, 629.808 295.568, 628.709 296.156 C 626.816 297.169, 626.743 297.934, 627.305 310.862 C 628.249 332.573, 633.905 348.065, 644.902 359.062 C 653.502 367.662, 661.806 371.279, 676.866 372.985 C 696.696 375.231, 710.367 370.662, 722.716 357.662 C 732.678 347.174, 737.465 336.426, 738.654 321.871 C 739.592 310.396, 739.121 309.373, 732.249 307.957 C 724.004 306.260, 714.995 302.690, 708.303 298.470 C 702.121 294.570, 687.923 281.312, 685.062 276.767 L 683.342 274.034 679.921 276.636 M 607.651 359.584 C 603.150 370.545, 604.675 379.415, 612.338 386.843 L 615.697 390.098 622.159 388.475 C 632.122 385.973, 632.097 386.042, 625.609 378.841 C 622.046 374.887, 618.089 368.854, 615.098 362.815 L 610.302 353.129 607.651 359.584 M 292.644 388.223 C 290.760 393.020, 291.299 393.980, 300.080 401.476 C 308.446 408.617, 314.907 411.276, 325.153 411.796 C 332.929 412.191, 334.399 411.965, 339.653 409.567 C 342.869 408.099, 347.440 405.009, 349.811 402.699 C 354.539 398.093, 358.565 392.232, 357.638 391.305 C 357.313 390.980, 354.487 391.229, 351.357 391.857 C 343.532 393.429, 322.901 393.262, 314.884 391.563 C 311.245 390.791, 305.109 388.816, 301.249 387.174 L 294.230 384.187 292.644 388.223 M 712.964 397.107 C 696.197 402.488, 683.496 402.962, 664.549 398.914 C 659.084 397.746, 655.240 397.360, 654.676 397.924 C 652.552 400.048, 663.665 411.212, 671.635 414.958 C 688.216 422.753, 707.868 416.680, 719.156 400.273 C 720.799 397.885, 721.999 395.579, 721.822 395.149 C 721.645 394.719, 717.659 395.600, 712.964 397.107 M 252.091 406.581 C 231.317 411.404, 210.259 419.980, 197 429.017 C 186.551 436.139, 175.098 449.881, 168.262 463.500 C 159.884 480.189, 151.913 512.594, 145.632 555.500 C 141.998 580.326, 141.560 588.187, 143.339 596.626 C 146.779 612.946, 151.334 618.562, 192.347 657.056 C 216.327 679.563, 226.593 688.015, 233.899 691.267 C 248.848 697.921, 265.560 682.786, 261.050 666.679 C 258.358 657.062, 240.319 637.475, 210.834 612.151 C 196.406 599.760, 192.695 596.028, 190.584 591.793 C 186.763 584.124, 187.070 577.319, 192.033 559.765 C 197.435 540.654, 200.731 526.990, 203.496 512.231 C 204.761 505.482, 206.523 498.851, 207.412 497.494 C 211.873 490.685, 220.053 490.207, 225.749 496.424 C 228.765 499.714, 229 500.474, 229 506.920 C 229 515.079, 228.021 520.059, 219.773 553.867 L 213.585 579.234 223.542 588.314 C 229.019 593.308, 242.278 606.069, 253.006 616.671 L 272.512 635.948 282.248 630.928 L 291.985 625.907 286.826 619.204 C 264.312 589.946, 264.546 546.512, 287.374 517.336 C 293.848 509.063, 300.509 503.733, 312 497.631 C 325.213 490.616, 333.915 488.510, 349.500 488.556 C 361.052 488.590, 363.391 488.903, 370.500 491.363 C 384.704 496.279, 397.802 505.685, 406.590 517.281 C 423.532 539.635, 428.544 572.520, 418.717 596.849 C 414.850 606.422, 410.177 613.556, 402.152 622.133 C 395.923 628.791, 395.085 630.085, 396.652 630.626 C 411.814 635.867, 419.570 640.603, 430.016 651 C 443.398 664.318, 447.637 674.111, 454.467 707.491 C 456.492 717.386, 458.265 725.598, 458.406 725.740 C 458.548 725.881, 461.327 724.939, 464.582 723.647 C 467.837 722.355, 471.323 721.006, 472.329 720.650 C 473.927 720.084, 473.577 719.340, 469.556 714.751 C 463.556 707.904, 456.437 694.027, 453.965 684.364 C 451.202 673.561, 451.366 661.756, 454.447 649.612 C 457.742 636.620, 460.955 631.056, 471 620.941 C 484.727 607.117, 499.249 601, 518.336 601 C 530.386 601, 537.860 602.810, 548.500 608.303 C 558.318 613.373, 570.933 625.507, 575.660 634.428 L 578.801 640.356 581.314 632.399 C 584.854 621.192, 586.975 610.233, 587.656 599.622 C 588.191 591.285, 587.892 589.037, 584.174 573.500 C 581.937 564.150, 579.823 554.700, 579.476 552.500 C 578.302 545.062, 579.925 544.796, 561 555.535 C 550.399 561.550, 537.761 566.322, 520.986 570.643 L 506.500 574.375 483 574.390 C 458.299 574.406, 432.699 572.128, 430.270 569.698 C 429.591 569.020, 428.615 566.223, 428.099 563.482 C 426.732 556.211, 424.934 523.411, 424.702 501.500 C 424.482 480.841, 425.073 477.836, 430.400 472.510 C 433.804 469.106, 440.710 468.971, 443.709 472.250 C 446.753 475.580, 448.626 479.793, 449.979 486.358 L 451.187 492.216 469.343 491.768 C 485.649 491.365, 488.337 491.045, 495.715 488.628 C 505.469 485.431, 516.952 478.072, 523.431 470.866 C 525.944 468.071, 528 465.477, 528 465.102 C 528 464.727, 522.457 463.665, 515.682 462.740 C 494.740 459.883, 474.501 451.949, 449 436.598 C 426.160 422.849, 415.143 418.080, 391.261 411.607 L 379.022 408.290 376.004 412.993 C 371.932 419.339, 361.736 428.914, 354.945 432.770 C 347.421 437.041, 339.265 439, 329 439 C 309.906 439, 293.495 430.707, 275.673 412.053 C 266.807 402.773, 267.651 402.969, 252.091 406.581 M 737.536 416.125 C 730.227 427.169, 716.549 438.260, 704.207 443.149 C 699.470 445.026, 696.546 445.415, 687 445.439 C 676.802 445.465, 674.789 445.171, 669.221 442.839 C 658.411 438.311, 651.825 433.799, 642.512 424.538 C 636.241 418.303, 632.892 415.666, 631.500 415.871 C 627.105 416.519, 614.082 421.368, 606.513 425.175 C 589.838 433.562, 577.119 444.980, 562.422 464.755 C 551.834 479.002, 534.122 496.921, 524.185 503.441 C 507.751 514.223, 491.963 518.856, 468.755 519.706 C 459.131 520.059, 452.658 520.714, 452.105 521.392 C 450.651 523.172, 452.016 544.792, 453.621 545.408 C 456.753 546.610, 486.255 548.167, 494.835 547.583 C 524.698 545.551, 551.682 535.395, 568.564 519.834 C 578.289 510.870, 580.815 505.569, 582.518 490.553 C 583.076 485.636, 583.765 484.035, 586.497 481.303 C 589.365 478.435, 590.467 478, 594.867 478 C 599.365 478, 600.344 478.410, 603.588 481.655 L 607.243 485.310 606.704 492.405 C 606.408 496.307, 605.587 505.462, 604.881 512.749 C 603.382 528.205, 604.422 542.122, 608.486 561 C 613.670 585.080, 614.259 589.848, 613.674 603 C 612.980 618.590, 608.108 637.414, 597.407 665.844 C 595.935 669.754, 595 674.367, 595 677.718 C 595 687.468, 591.435 691.944, 582.486 693.430 C 578.798 694.042, 578.209 694.599, 575.225 700.298 C 573.439 703.709, 569.499 709.548, 566.470 713.274 C 563.066 717.462, 561.447 720.188, 562.231 720.414 C 571.744 723.155, 583.770 729.072, 590.250 734.201 C 592.313 735.833, 594 737.006, 594 736.807 C 594 734.024, 602.531 698.551, 604.535 693 C 615.002 664.009, 629.954 645.962, 653.496 633.901 L 662.536 629.270 656.664 622.885 C 652.648 618.518, 649.261 613.339, 645.950 606.500 C 637.861 589.790, 637.535 587.777, 637.516 554.500 L 637.500 525.500 640.726 516 C 648.263 493.801, 662.540 478.089, 684.314 468.030 C 696.196 462.540, 702.971 461, 715.234 461 C 738.850 461, 759.846 470.910, 776.067 489.713 C 782.053 496.652, 786.970 506.306, 790.727 518.500 C 793.400 527.175, 793.495 528.240, 793.372 548 C 793.142 584.692, 787.680 604.827, 773.425 621.531 L 769.131 626.562 775.540 628.398 C 779.065 629.407, 782.546 630.004, 783.275 629.725 C 785.190 628.990, 813 589.044, 813 587.028 C 813 586.097, 811.158 580.198, 808.906 573.918 C 803.583 559.076, 792 513.076, 792 506.783 C 792 497.400, 796.735 493, 806.833 493 C 813.613 493, 816.696 495.542, 817.479 501.778 C 817.805 504.375, 818.542 509.157, 819.117 512.405 C 820.318 519.196, 834.947 571.578, 838.107 580.406 C 841.365 589.507, 840.570 592.284, 830.518 606.933 C 825.775 613.845, 817.655 625.350, 812.474 632.500 C 793.753 658.336, 790.062 666.638, 793.405 675.391 C 796.170 682.631, 801.263 686.020, 809.315 685.978 C 816.032 685.943, 820.851 682.992, 830.122 673.238 C 848.438 653.967, 867.403 628.309, 876.839 610.033 L 881.245 601.500 880.686 589.500 C 880.053 575.936, 877.799 565.841, 867.517 530.500 C 858.371 499.064, 853.814 486.272, 846.500 471.500 C 839.077 456.509, 833.746 449.312, 824.257 441.476 C 808.379 428.362, 771.912 414.692, 746.465 412.315 L 740.431 411.751 737.536 416.125 M 706 487.995 C 693.970 491.222, 686.354 495.480, 678.417 503.417 C 671.516 510.318, 666.084 519.221, 664.389 526.408 L 663.704 529.316 670.102 528.650 C 678.474 527.778, 684.834 524.541, 693.905 516.535 C 703.870 507.740, 706.145 507.662, 713.935 515.845 C 716.996 519.059, 721.300 523.057, 723.500 524.728 C 734.174 532.838, 749.611 538.903, 760.561 539.290 L 766.500 539.500 766.433 532.500 C 766.306 519.159, 758.490 505.828, 745.230 496.334 C 731.889 486.782, 719.968 484.248, 706 487.995 M 330.798 516.931 C 322.766 519.499, 317.264 522.970, 311.421 529.154 C 305.077 535.869, 301.803 541.469, 298.649 551 C 293.598 566.266, 294.421 578.942, 301.355 592.711 C 310.452 610.777, 326.495 621.102, 345.500 621.124 C 363.123 621.144, 378.810 612.319, 389.140 596.572 C 407.142 569.134, 393.482 527.268, 363.199 517.067 C 355.088 514.335, 339.127 514.268, 330.798 516.931 M 700.003 545.144 C 692.965 550.998, 678.442 555.957, 668.250 555.985 L 663 556 663.015 566.250 C 663.039 583.288, 667.228 595.476, 676.665 605.972 C 681.521 611.373, 691.758 617.117, 699.916 619.017 C 706.960 620.658, 722.639 619.665, 731.137 617.038 C 751.134 610.858, 763.569 594.871, 765.572 572.765 C 766.384 563.802, 767.295 564.435, 752.443 563.640 C 741.964 563.079, 733.183 561.010, 724.421 557.037 C 717.843 554.054, 707.307 547.279, 705.087 544.605 C 703.403 542.576, 703.045 542.614, 700.003 545.144 M 508.033 628.601 C 497.007 631.564, 487.258 640.197, 481.610 652 C 478.740 657.998, 478.500 659.310, 478.500 669 C 478.500 678.795, 478.716 679.941, 481.717 686.074 C 485.643 694.097, 493.700 702.033, 501.747 705.804 C 506.850 708.196, 508.686 708.500, 518 708.500 C 527.299 708.500, 529.154 708.193, 534.218 705.820 C 554.404 696.359, 563.475 671.435, 554.058 651.310 C 545.422 632.856, 526.655 623.596, 508.033 628.601 M 264.643 726.028 C 261.188 727.063, 258.263 729.590, 256.441 733.114 C 254.369 737.121, 247.497 847.440, 249.059 851.619 C 250.171 854.596, 254.596 857.833, 258.569 858.579 C 262.486 859.314, 269.745 856.272, 271.737 853.061 C 272.981 851.057, 274.073 837.667, 277.978 776.500 C 279.067 759.450, 280.240 742.800, 280.585 739.500 C 281.137 734.223, 280.939 733.154, 278.939 730.629 C 276.726 727.835, 271.370 724.912, 268.782 725.086 C 268.077 725.133, 266.214 725.557, 264.643 726.028 M 649.500 726.403 C 644.002 728.830, 643.079 730.847, 640.951 745.106 C 636.824 772.750, 631.008 821.354, 629.457 841.158 C 628.695 850.882, 629.878 854.315, 635.040 857.364 C 640.525 860.605, 650.126 858.371, 652.887 853.212 C 653.445 852.169, 654.622 843.032, 655.503 832.908 C 656.383 822.784, 659.105 799.425, 661.551 781 C 663.997 762.575, 665.998 744.272, 665.999 740.327 C 666 734.085, 665.667 732.758, 663.436 730.106 C 662.025 728.430, 659.213 726.598, 657.186 726.035 C 652.734 724.798, 653.182 724.777, 649.500 726.403 M 779.207 726.454 C 776.939 727.477, 775.331 729.271, 774.039 732.220 C 772.258 736.285, 772.236 737.252, 773.600 751.489 C 774.390 759.733, 776.353 777.733, 777.961 791.489 C 779.570 805.245, 781.640 823.925, 782.561 833 C 783.482 842.075, 784.864 850.870, 785.634 852.544 C 789.361 860.655, 801.637 861.147, 807.484 853.420 C 808.358 852.264, 808.949 849.173, 808.968 845.655 C 808.999 839.920, 804.821 797.057, 800.959 763.500 C 799.883 754.150, 799.002 744.093, 799.001 741.151 C 798.999 731.771, 794.539 726.074, 786.631 725.348 C 784.305 725.135, 781.062 725.618, 779.207 726.454 M 460.304 792.956 C 454.782 796.323, 454.011 798.579, 451.509 818.690 C 447.842 848.178, 447.668 850.511, 448.961 852.927 C 450.574 855.940, 455.899 858.996, 459.500 858.974 C 463.629 858.949, 470.529 855.653, 472.356 852.834 C 473.210 851.517, 474.338 845.924, 474.945 840 C 475.536 834.225, 476.735 823.566, 477.609 816.314 C 479.425 801.238, 478.848 797.733, 473.857 793.533 C 470.159 790.421, 464.833 790.195, 460.304 792.956 M 563.418 791.969 C 560.511 793.145, 556.289 798.406, 555.549 801.775 C 554.532 806.407, 559.657 850.827, 561.540 853.702 C 563.159 856.173, 568.510 859, 571.567 859 C 574.687 859, 580.249 855.641, 582.194 852.580 C 583.929 849.852, 584.088 848.301, 583.586 839 C 582.233 813.903, 580.927 800.760, 579.516 798.030 C 576.370 791.948, 569.689 789.432, 563.418 791.969" stroke="none" fill-rule="evenodd" fill="url(#gradient-path-9941fa85-8e57-435e-8e32-1e32abaf5034-0-1752004137420)"/>
</g>

</svg>