<svg xmlns="http://www.w3.org/2000/svg" width="100%" height="100%" viewBox="0 0 1024 1024" version="1.1" style="width: 100%; height: 100%; display: block;">
	<path d="M 453.051 54.148 C 367.576 63.074, 294.613 124.263, 275.545 203.011 C 270.598 223.443, 269.596 232.877, 269.546 259.500 C 269.521 273.250, 269.852 288.643, 270.283 293.707 L 271.065 302.915 268.119 304.439 C 263.069 307.050, 255.316 315.428, 252.242 321.595 C 247.852 330.403, 246.842 336.014, 246.905 351.243 C 247.068 390.810, 262.041 418.169, 291.582 432.874 C 297.166 435.654, 297.271 435.788, 300.589 444.371 C 310.444 469.862, 328.772 498.016, 350.192 520.565 L 357 527.732 357 540.355 L 357 552.978 348.997 557.002 C 339.662 561.695, 328.974 568.106, 324 571.995 C 322.075 573.501, 311.950 577.993, 301.500 581.978 C 223.265 611.816, 201.322 623.055, 178.625 644.915 C 151.832 670.719, 135.002 704.673, 127.033 749 C 124.932 760.683, 116.378 821.800, 113.527 845.500 C 112.667 852.650, 109.906 875.150, 107.392 895.500 C 102.134 938.068, 102.039 944.199, 106.502 953.266 C 109.870 960.109, 118.080 968.226, 124.749 971.306 L 129.500 973.500 491.021 973.500 L 852.542 973.500 859.193 970.226 C 867.520 966.126, 875.033 958.200, 877.929 950.459 C 879.442 946.417, 880 942.576, 880 936.212 C 880 923.231, 863.882 794.136, 857.438 755.500 C 849.554 708.230, 833.883 674.482, 807.453 647.853 C 784.956 625.185, 762.378 613.586, 681.500 583.146 C 663.202 576.259, 655.576 572.852, 649.403 568.807 C 644.950 565.888, 636.738 561.268, 631.153 558.540 L 621 553.580 621 531.250 L 621 508.921 628.401 499.710 C 643.590 480.807, 657.778 456.384, 662.523 440.972 C 664.183 435.582, 664.412 435.346, 671.754 431.472 C 679.947 427.150, 690.838 417.713, 696.439 410.083 C 704.448 399.172, 710.163 384.072, 711.978 369.026 C 713.284 358.201, 713.291 340.806, 711.992 333.960 C 709.769 322.234, 702.816 311.554, 693.286 305.227 C 688.335 301.939, 687.883 301.336, 688.406 298.721 C 688.723 297.136, 689.491 289.462, 690.112 281.669 C 692.351 253.574, 688.688 217.427, 681.148 193.223 L 679.193 186.946 682.846 187.587 C 692.879 189.349, 700.369 194.910, 704.956 204 C 710.843 215.667, 711.162 218.531, 712.015 267.500 C 712.446 292.250, 713.286 315.433, 713.881 319.017 C 720.270 357.479, 731.075 382.158, 750.626 402.940 C 778.464 432.533, 813.123 442.711, 839.030 428.903 C 844.141 426.179, 852.043 419.448, 850.932 418.765 C 850.694 418.619, 846.452 416.475, 841.504 414 C 815.656 401.070, 804.388 375.492, 807.962 337.860 C 809.133 325.537, 809.944 321.316, 817.387 288.851 C 823.880 260.525, 825.400 249.365, 825.399 230 C 825.398 198.927, 818.585 174.310, 803.491 150.836 C 796.888 140.567, 780.520 124.705, 770.236 118.608 C 743.274 102.624, 712.253 98.932, 683 108.226 C 671.920 111.746, 656.390 119.293, 649.671 124.421 L 644.965 128.014 635.283 117.927 C 600.404 81.588, 556.989 60.630, 504 54.551 C 489.540 52.892, 466.799 52.712, 453.051 54.148 M 506.311 163.820 C 495.465 180.067, 483.663 194.148, 468.808 208.562 C 437.077 239.353, 399.635 261.825, 354 277.467 C 340.089 282.235, 319.233 288, 315.892 288 C 314.265 288, 314 288.771, 314 293.500 L 314 299 322.411 299 C 330.563 299, 330.901 298.906, 333.393 295.944 C 337.868 290.626, 345.470 286.254, 353.254 284.523 C 359.380 283.160, 366.426 282.954, 398.505 283.204 C 435.405 283.491, 436.663 283.566, 442.147 285.783 C 448.803 288.475, 456.223 294.705, 460.154 300.904 L 462.964 305.335 480.349 305.417 L 497.733 305.500 499.061 302.500 C 500.944 298.245, 508.775 290.155, 513.194 287.901 C 521.666 283.579, 527.561 283.030, 565.500 283.027 C 603.354 283.024, 606.939 283.363, 615.545 287.763 C 617.770 288.901, 621.491 291.894, 623.816 294.416 L 628.041 299 638.021 299 L 648 299 647.980 292.250 L 647.961 285.500 633.269 278.500 C 625.189 274.650, 612.527 267.531, 605.131 262.680 C 566.262 237.187, 543.668 211.270, 519.063 163.955 L 513.440 153.141 506.311 163.820 M 357.429 315.469 C 355.987 317.669, 355.821 320.049, 356.259 332.266 C 356.852 348.814, 358.218 353.694, 364.144 360.426 C 369.897 366.962, 374.193 368, 395.500 368 C 417.378 368, 421.395 366.970, 428.685 359.494 C 435.294 352.717, 437 347.376, 437 333.468 C 437 321.820, 435.953 317.880, 432.175 315.316 C 429.738 313.662, 426.368 313.474, 394.304 313.203 L 359.108 312.905 357.429 315.469 M 532.123 314.002 C 530.266 314.441, 527.566 315.978, 526.123 317.420 C 523.632 319.908, 523.483 320.639, 523.167 331.979 C 522.645 350.719, 526.580 359.666, 537.723 365.072 C 542.071 367.181, 544.168 367.426, 561.087 367.799 C 582.235 368.266, 588.866 367.329, 594.794 363.034 C 597.047 361.402, 599.755 358.107, 601.117 355.340 C 603.350 350.805, 603.500 349.407, 603.500 333.171 C 603.500 317.173, 603.351 315.734, 601.559 314.421 C 599.969 313.257, 593.811 313.019, 567.559 313.102 C 549.926 313.159, 533.980 313.564, 532.123 314.002 M 314 334.845 C 314 339.418, 313.565 341.084, 312.002 342.498 C 310.074 344.243, 309.856 344.240, 305.752 342.404 C 303.414 341.357, 298.625 338.335, 295.112 335.686 C 289.148 331.191, 288.533 330.951, 285.842 332.065 C 284.257 332.722, 281.788 334.651, 280.357 336.352 C 277.775 339.421, 277.758 339.551, 278.281 352.473 C 279.092 372.551, 283.286 384.655, 293.197 395.517 C 299.025 401.904, 307.994 406.818, 315.578 407.779 L 321.267 408.500 325.052 419.765 C 332.269 441.247, 344.310 463.154, 358.709 481 C 366.989 491.261, 385.880 509.283, 395.672 516.261 C 413.491 528.961, 436.020 538.168, 457.495 541.527 C 470.773 543.604, 496.174 543.093, 508 540.512 C 542.131 533.061, 576.101 512.546, 598.548 485.826 C 614.331 467.038, 627.777 443.380, 635.392 421 L 639.645 408.500 645.546 407.758 C 653.937 406.703, 660.929 402.924, 667.378 395.958 C 677.773 384.730, 682.242 371.163, 682.405 350.337 C 682.494 338.884, 682.363 338.028, 680.151 335.668 C 678.859 334.289, 676.492 332.618, 674.890 331.954 C 672.136 330.814, 671.712 330.995, 667.131 335.281 C 661.265 340.767, 654.791 344.227, 651.174 343.809 C 648.581 343.509, 648.491 343.280, 648.206 336.250 L 647.912 329 640.456 329 L 633 329 632.983 338.750 C 632.960 351.351, 631.012 360.281, 626.351 369.151 C 619.176 382.805, 606.196 392.863, 591.500 396.156 C 582.095 398.263, 543.681 397.946, 533.874 395.680 C 511.269 390.459, 495.485 370.274, 492.483 342.751 C 491.733 335.869, 490.902 335.450, 478.290 335.594 C 468.466 335.707, 467 336.611, 467 342.557 C 467 356.400, 460.375 371.881, 450.120 381.999 C 442.939 389.084, 436.145 392.950, 426 395.723 C 416.703 398.265, 374.696 398.211, 365 395.645 C 341.859 389.522, 327 366.751, 327 337.412 L 327 329 320.500 329 L 314 329 314 334.845 M 427.241 445.995 C 420.778 449.935, 418.132 458.487, 421.413 464.831 C 423.293 468.467, 431.443 476.005, 437.015 479.261 C 439.482 480.703, 445.572 483.244, 450.549 484.908 C 473.074 492.440, 499.047 490.974, 519.500 481.016 C 532.734 474.573, 541 465.913, 541 458.492 C 541 454.485, 537.405 448.414, 533.663 446.101 C 528.644 442.999, 524.351 443.400, 517.966 447.568 C 503.591 456.953, 495.691 459.422, 480 459.439 C 464.346 459.455, 454.705 456.286, 441.600 446.818 C 436.910 443.429, 431.918 443.143, 427.241 445.995 M 577 547.097 C 569.064 552.715, 550.937 561.407, 538.438 565.590 C 514.560 573.580, 487.514 577.096, 465.746 575.041 C 441.955 572.795, 418.039 566.344, 399.958 557.297 C 394.756 554.695, 390.163 552.400, 389.750 552.199 C 389.337 551.998, 389.005 556.708, 389.011 562.667 L 389.021 573.500 401.326 604.477 L 413.631 635.453 420.498 637.745 C 437.834 643.530, 459.509 646.424, 485.500 646.424 C 511.543 646.424, 532.414 643.601, 552 637.429 L 559.500 635.065 561.907 628.783 C 563.230 625.327, 568.354 612.825, 573.294 601 L 582.274 579.500 582.887 561.248 C 583.224 551.210, 583.275 543.043, 583 543.101 C 582.725 543.158, 580.025 544.956, 577 547.097 M 612.592 593.248 C 611.086 596.687, 600.942 620.650, 590.049 646.500 C 579.156 672.350, 556.914 725.100, 540.622 763.722 C 524.330 802.344, 511 834.202, 511 834.519 C 511 834.835, 515.837 830.905, 521.750 825.786 C 527.663 820.666, 537.225 812.627, 543 807.920 C 595.758 764.924, 614.867 748.880, 614.944 747.515 C 614.975 746.973, 611.536 739.690, 607.302 731.330 C 600.549 717.998, 599.559 715.353, 599.247 709.815 C 598.855 702.854, 600.688 698.561, 605.358 695.501 C 606.707 694.617, 620.473 689.249, 635.947 683.572 C 651.422 677.895, 664.271 673.062, 664.501 672.833 C 664.995 672.338, 664.082 668.695, 654.894 634.500 C 651.052 620.200, 647.457 607.600, 646.904 606.500 C 645.488 603.680, 640.271 600.190, 626.914 593.125 L 615.329 586.997 612.592 593.248 M 346 597.625 C 339.125 601.252, 333.325 604.383, 333.111 604.582 C 332.706 604.960, 313.079 673.457, 313.347 673.557 C 373.628 695.926, 375.087 696.612, 376.566 703.259 C 378.466 711.796, 376.233 717.758, 364.863 734.500 C 360.754 740.550, 357.064 746.043, 356.663 746.707 C 356.206 747.464, 357.040 748.487, 358.899 749.448 C 362.207 751.159, 364.295 752.884, 402.500 785.489 C 417.350 798.162, 435.350 813.369, 442.500 819.282 C 449.650 825.195, 457.328 831.589, 459.562 833.491 L 463.623 836.948 446.222 796.224 C 436.651 773.826, 423.045 741.775, 415.986 725 C 408.928 708.225, 394.992 675.150, 385.018 651.500 C 375.044 627.850, 365.447 604.570, 363.691 599.766 C 361.936 594.962, 360.050 591.031, 359.500 591.031 C 358.950 591.030, 352.875 593.998, 346 597.625 M 689.694 645.202 C 693.757 659.666, 697.611 674.572, 698.257 678.327 C 699.327 684.535, 699.255 685.487, 697.465 688.826 C 694.967 693.487, 693.844 694.026, 662.500 705.598 C 648.200 710.877, 636.187 715.389, 635.804 715.624 C 635.422 715.859, 638.043 721.793, 641.630 728.810 C 646.900 739.122, 648.258 742.749, 648.708 747.720 C 649.196 753.099, 648.946 754.411, 646.713 758.185 C 645.309 760.558, 642.211 764.355, 639.830 766.622 C 634.716 771.490, 588.941 810.224, 546 846.018 C 529.225 860.001, 511.765 875.055, 507.201 879.471 L 498.901 887.500 499.609 914.750 L 500.316 942 673.135 942 L 845.954 942 847.567 939.538 C 849.441 936.677, 850.038 942.471, 840.406 870 C 829.192 785.636, 825.997 762.863, 823.425 749 C 817.058 714.677, 806.455 692.741, 786.037 671.647 C 776.774 662.078, 764.422 652.781, 753.855 647.426 C 746.150 643.522, 719.888 632.790, 702 626.236 C 692.925 622.911, 684.782 619.901, 683.903 619.547 C 682.674 619.052, 684.004 624.944, 689.694 645.202 M 279.500 626.020 C 236.876 641.028, 215.560 653.074, 197.078 672.599 C 182.640 687.852, 174.404 701.302, 167.687 720.600 C 160.155 742.241, 158.133 754.717, 142.346 877 C 133.855 942.772, 134.327 937.327, 136.886 939.886 C 138.977 941.977, 139.496 942, 185.467 942 L 231.933 942 232.217 874.750 C 232.494 808.975, 232.545 807.423, 234.554 804.003 C 240.864 793.263, 255.136 793.263, 261.446 804.003 C 263.455 807.424, 263.506 808.969, 263.777 874.750 L 264.054 942 366.581 942 L 469.107 942 468.520 931.250 C 468.197 925.337, 468.340 913.525, 468.837 905 L 469.741 889.500 461.120 881.100 C 442.837 863.283, 380.205 807.009, 351.496 782.602 C 319.769 755.631, 318.874 753.936, 327.567 737.318 C 330.079 732.516, 334.125 725.739, 336.558 722.259 C 339.455 718.115, 340.553 715.781, 339.741 715.497 C 339.058 715.258, 336.250 714.321, 333.500 713.413 C 323.581 710.140, 289.410 696.794, 285.500 694.666 C 280.208 691.786, 277.719 686.960, 278.451 681 C 278.755 678.525, 282.846 663.955, 287.542 648.623 C 292.238 633.291, 295.949 620.666, 295.790 620.566 C 295.630 620.467, 288.300 622.921, 279.500 626.020 M 681.115 730.976 C 679.254 731.431, 676.104 733.429, 674.115 735.418 C 670.757 738.776, 670.500 739.464, 670.500 745.094 C 670.500 750.819, 670.707 751.344, 674.250 754.590 L 678 758.027 678 777.215 L 678 796.403 667.807 814.701 L 657.615 833 635.057 833.002 C 615.558 833.003, 612.035 833.240, 609.071 834.752 C 598.633 840.074, 598.614 853.406, 609.036 858.750 C 613.026 860.796, 614.820 861, 628.819 861 C 643.089 861, 644.161 861.128, 643.492 862.750 C 637.265 877.853, 637.508 885.532, 644.474 893.794 C 646.002 895.605, 649.107 898.080, 651.376 899.294 C 655.488 901.493, 655.669 901.500, 711.500 901.500 C 763.018 901.500, 767.916 901.355, 772.703 899.685 C 779 897.489, 783.151 893.073, 785.464 886.109 C 788.565 876.771, 787.010 872.787, 760.150 821.287 L 747 796.074 747 776.644 C 747 760.328, 747.240 757.122, 748.494 756.641 C 753.530 754.708, 755.640 743.202, 752.040 737.299 C 748.050 730.753, 746.773 730.519, 714 730.325 C 697.775 730.229, 682.977 730.522, 681.115 730.976 M 704 780.454 L 704 802.909 692.130 825.954 L 680.260 849 712.054 849 L 743.847 849 732.424 825.494 L 721 801.987 721 779.994 L 721 758 712.500 758 L 704 758 704 780.454" stroke="none" fill-rule="evenodd" id="lovable-element-1752002949869nuy347vra" fill="#FFFFFF"/>
</svg>