<svg xmlns="http://www.w3.org/2000/svg" width="100%" height="100%" viewBox="0 0 1024 1024" version="1.1" style="width: 100%; height: 100%; display: block;">
	<path d="M 150.299 109.410 C 143.063 111.766, 132.902 118.210, 127.851 123.648 C 123.555 128.273, 119.085 136.041, 116.714 143 L 114.500 149.500 114.234 458 L 113.968 766.500 116.085 773.488 C 117.249 777.331, 119.011 782.056, 120 783.988 C 124.955 793.671, 136.656 804.074, 147.350 808.306 C 151.637 810.003, 155.435 810.417, 170.018 810.779 L 187.536 811.213 190.258 817.006 C 192.604 821.999, 198.092 827.809, 230.005 859.085 C 250.369 879.043, 269.144 896.875, 271.726 898.711 C 276.981 902.447, 287.300 906, 292.895 906 C 298.706 906, 308.024 903.203, 313.773 899.732 C 317.070 897.742, 335.160 880.518, 362.041 853.775 L 405.036 811 511.768 811.013 L 618.500 811.026 647.500 840.028 C 687.844 880.373, 707.206 898.564, 712.850 901.424 C 720.581 905.342, 728.822 906.642, 736.250 905.117 C 748.979 902.502, 751.581 900.426, 791.500 861.040 C 815.841 837.024, 830.040 822.241, 833 817.834 L 837.500 811.135 852.068 811.067 C 862.383 811.020, 868.223 810.529, 872.068 809.388 C 887.146 804.915, 900.076 793.660, 906.439 779.471 C 911.776 767.571, 911.500 780.496, 911.500 542.500 L 911.500 321.500 908.686 315.770 C 905.622 309.529, 901.076 305.213, 894.031 301.854 C 889.794 299.834, 888.121 299.703, 868.250 299.834 L 847 299.974 847 253.092 C 847 209.263, 846.872 205.797, 845.030 199.855 C 842.445 191.518, 838.407 186.818, 830.474 182.913 L 824.020 179.735 644.760 179.784 C 546.167 179.810, 461.310 179.451, 456.189 178.986 C 447.042 178.154, 446.779 178.057, 441.189 173.427 C 438.060 170.835, 424.471 157.628, 410.991 144.076 C 384.949 117.897, 380.102 114.082, 367.500 109.851 L 360.500 107.500 259 107.283 L 157.500 107.066 150.299 109.410 M 159.330 150.250 C 158.220 151.488, 156.567 153.613, 155.656 154.973 C 154.124 157.260, 154 180.131, 154 461.207 L 154 764.968 156.917 768.234 L 159.834 771.500 175.167 771.500 L 190.500 771.500 276.511 685 C 323.817 637.425, 367.399 593.480, 373.359 587.345 L 384.197 576.191 287.773 479.845 C 176.802 368.965, 184.500 377.935, 184.500 359.504 C 184.500 342.554, 183.623 343.731, 232.198 295.433 C 270.185 257.662, 274.022 254.135, 280 251.484 C 288.615 247.664, 298.627 247.475, 307.500 250.966 C 312.879 253.082, 315.939 255.741, 337.077 276.663 L 360.655 300 510.860 300 L 661.066 300 682.807 278.250 C 700.769 260.280, 705.673 255.933, 711.024 253.239 C 720.355 248.542, 727.405 247.272, 735.235 248.880 C 746.676 251.230, 750.891 254.352, 775.290 278.544 L 797.939 301 802.470 301 L 807 301 807 260.491 L 807 219.982 628.250 219.981 C 525.823 219.980, 446.938 219.591, 443.500 219.069 C 436.280 217.973, 430.129 215.839, 424.033 212.315 C 421.540 210.874, 406 196.319, 389.500 179.970 C 373 163.621, 358.517 149.739, 357.316 149.122 C 355.745 148.315, 327.902 148, 258.240 148 L 161.349 148 159.330 150.250 M 260.169 323.234 C 242.751 340.387, 228.107 355.198, 227.626 356.147 C 227.145 357.096, 227.038 359.015, 227.389 360.412 C 227.784 361.986, 266.917 401.968, 330.263 465.517 C 386.493 521.928, 433.042 569.302, 433.705 570.791 C 435.577 575.001, 435.238 581.097, 432.919 584.901 C 431.779 586.772, 387.839 631.097, 335.275 683.401 C 282.712 735.705, 236.834 781.846, 233.325 785.935 C 229.816 790.024, 226.678 794.436, 226.351 795.739 C 225.832 797.807, 229.868 802.194, 257.915 830.055 C 287.120 859.065, 290.379 862, 293.383 862 C 296.441 862, 304.412 854.264, 398.596 759.882 C 469.345 688.984, 501.723 657.195, 504.500 655.904 C 509.279 653.682, 512.928 653.525, 517.306 655.354 C 519.165 656.131, 534.640 670.739, 553.589 689.604 C 571.762 707.697, 593.576 729.312, 602.065 737.639 C 610.554 745.965, 627.010 762.390, 638.634 774.139 C 650.258 785.887, 674.805 810.462, 693.183 828.750 C 724.059 859.474, 726.858 862, 730.031 862 C 733.204 862, 735.877 859.588, 765.233 830.233 C 788.838 806.628, 797 797.863, 797 796.123 C 797 794.349, 771.893 768.660, 693.491 690.214 C 608.089 604.764, 589.809 586.004, 588.993 582.974 C 587.985 579.232, 588.814 571.941, 590.613 568.727 C 591.136 567.793, 637.843 520.660, 694.407 463.986 C 777.763 380.469, 797.250 360.455, 797.250 358.360 C 797.250 356.341, 794.212 352.873, 783.375 342.523 C 775.744 335.235, 761.625 321.513, 752 312.030 C 742.375 302.547, 733.515 294.127, 732.310 293.319 C 730.368 292.015, 729.725 292.037, 726.621 293.510 C 724.544 294.495, 681.996 336.432, 621.992 396.636 C 566.372 452.442, 519.741 498.528, 518.367 499.051 C 514.766 500.420, 507.453 500.218, 503.718 498.646 C 500.270 497.196, 480.595 477.774, 368.636 365.304 C 324.182 320.647, 296.666 293.731, 294.805 293.082 C 291.872 292.059, 291.476 292.404, 260.169 323.234 M 425.136 364.750 C 438.573 378.363, 460.076 399.850, 472.923 412.500 C 501.572 440.712, 500.165 439.264, 505.721 446.250 C 508.237 449.413, 510.632 452, 511.044 452 C 511.456 452, 513.254 450.313, 515.040 448.250 C 516.827 446.188, 541.443 420.988, 569.744 392.250 L 621.201 340 510.954 340 L 400.707 340 425.136 364.750 M 835.948 343.750 C 837.002 345.813, 838.397 350.281, 839.048 353.679 C 840.519 361.354, 838.501 371.842, 834.080 379.500 C 832.129 382.879, 799.882 415.834, 734.593 481.170 L 637.991 577.839 703.229 642.670 C 768.547 707.579, 793.635 732.461, 819.846 758.325 L 833.857 772.150 848.366 771.825 L 862.875 771.500 865.944 768.557 C 867.632 766.938, 869.457 764.013, 870.001 762.057 C 870.637 759.767, 870.991 683.985, 870.994 549.250 L 871 340 852.516 340 L 834.032 340 835.948 343.750 M 479.304 736.511 C 461.677 753.784, 447.011 768.848, 446.714 769.986 L 446.173 772.056 511.003 771.778 C 546.660 771.625, 576.209 771.115, 576.667 770.645 C 577.125 770.175, 575.958 768.600, 574.072 767.145 C 572.187 765.690, 569.044 762.700, 567.088 760.500 C 560.368 752.944, 530.493 722.831, 520.927 713.972 L 511.353 705.106 479.304 736.511" stroke="none" fill-rule="evenodd" id="lovable-element-1751997143448nezwe9ss0" fill="#FFFFFF"/>
</svg>