<svg xmlns="http://www.w3.org/2000/svg" width="100%" height="100%" viewBox="0 0 1024 1024" version="1.1" style="width: 100%; height: 100%; display: block;">
	<path d="M 257.679 92.056 C 240.902 94.006, 227.392 100.450, 216 111.937 C 207.407 120.602, 202.218 128.945, 198.265 140.452 L 195.500 148.500 195.500 510 C 195.500 708.825, 195.796 873.750, 196.158 876.500 C 197.799 888.959, 205.114 902.324, 216.470 913.610 C 222.796 919.897, 226.527 922.655, 233.065 925.878 C 248.590 933.531, 226.287 932.965, 512.500 932.967 C 765.052 932.969, 769.636 932.935, 777.333 930.996 C 789.687 927.883, 798.210 922.875, 808 912.976 C 817.451 903.420, 821.838 896.739, 825.821 885.835 L 828.500 878.500 828.794 516.500 C 829.010 250.775, 828.788 152.904, 827.959 148.500 C 825.455 135.188, 818.919 122.912, 808.621 112.179 C 797.724 100.821, 782.813 93.807, 765.743 92.008 C 754.559 90.830, 267.833 90.875, 257.679 92.056 M 253.219 130.974 C 242.749 134.739, 235.499 142.215, 232.489 152.348 C 231.182 156.749, 231 200.995, 231 513.644 L 231 869.925 233.124 875.712 C 234.658 879.890, 236.814 883.041, 240.874 887.037 C 250.988 896.992, 221.746 896.058, 514 895.761 L 770.500 895.500 775.143 893.190 C 781.460 890.048, 786.756 884.591, 789.887 878 L 792.500 872.500 792.500 513 L 792.500 153.500 789.880 147.914 C 786.550 140.813, 781.187 135.450, 774.086 132.120 L 768.500 129.500 513.500 129.287 C 265.236 129.080, 258.360 129.124, 253.219 130.974 M 505.500 139.348 C 499.153 142.265, 495.311 149.726, 496.975 155.906 C 499.780 166.324, 509.522 170.765, 518.500 165.718 C 527.765 160.510, 528.632 147.147, 520.100 141.071 C 516.308 138.371, 509.401 137.556, 505.500 139.348 M 282.655 177.455 C 277.702 179.226, 274.201 182.492, 271.890 187.500 C 270.108 191.360, 270.043 201.905, 270.022 489.093 L 270 786.685 272.327 791.093 C 273.606 793.517, 276.570 796.850, 278.913 798.500 L 283.172 801.500 509.336 801.793 C 675.407 802.009, 736.539 801.786, 739.409 800.955 C 745.133 799.299, 748.695 796.254, 751.507 790.611 L 754 785.607 754 488.461 L 754 191.315 751.673 186.907 C 750.394 184.483, 747.430 181.150, 745.087 179.500 L 740.828 176.500 513.664 176.291 C 323.119 176.115, 285.880 176.303, 282.655 177.455 M 306 488.500 L 306 764 511.500 764 L 717 764 717 488.500 L 717 213 511.500 213 L 306 213 306 488.500 M 624.494 339.985 C 621.834 341.301, 579.105 383.587, 497.334 465.826 C 367.803 596.098, 371.973 591.634, 372.028 600 C 372.067 606.039, 378.334 614.677, 384.315 616.936 C 387.911 618.295, 395.057 618.303, 398.685 616.952 C 401.873 615.765, 648.320 370.028, 650.569 365.792 C 652.346 362.448, 652.600 353.529, 651.033 349.500 C 647.234 339.728, 634.346 335.108, 624.494 339.985 M 503.459 813.395 C 487.646 817.236, 476.787 828.739, 473.798 844.813 C 470.768 861.103, 480.065 878.976, 495.513 886.560 C 500.989 889.249, 502.400 889.500, 512.052 889.500 C 522.096 889.500, 522.931 889.334, 529.379 886.061 C 552.414 874.370, 557.855 844.514, 540.474 825.182 C 535.473 819.620, 528.703 815.679, 520.465 813.533 C 513.599 811.744, 510.360 811.718, 503.459 813.395 M 504.923 840.923 C 502.561 843.285, 502 844.707, 502 848.334 C 502 852.118, 502.483 853.228, 505.077 855.411 C 507.045 857.068, 509.359 858, 511.500 858 C 513.641 858, 515.955 857.068, 517.923 855.411 C 524.603 849.790, 520.254 838, 511.500 838 C 508.795 838, 507.087 838.759, 504.923 840.923" stroke="none" fill-rule="evenodd" id="lovable-element-1751995459914sa4jh4gom" fill="#FFFFFF"/>
</svg>