<svg xmlns="http://www.w3.org/2000/svg" width="100%" height="100%" viewBox="0 0 1024 1024" version="1.1" style="width: 100%; height: 100%; display: block;">
	<path d="M 241.315 104.002 C 227.676 106.011, 212.836 112.427, 202.419 120.819 C 189.649 131.106, 178.592 148.007, 173.797 164.568 L 171.500 172.500 171.500 513 C 171.500 885.761, 171.026 857.437, 177.501 871.622 C 187.274 893.033, 206.118 909.448, 228.080 915.679 C 234.224 917.422, 247.061 917.500, 526.573 917.500 L 818.646 917.500 822.911 914.677 C 836.172 905.902, 831.575 886.869, 815.579 884.319 C 810.238 883.467, 806.736 879.682, 801.867 869.500 C 795.666 856.531, 794.486 850.686, 794.598 833.500 C 794.684 820.294, 795.014 817.446, 797.360 809.693 C 802.160 793.827, 804.668 790.219, 816.137 782.682 C 823.569 777.797, 828.336 771.321, 829.914 763.967 C 830.682 760.384, 830.995 670.048, 830.983 455.201 C 830.964 120.983, 831.409 144.416, 824.821 131 C 819.365 119.889, 809.652 111.740, 795.120 106.079 L 788.500 103.500 517.500 103.369 C 368.450 103.298, 244.167 103.582, 241.315 104.002 M 244.500 138.870 C 228.957 143.344, 215.113 154.617, 208.729 168 C 206.761 172.125, 204.667 178.170, 204.076 181.434 C 203.324 185.580, 203 275.435, 203 479.682 L 203 771.996 209.250 767.389 C 220.506 759.093, 233.633 753.669, 247.750 751.482 L 252 750.824 252 443.912 C 252 275.110, 251.662 137.032, 251.250 137.071 C 250.838 137.110, 247.800 137.920, 244.500 138.870 M 285 444.250 L 285 751 541.500 751 L 798 751 797.994 452.750 C 797.990 237.640, 797.680 153.385, 796.881 150.500 C 795.444 145.312, 792.580 141.352, 788.885 139.441 C 786.257 138.082, 758.008 137.888, 535.464 137.706 L 285 137.500 285 444.250 M 376 249.572 C 371.624 251.603, 365.944 256.660, 348.210 274.313 C 322.256 300.147, 319.993 303.444, 320.010 315.410 C 320.028 328.889, 317.630 326.036, 388.784 397.243 L 452.479 460.985 387.856 525.743 C 326.725 587.002, 323.140 590.791, 321.494 595.879 C 319.227 602.884, 319.821 613.849, 322.773 619.500 C 323.929 621.713, 335.725 634.315, 349.181 647.713 C 376.465 674.878, 378.565 676.351, 390.069 676.390 C 402.768 676.432, 400.733 678.175, 471.477 606.687 L 534.995 542.500 598.096 606.266 C 633.444 641.985, 663.023 671.075, 665.349 672.404 C 670.770 675.501, 679.103 677.380, 683.777 676.557 C 695.683 674.462, 695.969 674.251, 722.295 648.115 C 750.449 620.166, 752.161 617.755, 752.235 605.960 C 752.312 593.740, 754.326 596.108, 683.614 525.294 L 619.500 461.087 648.930 431.294 C 665.116 414.907, 693.777 385.965, 712.620 366.978 C 750.993 328.312, 751.980 327.009, 751.980 315 C 751.980 303.896, 750.242 301.429, 724.147 275.500 C 709.511 260.958, 699.262 251.581, 696.276 250 C 692.246 247.867, 690.229 247.500, 682.527 247.500 C 675.726 247.500, 672.514 247.969, 669.500 249.401 C 666.833 250.669, 643.925 272.824, 600.753 315.887 L 536.007 380.472 472.554 316.986 C 400.780 245.175, 402.945 246.992, 389.163 247.010 C 383.064 247.018, 380.378 247.540, 376 249.572 M 256.500 786.626 C 255.400 786.842, 252.025 787.504, 249 788.095 C 245.975 788.687, 239.675 790.999, 235 793.234 C 212.731 803.879, 200.899 826.835, 206.533 848.465 C 208.791 857.133, 212.620 863.415, 219.660 870.001 C 226.770 876.652, 235.740 881.328, 244.434 882.916 C 248.597 883.677, 328.331 884, 511.719 884 L 773.070 884 771.923 881.857 C 769.202 876.772, 764.803 861.768, 763.463 853 C 760.161 831.389, 762.912 805.813, 770.481 787.750 C 771.178 786.086, 758.645 786.006, 514.857 786.116 C 373.861 786.180, 257.600 786.409, 256.500 786.626 M 275 817.718 C 268.898 820.025, 264.064 827.211, 264.022 834.038 C 263.986 839.847, 267.821 846.157, 272.962 848.750 L 277.424 851 498.262 851 C 699.882 851, 719.378 850.859, 722.300 849.379 C 729.225 845.873, 732.231 841.218, 732.231 834 C 732.231 828.200, 730.075 823.922, 725.329 820.302 L 721.656 817.500 499.078 817.326 C 376.660 817.230, 275.825 817.406, 275 817.718" stroke="none" fill-rule="evenodd" id="lovable-element-17518463884806xbyklcsx" fill="#FFFFFF"/>
</svg>