<svg xmlns="http://www.w3.org/2000/svg" width="1024" height="1024" viewBox="0 0 1024 1024" version="1.1">
	<path d="M 730.679 128.033 C 684.716 135.243, 646.579 162.806, 622.742 206.042 C 605.852 236.677, 602.062 281.670, 613.484 315.948 C 621 338.501, 638.973 365.989, 655.799 380.664 C 678.800 400.724, 712.285 414.259, 744.500 416.517 C 759.667 417.580, 788.476 413.355, 803.277 407.898 C 852.178 389.867, 883.738 353.389, 895.095 301.770 C 898.013 288.504, 898.790 261.732, 896.618 249.276 C 891.630 220.674, 877.362 192.823, 856.637 171.234 C 840.381 154.299, 827.660 145.710, 806.690 137.511 C 786.642 129.672, 777.420 127.862, 755.500 127.464 C 745.050 127.275, 733.880 127.530, 730.679 128.033 M 734.713 160.019 C 719.754 162.393, 702.727 169.717, 688.622 179.844 C 677.908 187.536, 661.672 204.741, 655.655 214.779 C 647.495 228.390, 641.931 248.065, 640.462 268.505 C 639.204 286.007, 644.082 306.707, 653.257 322.804 C 668.337 349.260, 689.823 367.579, 716.390 376.629 C 738.597 384.194, 766.054 383.750, 791.708 375.411 C 826.003 364.264, 853.858 332.337, 862.135 294.690 C 863.585 288.098, 864.196 281.400, 864.299 271 C 864.427 258.084, 864.135 255.298, 861.625 245.500 C 857.750 230.372, 853.815 221.156, 846.457 209.972 C 832.131 188.200, 804.945 169.186, 778.500 162.442 C 767.287 159.583, 745.171 158.359, 734.713 160.019 M 136.413 190.820 C 125.121 194.731, 115.454 203.196, 110.048 213.906 C 103.580 226.718, 104.031 202.596, 104.015 536.540 C 103.999 869.441, 103.575 845.542, 109.711 857.781 C 114.838 868.008, 126.521 877.743, 139 882.186 L 145.500 884.500 482.500 884.500 L 819.500 884.500 826.546 882.283 C 843.750 876.870, 857.884 861.474, 861.557 844.144 C 863.616 834.430, 863.705 445.622, 861.649 440.702 C 860.039 436.849, 853.979 431.284, 850.421 430.391 C 841.459 428.141, 832.145 434.143, 829.958 443.577 C 829.429 445.859, 829.044 528.574, 829.039 641.323 C 829.029 828.177, 828.962 835.298, 827.167 839.356 C 824.872 844.543, 820.203 848.599, 814.875 850.034 C 808.943 851.631, 158.151 851.663, 152.237 850.067 C 146.896 848.625, 141.240 843.736, 138.865 838.509 C 137.117 834.660, 137.044 822.632, 137.053 537 L 137.061 239.500 139.281 234.043 C 140.922 230.007, 142.629 227.794, 145.836 225.543 L 150.172 222.500 367.336 222 L 584.500 221.500 587.773 219.166 C 597.317 212.358, 597.239 198.748, 587.615 191.562 L 584.853 189.500 363.177 189.279 C 153.743 189.071, 141.219 189.156, 136.413 190.820 M 807.622 214.326 C 803 215.438, 801.838 216.544, 761.422 258.310 L 731.608 289.119 717.351 274.810 C 709.510 266.939, 701.835 259.958, 700.297 259.295 C 687.639 253.842, 673.468 265.883, 677.020 279.074 C 678.303 283.838, 686.930 293.745, 707.177 313.703 C 724.973 331.246, 729.479 333.328, 739.500 328.642 C 743.219 326.903, 747.572 323, 756.496 313.402 C 763.094 306.306, 781.094 287.548, 796.496 271.718 C 811.898 255.887, 825.548 241.037, 826.829 238.718 C 828.675 235.376, 829.072 233.401, 828.744 229.209 C 827.900 218.458, 818.366 211.739, 807.622 214.326 M 481.962 296.250 C 478.718 297.886, 476.868 299.729, 475.185 303 C 470.706 311.710, 474.082 320.936, 483.423 325.506 C 488.506 327.993, 489.368 328.095, 502.873 327.804 C 510.644 327.637, 517.003 327.752, 517.002 328.060 C 517 328.598, 500.630 343.779, 474.053 367.888 C 402.470 432.824, 308.554 499.155, 229 540.965 C 218.275 546.602, 208.430 552.178, 207.121 553.357 C 203.840 556.313, 202 561.072, 202 566.600 C 202 578.328, 214.148 585.320, 225.500 580.126 C 236.418 575.131, 286.777 545.769, 315.500 527.652 C 390.418 480.397, 451.958 433.531, 513.321 377 C 522.575 368.475, 533.151 358.743, 536.823 355.373 L 543.500 349.246 543.171 364.373 C 542.727 384.729, 544.381 389.603, 553.271 394.138 C 561.266 398.217, 571.111 394.372, 575.087 385.616 C 576.804 381.835, 576.958 378.468, 576.978 344.218 C 577.002 304.274, 576.836 302.789, 571.879 298.389 C 567.238 294.269, 564.338 294, 524.563 294 C 487 294, 486.356 294.034, 481.962 296.250 M 589.168 437.146 C 586.633 438.401, 583.730 440.962, 582.168 443.322 L 579.500 447.354 579.239 630.821 L 578.979 814.288 581.391 818.405 C 582.743 820.712, 585.555 823.506, 587.788 824.761 C 591.770 826.999, 591.801 827, 642.985 827 C 700.476 827, 698.656 827.218, 704.116 819.681 L 707 815.700 707 631.800 C 707 433.138, 707.329 445.355, 701.845 440.367 C 695.818 434.884, 697.078 435, 643.300 435.001 C 594.398 435.002, 593.422 435.040, 589.168 437.146 M 611 631.514 L 611 796.028 643.238 795.764 L 675.477 795.500 675.488 631.250 L 675.500 467 643.250 467 L 611 467 611 631.514 M 436.020 523.250 C 433.598 524.487, 430.240 527.229, 428.558 529.343 L 425.500 533.185 425.211 671.843 C 425.053 748.104, 425.190 811.989, 425.518 813.810 C 426.212 817.668, 431.806 824.263, 435.783 825.910 C 437.763 826.730, 453.013 826.975, 489.700 826.777 C 539.584 826.507, 540.924 826.449, 543.616 824.438 C 547.604 821.460, 550.004 817.899, 551.043 813.423 C 552.422 807.477, 552.270 539.512, 550.885 534.523 C 549.469 529.425, 543.575 523.531, 538.477 522.115 C 535.836 521.382, 518.696 521.009, 487.462 521.006 C 440.648 521, 440.403 521.011, 436.020 523.250 M 458 675.014 L 458 796.029 488.750 795.764 L 519.500 795.500 519.754 674.750 L 520.008 554 489.004 554 L 458 554 458 675.014 M 288.500 604.659 C 284.038 607.007, 279.929 611.090, 278.377 614.718 C 276.268 619.647, 276.337 812.817, 278.449 816.901 C 280.571 821.005, 286.474 825.813, 290.229 826.497 C 292.028 826.824, 315.171 826.959, 341.658 826.796 L 389.816 826.500 393.658 823.429 C 401.555 817.116, 400.997 825.306, 400.998 715.815 C 401 649.224, 400.661 617.234, 399.936 615.315 C 398.424 611.313, 394.156 607.051, 389.500 604.896 C 385.784 603.175, 382.163 603.045, 338.500 603.062 C 297.637 603.078, 291.108 603.286, 288.500 604.659 M 309 715.500 L 309 796 339.500 796 L 370 796 370 715.500 L 370 635 339.500 635 L 309 635 309 715.500 M 170.073 674.062 C 162.706 679.399, 163 676.282, 163 749.067 C 163 821.554, 162.712 818.389, 169.811 823.806 L 173.341 826.500 204.920 826.803 C 222.289 826.969, 237.972 826.834, 239.771 826.503 C 243.842 825.754, 249.857 820.586, 251.649 816.298 C 252.736 813.696, 253 800.553, 253 749.052 C 253 676.973, 253.231 679.353, 245.701 673.898 L 241.700 671 208 671 L 174.300 671 170.073 674.062 M 194 749 L 194 796 207.500 796 L 221 796 221 749 L 221 702 207.500 702 L 194 702 194 749" stroke="none" fill="black" fill-rule="evenodd"/>
</svg>